<?xml version="1.0" encoding="utf-8"?>
<!-- Generator: Adobe Illustrator 24.0.3, SVG Export Plug-In . SVG Version: 6.00 Build 0)  -->
<svg version="1.1" id="Layer_1" xmlns="http://www.w3.org/2000/svg" xmlns:xlink="http://www.w3.org/1999/xlink" x="0px" y="0px"
	 viewBox="0 0 360 231" style="enable-background:new 0 0 360 231;" xml:space="preserve">
<style type="text/css">
	.st0{fill-rule:evenodd;clip-rule:evenodd;fill:#FFFFFF;}
	.st1{enable-background:new    ;}
	.st2{opacity:0.4;enable-background:new    ;}
	.st3{fill-rule:evenodd;clip-rule:evenodd;fill-opacity:0.12;}
	.st4{fill:none;}
	.st5{fill:#3086F6;}
	.st6{fill:#EA4435;}
</style>
<title>Documents you may need</title>
<g id="Clean">
	<g id="Homepage-_x28_desktop_x29_" transform="translate(-300.000000, -1778.000000)">
		<g id="Content" transform="translate(100.000000, 260.000000)">
			<g id="Features" transform="translate(200.000000, 1052.000000)">
				<g id="Documents-you-may-need" transform="translate(0.000000, 466.000000)">
					<path id="Rectangle-Copy-2" class="st0" d="M32,0h296c17.7,0,32,14.3,32,32v167c0,17.7-14.3,32-32,32H32c-17.7,0-32-14.3-32-32
						V32C0,14.3,14.3,0,32,0z"/>
					<g id="Group_1_" transform="translate(24.000000, 32.000000)">
						<g class="st1">
							<g>
								<path class="st2" d="M1.1,4.2h2.8c3,0,5.2,1.7,5.2,4.9S6.9,14,3.9,14H1.1V4.2z M4,12.6c2.1,0,3.6-1.1,3.6-3.5S6.1,5.6,4,5.6
									H2.6v7H4z"/>
								<path class="st2" d="M10.5,10.5c0-2.4,1.8-3.7,3.7-3.7s3.7,1.3,3.7,3.7s-1.8,3.7-3.7,3.7S10.5,12.9,10.5,10.5z M16.5,10.5
									c0-1.4-1-2.3-2.2-2.3C13,8.2,12,9.1,12,10.5s1,2.3,2.3,2.3C15.5,12.9,16.5,12,16.5,10.5z"/>
								<path class="st2" d="M19.2,10.5c0-2.2,1.7-3.7,3.6-3.7c1.5,0,2.5,0.6,3.1,1.8l-1.2,0.7c-0.4-0.8-1.1-1.1-1.9-1.1
									c-1.2,0-2.1,0.9-2.1,2.3s0.9,2.3,2.1,2.3c1,0,1.5-0.4,1.9-1.2l1.2,0.7c-0.7,1.1-1.6,1.8-3.1,1.8
									C20.8,14.2,19.2,12.7,19.2,10.5z"/>
								<path class="st2" d="M27.5,11.5V7.1H29v4.1c0,1.1,0.5,1.7,1.5,1.7c1.1,0,1.8-0.9,1.8-2.2V7.1h1.4V14h-1.4v-1.1
									c-0.4,0.8-1.3,1.3-2.3,1.3C28.6,14.2,27.5,13.3,27.5,11.5z"/>
								<path class="st2" d="M35.8,7.1h1.5v1c0.4-0.8,1.2-1.2,2-1.2c1,0,1.6,0.5,1.9,1.3c0.5-0.8,1.3-1.3,2.2-1.3
									c1.4,0,2.2,0.9,2.2,2.2v5h-1.4V9.5c0-0.9-0.4-1.4-1.2-1.4s-1.5,0.7-1.5,2.1V14H40V9.5c0-0.9-0.4-1.4-1.2-1.4s-1.5,0.7-1.5,2
									V14h-1.5V7.1z"/>
								<path class="st2" d="M47.2,10.5c0-2.2,1.6-3.7,3.6-3.7s3.4,1.4,3.4,3.5v0.5h-5.5c0.1,1.2,0.9,2.1,2.1,2.1
									c1.1,0,1.7-0.5,2.1-1.4l1.1,0.6c-0.7,1.4-1.7,2-3.2,2C48.8,14.2,47.2,12.7,47.2,10.5z M52.8,9.7c-0.1-1.1-1-1.7-2-1.7
									c-1.1,0-1.9,0.7-2.1,1.7H52.8z"/>
								<path class="st2" d="M55.9,7.1h1.5v1.2c0.5-0.8,1.4-1.4,2.4-1.4c1.4,0,2.4,0.9,2.4,2.4V14h-1.5V9.8c0-1-0.5-1.6-1.5-1.6
									s-1.8,0.9-1.8,2.1V14h-1.5C55.9,14,55.9,7.1,55.9,7.1z"/>
								<path class="st2" d="M64.5,12.1V8.2h-1.1V7.1h1.1V5.2h1.4v1.9h1.6v1.2h-1.6V12c0,0.7,0.4,1,0.9,1c0.2,0,0.4,0,0.6-0.1
									l0.1,1.2c-0.3,0.1-0.6,0.2-1,0.2C65.4,14.2,64.5,13.7,64.5,12.1z"/>
								<path class="st2" d="M68.7,12.1l1.2-0.7c0.3,0.9,1,1.6,1.9,1.6c0.7,0,1.3-0.4,1.3-1s-0.5-0.9-1.6-1.1
									c-1.3-0.3-2.4-0.9-2.4-2.1s1.2-1.9,2.5-1.9c1.5,0,2.3,0.6,2.8,1.7l-1.1,0.6c-0.3-0.8-0.9-1.3-1.7-1.3
									c-0.7,0-1.2,0.3-1.2,0.8s0.6,0.9,1.8,1.1c1.5,0.3,2.3,0.9,2.3,2.1s-1,2.3-2.7,2.3C70.1,14.2,69.1,13.2,68.7,12.1z"/>
								<path class="st2" d="M80.2,16.8l0.2-1.3c0.2,0.1,0.4,0.1,0.6,0.1c0.4,0,0.6-0.2,0.8-0.7l0.4-0.9l-2.9-7h1.6l2,5l1.9-5h1.6
									L83,15.3c-0.4,1.2-1,1.7-2,1.7C80.7,17,80.4,16.9,80.2,16.8z"/>
								<path class="st2" d="M87.1,10.5c0-2.4,1.8-3.7,3.7-3.7c1.9,0,3.7,1.3,3.7,3.7s-1.8,3.7-3.7,3.7S87.1,12.9,87.1,10.5z
									 M93.1,10.5c0-1.4-1-2.3-2.2-2.3s-2.3,0.9-2.3,2.3s1,2.3,2.3,2.3C92.1,12.9,93.1,12,93.1,10.5z"/>
								<path class="st2" d="M96.2,11.5V7.1h1.5v4.1c0,1.1,0.5,1.7,1.5,1.7c1.1,0,1.8-0.9,1.8-2.2V7.1h1.4V14H101v-1.1
									c-0.4,0.8-1.3,1.3-2.3,1.3C97.3,14.2,96.2,13.3,96.2,11.5z"/>
								<path class="st2" d="M108.7,7.1h1.5v1c0.4-0.8,1.2-1.2,2-1.2c1,0,1.6,0.5,1.9,1.3c0.5-0.8,1.3-1.3,2.2-1.3
									c1.4,0,2.2,0.9,2.2,2.2v5H117V9.5c0-0.9-0.4-1.4-1.2-1.4c-0.8,0-1.5,0.7-1.5,2.1V14h-1.4V9.5c0-0.9-0.4-1.4-1.2-1.4
									c-0.8,0-1.5,0.7-1.5,2V14h-1.5C108.7,14,108.7,7.1,108.7,7.1z"/>
								<path class="st2" d="M120.2,12c0-1.4,1.1-2.1,2.4-2.3l2.2-0.3V9.1c0-0.8-0.5-1.2-1.4-1.2c-1,0-1.5,0.4-1.5,1
									c0,0.1,0,0.1,0,0.2l-1.3,0.4c-0.1-0.2-0.1-0.4-0.1-0.6c0-1.1,1.1-2.1,2.8-2.1c1.9,0,2.9,0.8,2.9,2.4v3
									c0,0.8,0.1,1.2,0.4,1.7h-1.5c-0.1-0.2-0.4-0.6-0.4-1.2c-0.4,0.9-1.3,1.4-2.4,1.4C121.1,14.2,120.2,13.3,120.2,12z
									 M124.8,10.7v-0.2l-1.9,0.3c-0.9,0.1-1.3,0.5-1.3,1.2c0,0.6,0.5,1,1.2,1C124,13,124.8,12,124.8,10.7z"/>
								<path class="st2" d="M128.5,16.8l0.2-1.3c0.2,0.1,0.4,0.1,0.6,0.1c0.4,0,0.6-0.2,0.8-0.7l0.4-0.9l-2.9-7h1.6l2,5l1.9-5h1.6
									l-3.4,8.3c-0.4,1.1-1.1,1.6-2.1,1.6C129,17,128.7,16.9,128.5,16.8z"/>
								<path class="st2" d="M140.1,7.1h1.5v1.2c0.5-0.8,1.4-1.4,2.4-1.4c1.4,0,2.4,0.9,2.4,2.4V14H145V9.8c0-1-0.5-1.6-1.5-1.6
									s-1.8,0.9-1.8,2.1V14h-1.5L140.1,7.1L140.1,7.1z"/>
								<path class="st2" d="M148,10.5c0-2.2,1.6-3.7,3.6-3.7s3.4,1.4,3.4,3.5v0.5h-5.5c0.1,1.2,0.9,2.1,2.1,2.1
									c1.1,0,1.7-0.5,2.1-1.4l1.1,0.6c-0.7,1.4-1.7,2-3.2,2C149.6,14.2,148,12.7,148,10.5z M153.6,9.7c-0.1-1.1-1-1.7-2-1.7
									c-1.1,0-1.9,0.7-2.1,1.7H153.6z"/>
								<path class="st2" d="M156.2,10.5c0-2.2,1.6-3.7,3.6-3.7s3.4,1.4,3.4,3.5v0.5h-5.5c0.1,1.2,0.9,2.1,2.1,2.1
									c1.1,0,1.7-0.5,2.1-1.4l1.1,0.6c-0.7,1.4-1.7,2-3.2,2C157.8,14.2,156.2,12.7,156.2,10.5z M161.8,9.7c-0.1-1.1-1-1.7-2-1.7
									s-1.9,0.7-2.1,1.7H161.8z"/>
								<path class="st2" d="M164.5,10.5c0-2.2,1.6-3.7,3.4-3.7c1.1,0,1.9,0.5,2.3,1.2V4.2h1.5V14h-1.5v-1.1
									c-0.4,0.7-1.2,1.3-2.3,1.3C166,14.2,164.5,12.8,164.5,10.5z M170.3,10.5c0-1.4-0.9-2.3-2.2-2.3s-2.2,1-2.2,2.3
									c0,1.4,0.9,2.3,2.2,2.3C169.4,12.9,170.3,11.9,170.3,10.5z"/>
							</g>
						</g>
						<g id="Group" transform="translate(0.000000, 36.000000)">
							<g transform="translate(48.000000, 65.000000)">
								<g id="_x2796_Divider">
									<rect class="st3" width="264" height="1"/>
								</g>
							</g>
							<g id="Guests---small">
								<g id="Document-type">
									<rect id="container" class="st4" width="28" height="47.6"/>
									<g id="article-24px" transform="translate(4.000000, 11.818182)">
										<polygon id="Path" class="st4" points="0,0 24,0 24,24 0,24 										"/>
										<path id="Shape" class="st5" d="M19,3H5C3.9,3,3,3.9,3,5v14c0,1.1,0.9,2,2,2h14c1.1,0,2-0.9,2-2V5C21,3.9,20.1,3,19,3z
											 M14,17H7v-2h7V17z M17,13H7v-2h10V13z M17,9H7V7h10V9z"/>
									</g>
								</g>
								<g id="Name_x2C_-email" transform="translate(48.000000, 0.000000)">
									<g class="st2">
										<g>
											<path d="M1.2,31h1.3L6,39.7L9.5,31h1.3v9.8H9.7v-7.5c-0.1,0.4-0.4,1.2-0.5,1.4l-2.6,6.2H5.4l-2.6-6.1
												c-0.1-0.2-0.4-1-0.5-1.4v7.5H1.2V31z"/>
											<path d="M12.6,38.9c0-1.4,1.1-2,2.4-2.2l2.4-0.4V36c0-0.9-0.6-1.4-1.6-1.4c-1.1,0-1.7,0.5-1.7,1.1c0,0.1,0,0.1,0,0.2
												l-1,0.3C13,36,13,35.8,13,35.7c0-1.1,1.1-2,2.7-2c1.8,0,2.8,0.8,2.8,2.3v3.1c0,0.8,0.1,1.2,0.4,1.7h-1.1
												c-0.2-0.2-0.4-0.7-0.4-1.4C17,40.3,16,41,15,41C13.5,41,12.6,40.1,12.6,38.9z M17.3,37.4v-0.3l-2.1,0.3
												c-0.9,0.2-1.5,0.6-1.5,1.4c0,0.7,0.5,1.2,1.4,1.2C16.5,40,17.3,38.8,17.3,37.4z"/>
											<path d="M20.6,33.9h1.1v1.2c0.3-0.8,1.1-1.4,2-1.4c0.2,0,0.4,0,0.6,0.1l-0.2,1c-0.1,0-0.3-0.1-0.5-0.1
												c-1.1,0-1.8,1.1-1.8,2.5v3.7h-1.1v-7H20.6z"/>
											<path d="M24.9,37.3c0-2.2,1.6-3.7,3.6-3.7c1.5,0,2.5,0.6,3,1.8L30.6,36c-0.5-0.9-1.2-1.3-2.1-1.3c-1.3,0-2.4,1-2.4,2.6
												s1,2.6,2.4,2.6c1.1,0,1.7-0.5,2.1-1.3l0.9,0.5c-0.6,1.1-1.6,1.8-3,1.8C26.4,41,24.9,39.5,24.9,37.3z"/>
											<path d="M33.1,31h1.1v4.1c0.5-0.9,1.4-1.5,2.5-1.5c1.5,0,2.4,0.9,2.4,2.4v4.7H38v-4.4c0-1.1-0.7-1.7-1.7-1.7
												c-1.1,0-2.1,1-2.1,2.4v3.7h-1.1C33.1,40.7,33.1,31,33.1,31z"/>
											<path d="M45.3,38.2c0-0.3,0.1-0.6,0.1-0.8l1.1,0.3c0,0.1-0.1,0.3-0.1,0.5c0,1.1,0.8,1.8,2.1,1.8c1.2,0,2.1-0.7,2.1-2
												c0-1.4-1.2-2-2.7-2v-1c1.6,0,2.3-0.9,2.3-1.7c0-1-0.7-1.5-1.8-1.5c-1,0-1.8,0.6-1.8,1.6c0,0.1,0,0.3,0.1,0.4l-1,0.2
												c-0.1-0.2-0.1-0.4-0.1-0.7c0-1.4,1.2-2.6,2.9-2.6c1.9,0,2.9,1,2.9,2.4c0,0.9-0.5,1.8-1.6,2.2C51,35.7,52,36.6,52,38
												c0,1.9-1.4,3.1-3.3,3.1C46.5,41,45.3,39.6,45.3,38.2z"/>
											<path d="M57.8,40l3.8-3.7c1-1,1.4-1.7,1.4-2.6c0-1.1-0.8-1.8-2-1.8c-1.1,0-2,0.7-2,1.9c0,0.3,0.1,0.5,0.1,0.6L58,34.6
												c-0.1-0.3-0.2-0.6-0.2-0.9c0-1.5,1.2-2.8,3.1-2.8c2,0,3.1,1.2,3.1,2.7c0,1.2-0.4,2.1-1.8,3.4l-2.7,2.7H64v1.1h-6.3V40
												H57.8z"/>
											<path d="M65.5,35.9c0-3.1,1.8-5.1,4.3-5.1s4.3,2,4.3,5.1S72.3,41,69.8,41S65.5,39,65.5,35.9z M72.9,35.9
												c0-2.5-1.3-4-3.1-4s-3.1,1.5-3.1,4s1.3,4,3.1,4S72.9,38.4,72.9,35.9z"/>
											<path d="M75.4,40l3.8-3.7c1-1,1.4-1.7,1.4-2.6c0-1.1-0.8-1.8-2-1.8c-1.1,0-2,0.7-2,1.9c0,0.3,0.1,0.5,0.1,0.6l-1.1,0.2
												c-0.1-0.3-0.2-0.6-0.2-0.9c0-1.5,1.2-2.8,3.1-2.8c2,0,3.1,1.2,3.1,2.7c0,1.2-0.4,2.1-1.8,3.4l-2.7,2.7h4.5v1.1h-6.3
												L75.4,40L75.4,40z"/>
											<path d="M85.8,32.5c-0.5,0.5-1.1,0.7-2.1,0.7v-1c1.1,0,1.7-0.4,2.2-1.2H87v9.8h-1.2V32.5z"/>
											<path d="M93.1,38.9c0-1.4,1.1-2,2.4-2.2l2.4-0.4V36c0-0.9-0.6-1.4-1.6-1.4c-1.1,0-1.7,0.5-1.7,1.1c0,0.1,0,0.1,0,0.2
												l-1,0.3c-0.1-0.2-0.1-0.4-0.1-0.5c0-1.1,1.1-2,2.7-2c1.8,0,2.8,0.8,2.8,2.3v3.1c0,0.8,0.1,1.2,0.4,1.7h-1.1
												c-0.2-0.2-0.4-0.7-0.4-1.4c-0.4,0.9-1.4,1.6-2.4,1.6C94,41,93.1,40.1,93.1,38.9z M97.8,37.4v-0.3l-2.1,0.3
												c-0.9,0.2-1.5,0.6-1.5,1.4c0,0.7,0.5,1.2,1.4,1.2C97,40,97.8,38.8,97.8,37.4z"/>
											<path d="M101.5,39v-4.3h-1.2v-0.9h1.2V32h1.1v1.9h1.7v0.9h-1.7V39c0,0.7,0.3,1.1,1,1.1c0.2,0,0.4,0,0.5-0.1l0.1,0.9
												c-0.2,0.1-0.5,0.1-0.9,0.1C102.3,41,101.5,40.5,101.5,39z"/>
											<path d="M109.8,36.5c0-1.3,0.2-2.4,0.6-3.2c0.6-1.6,1.8-2.5,3.2-2.5c1.8,0,2.9,1,2.9,2.3c0,0.3,0,0.5-0.1,0.7l-1.1-0.2
												c0.1-0.2,0.1-0.3,0.1-0.5c0-0.8-0.6-1.3-1.7-1.3c-1.6,0-2.6,1.7-2.7,4.1c0.5-0.9,1.6-1.5,2.7-1.5c1.9,0,3.3,1.4,3.3,3.3
												c0,1.9-1.4,3.3-3.5,3.3C111.2,41,109.8,39.4,109.8,36.5z M115.7,37.7c0-1.5-1.1-2.3-2.3-2.3c-1.2,0-2.3,0.8-2.3,2.3
												s1.1,2.3,2.3,2.3C114.7,40,115.7,39.2,115.7,37.7z"/>
											<path d="M118.4,34.1h1.4v1.4h-1.4V34.1z M118.4,39.4h1.4v1.4h-1.4V39.4z"/>
											<path d="M121.5,38.3c0-0.2,0-0.5,0.1-0.7l1.1,0.3c0,0.1-0.1,0.2-0.1,0.4c0,1.1,0.9,1.8,2.1,1.8c1.4,0,2.4-0.9,2.4-2.5
												c0-1.5-0.9-2.4-2.3-2.4c-1,0-1.9,0.7-2.3,1.5l-1-0.3L122,31h5.7v1.1h-4.8l-0.4,3.3c0.6-0.8,1.6-1.2,2.5-1.2
												c2.1,0,3.2,1.4,3.2,3.4s-1.4,3.5-3.5,3.5C122.7,41,121.5,39.7,121.5,38.3z"/>
											<path d="M134.5,32.1h-5.2V31h6.3v1l-3.9,8.8h-1.2L134.5,32.1z"/>
											<path d="M144.6,31h1.2l3.9,9.8h-1.2l-1.1-2.9H143l-1.1,2.9h-1.2L144.6,31z M147,36.9l-1.5-3.9c-0.1-0.2-0.2-0.5-0.3-0.7
												c-0.1,0.2-0.2,0.5-0.3,0.7l-1.5,3.9H147z"/>
											<path d="M151,31h1.3l3.5,8.7l3.5-8.7h1.3v9.8h-1.1v-7.5c-0.1,0.4-0.4,1.2-0.5,1.4l-2.6,6.2h-1.2l-2.6-6.1
												c-0.1-0.2-0.4-1-0.5-1.4v7.5H151V31z"/>
										</g>
									</g>
									<g class="st1">
										<path d="M0.7,12.9c0-1.4,1.1-2,2.4-2.2l2.4-0.4V10c0-0.9-0.6-1.4-1.6-1.4c-1.1,0-1.7,0.5-1.7,1.1c0,0.1,0,0.1,0,0.2
											l-1,0.3C1.1,10,1.1,9.8,1.1,9.7c0-1.1,1.1-2,2.7-2c1.8,0,2.8,0.8,2.8,2.3v3.1c0,0.8,0.1,1.2,0.4,1.7H5.8
											c-0.2-0.2-0.4-0.7-0.4-1.4C5,14.4,4,15,3,15C1.6,15,0.7,14.1,0.7,12.9z M5.4,11.4v-0.3l-2.1,0.3c-0.9,0.2-1.5,0.6-1.5,1.4
											c0,0.7,0.5,1.2,1.4,1.2C4.6,14,5.4,12.8,5.4,11.4z"/>
										<path d="M8.3,11.4c0-2.2,1.6-3.7,3.6-3.7c1.5,0,2.5,0.6,3,1.8L14,10c-0.5-0.9-1.2-1.3-2.1-1.3c-1.3,0-2.4,1-2.4,2.6
											s1,2.6,2.4,2.6c1.1,0,1.7-0.5,2.1-1.3l0.9,0.5c-0.6,1.1-1.6,1.8-3,1.8C9.8,15,8.3,13.5,8.3,11.4z"/>
										<path d="M17,13V8.8h-1.2V7.9H17V6h1.1v1.9h1.7v0.9h-1.7V13c0,0.7,0.3,1.1,1,1.1c0.2,0,0.4,0,0.5-0.1l0.1,0.9
											C19.5,15,19.2,15,18.9,15C17.9,15,17,14.5,17,13z"/>
										<path d="M21.4,5.3h1.3v1.4h-1.3V5.3z M21.6,7.9h1.1v6.9h-1.1V7.9z"/>
										<path d="M24.4,11.4c0-2.4,1.7-3.7,3.6-3.7s3.6,1.3,3.6,3.7S29.9,15,28,15C26.2,15,24.4,13.7,24.4,11.4z M30.6,11.4
											c0-1.6-1.1-2.6-2.5-2.6s-2.5,1.1-2.5,2.6c0,1.6,1.1,2.6,2.5,2.6C29.4,14,30.6,12.9,30.6,11.4z"/>
										<path d="M33.5,7.9h1.1v1.2C35.1,8.2,36,7.7,37,7.7c1.3,0,2.4,0.8,2.4,2.4v4.7h-1.1v-4.4c0-1.1-0.7-1.7-1.7-1.7
											c-1.1,0-2,1-2,2.3v3.8h-1.1C33.5,14.8,33.5,7.9,33.5,7.9z"/>
										<path d="M40.8,14.9h6.1v0.9h-6.1V14.9z"/>
										<path d="M48.2,5.3h1.3v1.4h-1.3V5.3z M48.3,7.9h1.1v6.9h-1.1V7.9z"/>
										<path d="M52.2,13V8.8H51V7.9h1.2V6h1.1v1.9H55v0.9h-1.7V13c0,0.7,0.3,1.1,1,1.1c0.2,0,0.4,0,0.5-0.1l0.1,0.9
											C54.7,15,54.4,15,54,15C53,15,52.2,14.5,52.2,13z"/>
										<path d="M56,11.4c0-2.2,1.6-3.7,3.5-3.7c2,0,3.3,1.4,3.3,3.5v0.4h-5.7c0.1,1.4,1,2.5,2.4,2.5c1.2,0,1.9-0.6,2.3-1.6
											l0.8,0.5c-0.6,1.3-1.6,2-3.2,2C57.6,15,56,13.5,56,11.4z M61.7,10.6c-0.1-1.3-1.1-2-2.2-2c-1.2,0-2.2,0.9-2.4,2H61.7z"/>
										<path d="M64.7,7.9h1.1V9c0.4-0.7,1.2-1.3,2.1-1.3s1.6,0.5,1.9,1.3c0.4-0.8,1.3-1.3,2.2-1.3c1.3,0,2.1,0.8,2.1,2.1v5.1H73
											v-4.7c0-0.9-0.5-1.4-1.3-1.4c-0.9,0-1.7,0.8-1.7,2.4v3.7h-1.1v-4.7c0-0.9-0.4-1.5-1.3-1.5s-1.7,0.9-1.7,2.4v3.8h-1.1v-7
											H64.7z"/>
										<path d="M75.7,13l0.9-0.6c0.3,1,1,1.6,2,1.6c0.9,0,1.5-0.5,1.5-1.2s-0.5-1-1.7-1.3c-1.3-0.2-2.4-0.9-2.4-2.1
											s1.1-1.9,2.4-1.9c1.4,0,2.2,0.6,2.7,1.7l-0.9,0.5c-0.3-0.9-1-1.3-1.8-1.3S77,8.7,77,9.3c0,0.7,0.7,1,1.8,1.2
											c1.4,0.3,2.3,0.9,2.3,2.1c0,1.1-0.9,2.2-2.6,2.2C77.1,15,76.1,14.1,75.7,13z"/>
										<path d="M82.5,13.4h1.4v1.4h-1.4V13.4z"/>
										<path d="M85.3,11.4c0-2.2,1.5-3.7,3.3-3.7c1.1,0,2,0.5,2.5,1.4V5h1.1v9.8h-1.1v-1.2c-0.4,0.8-1.3,1.4-2.4,1.4
											C86.7,15,85.3,13.5,85.3,11.4z M91.2,11.4c0-1.5-1-2.6-2.4-2.6s-2.4,1.1-2.4,2.6s1,2.6,2.4,2.6S91.2,12.9,91.2,11.4z"/>
										<path d="M94,11.4c0-2.4,1.7-3.7,3.6-3.7s3.6,1.3,3.6,3.7S99.5,15,97.6,15S94,13.7,94,11.4z M100.1,11.4
											c0-1.6-1.1-2.6-2.5-2.6s-2.5,1.1-2.5,2.6c0,1.6,1.1,2.6,2.5,2.6S100.1,12.9,100.1,11.4z"/>
										<path d="M102.6,11.4c0-2.2,1.6-3.7,3.6-3.7c1.5,0,2.5,0.6,3,1.8l-0.9,0.6c-0.5-0.9-1.2-1.3-2.1-1.3c-1.3,0-2.4,1-2.4,2.6
											s1,2.6,2.4,2.6c1.1,0,1.7-0.5,2.1-1.3l0.9,0.5c-0.6,1.1-1.6,1.8-3,1.8C104.1,15,102.6,13.5,102.6,11.4z"/>
										<path d="M112.5,11.1l-2.1-3.2h1.3l1.5,2.4l1.5-2.4h1.3l-2.1,3.2l2.5,3.8H115l-1.8-2.8l-1.8,2.8H110L112.5,11.1z"/>
									</g>
								</g>
							</g>
							<g id="Guests---small_1_" transform="translate(0.000000, 83.363636)">
								<g id="document-type">
									<rect id="container_1_" y="0" class="st4" width="28" height="47.6"/>
									<g id="picture_as_pdf-24px" transform="translate(4.000000, 11.818182)">
										<polygon id="Path_1_" class="st4" points="0,0 24,0 24,24 0,24 										"/>
										<path id="Shape_1_" class="st6" d="M18.8,3H5.2C4,3,3,4,3,5.2v13.5C3,20,4,21,5.2,21h13.5c1.2,0,2.2-1,2.2-2.2V5.2
											C21,4,20,3,18.8,3z M9.2,11.4c0,0.9-0.8,1.7-1.7,1.7H6.4v2.2H4.7V8.6h2.8c0.9,0,1.7,0.8,1.7,1.7V11.4z M14.8,13.7
											c0,0.9-0.8,1.7-1.7,1.7h-2.8V8.6h2.8c0.9,0,1.7,0.8,1.7,1.7V13.7z M19.3,10.3h-1.7v1.1h1.7v1.7h-1.7v2.2h-1.7V8.6h3.4
											V10.3z M6.4,11.4h1.1v-1.1H6.4V11.4z M12,13.7h1.1v-3.4H12V13.7z"/>
									</g>
								</g>
								<g id="Name_x2C_-email_1_" transform="translate(48.000000, 0.000000)">
									<g class="st1">
										<g>
											<path class="st2" d="M1.2,30.2h1.3L6,38.9l3.5-8.7h1.3V40H9.7v-7.5c-0.1,0.4-0.4,1.2-0.5,1.4L6.6,40H5.4l-2.6-6.1
												c-0.1-0.2-0.4-1-0.5-1.4V40H1.2V30.2z"/>
											<path class="st2" d="M12.6,38.1c0-1.4,1.1-2,2.4-2.2l2.4-0.4v-0.3c0-0.9-0.6-1.4-1.6-1.4c-1.1,0-1.7,0.5-1.7,1.1
												c0,0.1,0,0.1,0,0.2l-1,0.3C13,35.2,13,35,13,34.9c0-1.1,1.1-2,2.7-2c1.8,0,2.8,0.8,2.8,2.3v3.1c0,0.8,0.1,1.2,0.4,1.7
												h-1.1c-0.2-0.2-0.4-0.7-0.4-1.4C17,39.5,16,40.2,15,40.2C13.5,40.2,12.6,39.3,12.6,38.1z M17.3,36.6v-0.3l-2.1,0.3
												c-0.9,0.2-1.5,0.6-1.5,1.4c0,0.7,0.5,1.2,1.4,1.2C16.5,39.2,17.3,37.9,17.3,36.6z"/>
											<path class="st2" d="M20.6,33h1.1v1.2c0.3-0.8,1.1-1.4,2-1.4c0.2,0,0.4,0,0.6,0.1l-0.2,1c-0.1,0-0.3-0.1-0.5-0.1
												c-1.1,0-1.8,1.1-1.8,2.5V40h-1.1v-7H20.6z"/>
											<path class="st2" d="M24.9,36.5c0-2.2,1.6-3.7,3.6-3.7c1.5,0,2.5,0.6,3,1.8l-0.9,0.6c-0.5-0.9-1.2-1.3-2.1-1.3
												c-1.3,0-2.4,1-2.4,2.6s1,2.6,2.4,2.6c1.1,0,1.7-0.5,2.1-1.3l0.9,0.5c-0.6,1.1-1.6,1.8-3,1.8
												C26.4,40.2,24.9,38.7,24.9,36.5z"/>
											<path class="st2" d="M33.1,30.2h1.1v4.1c0.5-0.9,1.4-1.5,2.5-1.5c1.5,0,2.4,0.9,2.4,2.4V40H38v-4.4
												c0-1.1-0.7-1.7-1.7-1.7c-1.1,0-2.1,1-2.1,2.4V40h-1.1C33.1,40,33.1,30.2,33.1,30.2z"/>
											<path class="st2" d="M45.3,37.4c0-0.3,0.1-0.6,0.1-0.8l1.1,0.3c0,0.1-0.1,0.3-0.1,0.5c0,1.1,0.8,1.8,2.1,1.8
												c1.2,0,2.1-0.7,2.1-2c0-1.4-1.2-2-2.7-2v-1c1.6,0,2.3-0.9,2.3-1.7c0-1-0.7-1.5-1.8-1.5c-1,0-1.8,0.6-1.8,1.6
												c0,0.1,0,0.3,0.1,0.4l-1.1,0.2c-0.1-0.2-0.1-0.4-0.1-0.7c0-1.4,1.2-2.6,2.9-2.6c1.9,0,2.9,1,2.9,2.4
												c0,0.9-0.5,1.8-1.6,2.2c1.1,0.3,2.1,1.2,2.1,2.5c0,1.9-1.4,3.1-3.3,3.1C46.5,40.2,45.3,38.8,45.3,37.4z"/>
											<path class="st2" d="M57.8,39.2l3.8-3.7c1-1,1.4-1.7,1.4-2.6c0-1.1-0.8-1.8-2-1.8c-1.1,0-2,0.7-2,1.9
												c0,0.3,0.1,0.5,0.1,0.6L58,33.8c-0.1-0.3-0.2-0.6-0.2-0.9c0-1.5,1.2-2.8,3.1-2.8c2,0,3.1,1.2,3.1,2.7
												c0,1.2-0.4,2.1-1.8,3.4l-2.7,2.7H64V40h-6.3v-0.8H57.8z"/>
											<path class="st2" d="M65.5,35.1c0-3.1,1.8-5.1,4.3-5.1s4.3,2,4.3,5.1s-1.8,5.1-4.3,5.1C67.3,40.2,65.5,38.1,65.5,35.1z
												 M72.9,35.1c0-2.5-1.3-4-3.1-4s-3.1,1.5-3.1,4s1.3,4,3.1,4S72.9,37.6,72.9,35.1z"/>
											<path class="st2" d="M75.4,39.2l3.8-3.7c1-1,1.4-1.7,1.4-2.6c0-1.1-0.8-1.8-2-1.8c-1.1,0-2,0.7-2,1.9
												c0,0.3,0.1,0.5,0.1,0.6l-1.1,0.2c-0.1-0.3-0.2-0.6-0.2-0.9c0-1.5,1.2-2.8,3.1-2.8c2,0,3.1,1.2,3.1,2.7
												c0,1.2-0.4,2.1-1.8,3.4l-2.7,2.7h4.5V40h-6.3L75.4,39.2L75.4,39.2z"/>
											<path class="st2" d="M85.8,31.7c-0.5,0.5-1.1,0.7-2.1,0.7v-1c1.1,0,1.7-0.4,2.2-1.2H87V40h-1.2V31.7z"/>
											<path class="st2" d="M93.1,38.1c0-1.4,1.1-2,2.4-2.2l2.4-0.4v-0.3c0-0.9-0.6-1.4-1.6-1.4c-1.1,0-1.7,0.5-1.7,1.1
												c0,0.1,0,0.1,0,0.2l-1,0.3c-0.1-0.2-0.1-0.4-0.1-0.5c0-1.1,1.1-2,2.7-2c1.8,0,2.8,0.8,2.8,2.3v3.1c0,0.8,0.1,1.2,0.4,1.7
												h-1.1c-0.2-0.2-0.4-0.7-0.4-1.4c-0.4,0.9-1.4,1.6-2.4,1.6C94,40.2,93.1,39.3,93.1,38.1z M97.8,36.6v-0.3l-2.1,0.3
												c-0.9,0.2-1.5,0.6-1.5,1.4c0,0.7,0.5,1.2,1.4,1.2C97,39.2,97.8,37.9,97.8,36.6z"/>
											<path class="st2" d="M101.5,38.2v-4.3h-1.2V33h1.2v-1.9h1.1V33h1.7v0.9h-1.7v4.2c0,0.7,0.3,1.1,1,1.1
												c0.2,0,0.4,0,0.5-0.1l0.1,0.9c-0.2,0.1-0.5,0.1-0.9,0.1C102.3,40.2,101.5,39.6,101.5,38.2z"/>
											<path class="st2" d="M109.8,35.7c0-1.3,0.2-2.4,0.6-3.2c0.6-1.6,1.8-2.5,3.2-2.5c1.8,0,2.9,1,2.9,2.3
												c0,0.3,0,0.5-0.1,0.7l-1.1-0.2c0.1-0.2,0.1-0.3,0.1-0.5c0-0.8-0.6-1.3-1.7-1.3c-1.6,0-2.6,1.7-2.7,4.1
												c0.5-0.9,1.6-1.5,2.7-1.5c1.9,0,3.3,1.4,3.3,3.3c0,1.9-1.4,3.3-3.5,3.3C111.2,40.2,109.8,38.5,109.8,35.7z M115.7,36.9
												c0-1.5-1.1-2.3-2.3-2.3c-1.2,0-2.3,0.8-2.3,2.3s1.1,2.3,2.3,2.3C114.7,39.2,115.7,38.3,115.7,36.9z"/>
											<path class="st2" d="M118.4,33.3h1.4v1.4h-1.4V33.3z M118.4,38.6h1.4V40h-1.4V38.6z"/>
											<path class="st2" d="M121.5,37.4c0-0.2,0-0.5,0.1-0.7l1.1,0.3c0,0.1-0.1,0.2-0.1,0.4c0,1.1,0.9,1.8,2.1,1.8
												c1.4,0,2.4-0.9,2.4-2.5c0-1.5-0.9-2.4-2.3-2.4c-1,0-1.9,0.7-2.3,1.5l-1-0.3l0.5-5.3h5.7v1.1h-4.8l-0.4,3.3
												c0.6-0.8,1.6-1.2,2.5-1.2c2.1,0,3.2,1.4,3.2,3.4s-1.4,3.5-3.5,3.5C122.7,40.2,121.5,38.9,121.5,37.4z"/>
											<path class="st2" d="M134.5,31.2h-5.2v-1.1h6.3v1l-3.9,8.8h-1.2L134.5,31.2z"/>
											<path class="st2" d="M144.6,30.2h1.2l3.9,9.8h-1.2l-1.1-2.9H143l-1.1,2.9h-1.2L144.6,30.2z M147,36.1l-1.5-3.9
												c-0.1-0.2-0.2-0.5-0.3-0.7c-0.1,0.2-0.2,0.5-0.3,0.7l-1.5,3.9H147z"/>
											<path class="st2" d="M151,30.2h1.3l3.5,8.7l3.5-8.7h1.3V40h-1.1v-7.5c-0.1,0.4-0.4,1.2-0.5,1.4l-2.6,6.2h-1.2l-2.6-6.1
												c-0.1-0.2-0.4-1-0.5-1.4V40H151V30.2z"/>
										</g>
									</g>
									<g class="st1">
										<path d="M1,4.2h1.1v4.1c0.5-0.9,1.4-1.5,2.5-1.5C6.1,6.8,7,7.7,7,9.2V14H5.9V9.6c0-1.1-0.7-1.7-1.7-1.7
											c-1.1,0-2.1,1-2.1,2.4V14H1V4.2z"/>
										<path d="M8.8,10.5c0-2.4,1.7-3.7,3.6-3.7S16,8.1,16,10.5s-1.7,3.7-3.6,3.7S8.8,12.9,8.8,10.5z M14.9,10.5
											c0-1.6-1.1-2.6-2.5-2.6S9.9,9,9.9,10.5c0,1.6,1.1,2.6,2.5,2.6C13.8,13.2,14.9,12.1,14.9,10.5z"/>
										<path d="M16.8,7.1h1.1l1.5,5.6l1.5-5.6h1.2l1.5,5.6l1.5-5.6h1.1l-2,6.9H23l-1.6-5.7L19.9,14h-1.2L16.8,7.1z"/>
										<path d="M27.2,9.2h5.1v0.9h-5.1C27.2,10.1,27.2,9.2,27.2,9.2z"/>
										<path d="M34.7,12.2V7.9h-1.2V7.1h1.2V5.2h1.1v1.9h1.7V8h-1.7v4.2c0,0.7,0.3,1.1,1,1.1c0.2,0,0.4,0,0.5-0.1l0.1,0.9
											c-0.2,0.1-0.5,0.1-0.9,0.1C35.5,14.2,34.7,13.6,34.7,12.2z"/>
										<path d="M38.5,10.5c0-2.4,1.7-3.7,3.6-3.7c1.9,0,3.6,1.3,3.6,3.7s-1.7,3.7-3.6,3.7S38.5,12.9,38.5,10.5z M44.6,10.5
											c0-1.6-1.1-2.6-2.5-2.6s-2.5,1.1-2.5,2.6c0,1.6,1.1,2.6,2.5,2.6C43.5,13.2,44.6,12.1,44.6,10.5z"/>
										<path d="M47.2,9.2h5.1v0.9h-5.1V9.2z"/>
										<path d="M54.2,11.6V7.1h1.1v4.4c0,1.1,0.7,1.7,1.7,1.7c1.1,0,2-1,2-2.4V7.1h1.1V14H59v-1.2c-0.4,0.9-1.3,1.4-2.3,1.4
											C55.3,14.2,54.2,13.4,54.2,11.6z"/>
										<path d="M61.7,12.2l0.9-0.6c0.3,1,1,1.6,2,1.6c0.9,0,1.5-0.5,1.5-1.2s-0.5-1-1.7-1.3C63.1,10.5,62,9.8,62,8.6
											s1.1-1.9,2.4-1.9c1.4,0,2.2,0.6,2.7,1.7l-0.9,0.5c-0.3-0.9-1-1.3-1.8-1.3c-0.8,0-1.4,0.3-1.4,0.9c0,0.7,0.7,1,1.8,1.2
											c1.4,0.3,2.3,0.9,2.3,2.1c0,1.1-0.9,2.2-2.6,2.2C63.2,14.2,62.2,13.3,61.7,12.2z"/>
										<path d="M68.6,10.5c0-2.2,1.6-3.7,3.5-3.7c2,0,3.3,1.4,3.3,3.5v0.4h-5.7c0.1,1.4,1,2.5,2.4,2.5c1.2,0,1.9-0.6,2.3-1.6
											l0.8,0.5c-0.6,1.3-1.6,2-3.2,2C70.1,14.2,68.6,12.7,68.6,10.5z M74.3,9.8c-0.1-1.3-1.1-2-2.2-2c-1.2,0-2.2,0.9-2.4,2H74.3
											z"/>
										<path d="M76.6,12.6H78V14h-1.4V12.6z"/>
										<path d="M79.9,7.1H81v1.3c0.4-0.8,1.4-1.5,2.5-1.5c1.8,0,3.2,1.5,3.2,3.7c0,2.1-1.4,3.7-3.3,3.7c-1.1,0-2-0.5-2.5-1.3v4
											h-1.1V7.1H79.9z M85.7,10.5c0-1.5-1-2.6-2.4-2.6s-2.4,1.1-2.4,2.6s1,2.6,2.4,2.6S85.7,12.1,85.7,10.5z"/>
										<path d="M88.2,10.5c0-2.2,1.5-3.7,3.3-3.7c1.1,0,2,0.5,2.5,1.4v-4h1V14h-1.1v-1.2c-0.4,0.8-1.3,1.4-2.4,1.4
											C89.6,14.2,88.2,12.7,88.2,10.5z M94,10.5c0-1.5-1-2.6-2.4-2.6s-2.4,1.1-2.4,2.6s1,2.6,2.4,2.6C93,13.2,94,12.1,94,10.5z"
											/>
										<path d="M97.7,7.9h-1.1V7.1h1.1V5.8c0-1.4,0.8-2.3,2.2-2.3c0.3,0,0.5,0.1,0.7,0.1l-0.2,1c-0.2-0.1-0.3-0.1-0.5-0.1
											c-0.6,0-1,0.4-1,1.2V7h1.6v0.9h-1.6V14h-1.1L97.7,7.9L97.7,7.9z"/>
									</g>
								</g>
							</g>
						</g>
					</g>
				</g>
			</g>
		</g>
	</g>
</g>
</svg>
