<?xml version="1.0" encoding="utf-8"?>
<!-- Generator: Adobe Illustrator 24.0.3, SVG Export Plug-In . SVG Version: 6.00 Build 0)  -->
<svg version="1.1" id="Layer_1" xmlns="http://www.w3.org/2000/svg" xmlns:xlink="http://www.w3.org/1999/xlink" x="0px" y="0px"
	 viewBox="0 0 375 812" style="enable-background:new 0 0 375 812;" xml:space="preserve">
<style type="text/css">
	.st0{fill-rule:evenodd;clip-rule:evenodd;fill:#FFFFFF;}
	.st1{enable-background:new    ;}
	.st2{fill:none;}
	.st3{opacity:0.1;}
	.st4{fill-rule:evenodd;clip-rule:evenodd;}
	.st5{fill:#FF4500;}
	.st6{fill-rule:evenodd;clip-rule:evenodd;fill:#FF4500;}
	.st7{opacity:0.4;}
	.st8{opacity:0.12;}
	.st9{fill-rule:evenodd;clip-rule:evenodd;fill:#FAF5EB;}
	.st10{fill:#47B7B8;}
	.st11{filter:url(#Adobe_OpacityMaskFilter);}
	.st12{mask:url(#mask-2_1_);enable-background:new    ;}
	.st13{filter:url(#Adobe_OpacityMaskFilter_1_);}
	.st14{mask:url(#mask-4_1_);}
	.st15{fill:#FFFFFF;}
	.st16{opacity:0.5;}
	.st17{filter:url(#Adobe_OpacityMaskFilter_2_);}
	.st18{mask:url(#mask-6_1_);enable-background:new    ;}
	.st19{filter:url(#Adobe_OpacityMaskFilter_3_);}
	.st20{mask:url(#mask-8_2_);}
</style>
<title>Mobile - Meetings</title>
<g id="Mobile---Meetings">
	<g id="Left-Copy">
		<g id="Container">
			<rect class="st0" width="375" height="812.7"/>
		</g>
		<g id="Meetings-list" transform="translate(16.000000, 414.000000)">
			<g id="kelp-_x2F_-list-_x28_stack_x29_-_x2F_-meetings-_x28_big_x29_" transform="translate(0.000000, 40.000000)">
				<g id="kelp-_x2F_-meetings-_x2F_-list-item-_x28_past_x29_">
					<g id="Text" transform="translate(48.000000, 0.000000)">
						<g class="st1">
							<g>
								<g>
									<path d="M1.3,32.8h7V34H2.7v3.6h5.2v1.2H2.7v4h5.7V44h-7V32.8z"/>
								</g>
								<g>
									<path d="M10.7,36.1H12v1.4c0.4-0.9,1.2-1.6,2.3-1.6c0.3,0,0.4,0,0.7,0.1l-0.2,1.2c-0.2,0-0.4-0.1-0.6-0.1
										c-1.2,0-2.1,1.3-2.1,2.8V44h-1.3V36.1z"/>
								</g>
								<g>
									<path d="M16.5,45.1c0-0.3,0.1-0.6,0.2-0.9l1.2,0.4c-0.1,0.2-0.1,0.4-0.1,0.6c0,0.8,0.8,1.2,2.2,1.2c1.6,0,2.5-0.9,2.5-2.8
										v-1.2c-0.5,0.9-1.4,1.5-2.7,1.5c-2.1,0-3.7-1.5-3.7-4c0-2.5,1.7-4,3.7-4c1.3,0,2.2,0.6,2.7,1.4v-1.1h1.3v7.4
										c0,2.5-1.4,4-3.8,4C17.8,47.5,16.5,46.5,16.5,45.1z M22.6,39.9c0-1.8-1.1-2.9-2.6-2.9c-1.6,0-2.6,1.1-2.6,2.9
										s1,2.9,2.6,2.9C21.6,42.8,22.6,41.6,22.6,39.9z"/>
								</g>
								<g>
									<path d="M26,40c0-2.7,2-4.2,4.1-4.2c2.2,0,4.2,1.5,4.2,4.2s-2,4.2-4.2,4.2C28,44.2,26,42.7,26,40z M33,40
										c0-1.8-1.3-3-2.9-3c-1.6,0-2.8,1.2-2.8,3s1.3,3,2.8,3C31.7,43.1,33,41.8,33,40z"/>
								</g>
								<g>
									<path d="M36.6,36.1h1.3v1.4c0.6-1,1.6-1.6,2.8-1.6c1.5,0,2.8,0.9,2.8,2.8V44h-1.3v-5.1c0-1.2-0.8-1.9-1.9-1.9
										c-1.2,0-2.3,1.1-2.3,2.7V44h-1.3V36.1z"/>
								</g>
								<g>
									<path d="M45.6,40c0-2.7,2-4.2,4.1-4.2c2.2,0,4.2,1.5,4.2,4.2s-2,4.2-4.2,4.2C47.5,44.2,45.6,42.7,45.6,40z M52.6,40
										c0-1.8-1.3-3-2.9-3c-1.6,0-2.8,1.2-2.8,3s1.3,3,2.8,3C51.3,43.1,52.6,41.8,52.6,40z"/>
								</g>
								<g>
									<path d="M56.1,36.1h1.3v1.2c0.5-0.8,1.4-1.5,2.4-1.5s1.9,0.5,2.2,1.5c0.5-0.9,1.5-1.5,2.5-1.5c1.5,0,2.4,0.9,2.4,2.4V44
										h-1.3v-5.4c0-1.1-0.5-1.6-1.5-1.6c-1,0-2,0.9-2,2.8V44h-1.3v-5.4c0-1-0.5-1.7-1.5-1.7c-1,0-2,1-2,2.7V44h-1.3V36.1z"/>
								</g>
								<g>
									<path d="M69.6,33.1h1.5v1.6h-1.5V33.1z M69.7,36.1H71V44h-1.3V36.1z"/>
								</g>
								<g>
									<path d="M73.2,40c0-2.5,1.9-4.2,4.1-4.2c1.7,0,2.8,0.7,3.4,2l-1,0.6c-0.5-1-1.4-1.5-2.4-1.5c-1.5,0-2.8,1.2-2.8,3
										c0,1.8,1.2,3,2.8,3c1.2,0,1.9-0.5,2.4-1.5l1,0.6c-0.7,1.2-1.8,2-3.4,2C75,44.2,73.2,42.5,73.2,40z"/>
								</g>
								<g>
									<path d="M87.6,38.4c0-3.3,2.5-5.8,5.5-5.8c2.2,0,3.9,1.2,4.7,2.9l-1.1,0.8c-0.9-1.7-2.1-2.4-3.7-2.4c-2.3,0-4.1,2-4.1,4.6
										c0,2.6,1.7,4.6,4.1,4.6c1.7,0,2.8-0.8,3.7-2.4l1,0.7c-1.1,1.8-2.4,2.9-4.8,2.9C89.9,44.2,87.6,41.7,87.6,38.4z"/>
								</g>
								<g>
									<path d="M99.5,40c0-2.7,2-4.2,4.1-4.2c2.2,0,4.2,1.5,4.2,4.2s-2,4.2-4.2,4.2C101.4,44.2,99.5,42.7,99.5,40z M106.5,40
										c0-1.8-1.3-3-2.9-3c-1.6,0-2.8,1.2-2.8,3s1.3,3,2.8,3C105.2,43.1,106.5,41.8,106.5,40z"/>
								</g>
								<g>
									<path d="M110.4,42v-4.9H109v-1h1.3v-2.1h1.3v2.1h1.9v1h-1.9v4.8c0,0.8,0.4,1.2,1.1,1.2c0.2,0,0.5,0,0.6-0.1l0.1,1.1
										c-0.3,0.1-0.6,0.2-1,0.2C111.3,44.2,110.4,43.6,110.4,42z"/>
								</g>
								<g>
									<path d="M116.4,42v-4.9h-1.3v-1h1.3v-2.1h1.3v2.1h1.9v1h-1.9v4.8c0,0.8,0.4,1.2,1.1,1.2c0.2,0,0.5,0,0.6-0.1l0.1,1.1
										c-0.3,0.1-0.6,0.2-1,0.2C117.4,44.2,116.4,43.6,116.4,42z"/>
								</g>
								<g>
									<path d="M121,40c0-2.7,2-4.2,4.1-4.2c2.2,0,4.2,1.5,4.2,4.2s-2,4.2-4.2,4.2C123,44.2,121,42.7,121,40z M128,40
										c0-1.8-1.3-3-2.9-3c-1.6,0-2.8,1.2-2.8,3s1.3,3,2.8,3C126.7,43.1,128,41.8,128,40z"/>
								</g>
								<g>
									<path d="M131.6,36.1h1.3v1.4c0.6-1,1.6-1.6,2.8-1.6c1.5,0,2.8,0.9,2.8,2.8V44h-1.3v-5.1c0-1.2-0.8-1.9-1.9-1.9
										c-1.2,0-2.3,1.1-2.3,2.7V44h-1.3V36.1z"/>
								</g>
								<g>
									<path d="M145.8,38.4c0-3.3,2.5-5.8,5.5-5.8c2.2,0,3.9,1.2,4.7,2.9l-1.1,0.8c-0.9-1.7-2.1-2.4-3.7-2.4c-2.3,0-4.1,2-4.1,4.6
										c0,2.6,1.7,4.6,4.1,4.6c1.7,0,2.8-0.8,3.7-2.4l1,0.7c-1.1,1.8-2.4,2.9-4.8,2.9C148.1,44.2,145.8,41.7,145.8,38.4z"/>
								</g>
								<g>
									<path d="M157.7,40c0-2.7,2-4.2,4.1-4.2c2.2,0,4.2,1.5,4.2,4.2s-2,4.2-4.2,4.2C159.7,44.2,157.7,42.7,157.7,40z M164.7,40
										c0-1.8-1.3-3-2.9-3c-1.6,0-2.8,1.2-2.8,3s1.3,3,2.8,3C163.4,43.1,164.7,41.8,164.7,40z"/>
								</g>
								<g>
									<path d="M168.3,36.1h1.3v1.2c0.5-0.8,1.4-1.5,2.4-1.5c1,0,1.9,0.5,2.2,1.5c0.5-0.9,1.5-1.5,2.5-1.5c1.5,0,2.4,0.9,2.4,2.4
										V44h-1.3v-5.4c0-1.1-0.5-1.6-1.5-1.6c-1,0-2,0.9-2,2.8V44H173v-5.4c0-1-0.5-1.7-1.5-1.7c-1,0-2,1-2,2.7V44h-1.3V36.1z"/>
								</g>
								<g>
									<path d="M181.7,36.1h1.3v1.4c0.5-0.9,1.6-1.7,2.9-1.7c2.1,0,3.7,1.7,3.7,4.2c0,2.4-1.6,4.2-3.8,4.2c-1.2,0-2.3-0.6-2.8-1.5
										v4.5h-1.3V36.1z M188.2,40c0-1.8-1.1-3-2.7-3c-1.6,0-2.7,1.3-2.7,3s1.1,3,2.7,3C187.1,43.1,188.2,41.8,188.2,40z"/>
								</g>
								<g>
									<path d="M191.7,41.2v-5.2h1.3v5c0,1.3,0.8,2,1.9,2c1.3,0,2.3-1.1,2.3-2.8v-4.2h1.3V44h-1.3v-1.4c-0.5,1-1.5,1.6-2.7,1.6
										C193.1,44.2,191.7,43.3,191.7,41.2z"/>
								</g>
								<g>
									<path d="M201.9,42v-4.9h-1.3v-1h1.3v-2.1h1.3v2.1h1.9v1h-1.9v4.8c0,0.8,0.4,1.2,1.1,1.2c0.2,0,0.5,0,0.6-0.1l0.1,1.1
										c-0.3,0.1-0.6,0.2-1,0.2C202.9,44.2,201.9,43.6,201.9,42z"/>
								</g>
								<g>
									<path d="M206.5,40c0-2.5,1.8-4.2,4-4.2c2.3,0,3.8,1.6,3.8,4v0.4h-6.5c0.1,1.6,1.1,2.9,2.7,2.9c1.4,0,2.1-0.7,2.6-1.8l1,0.6
										c-0.7,1.5-1.9,2.3-3.6,2.3C208.3,44.2,206.5,42.5,206.5,40z M213,39.2c-0.1-1.5-1.2-2.3-2.5-2.3c-1.4,0-2.5,1-2.7,2.3H213z
										"/>
								</g>
								<g>
									<path d="M216.6,36.1h1.3v1.4c0.4-0.9,1.2-1.6,2.3-1.6c0.3,0,0.4,0,0.7,0.1l-0.2,1.2c-0.2,0-0.4-0.1-0.6-0.1
										c-1.2,0-2.1,1.3-2.1,2.8V44h-1.3V36.1z"/>
								</g>
								<g>
									<path d="M227.7,36.1h1.3v1.2c0.5-0.8,1.4-1.5,2.4-1.5s1.9,0.5,2.2,1.5c0.5-0.9,1.5-1.5,2.5-1.5c1.5,0,2.4,0.9,2.4,2.4V44
										h-1.3v-5.4c0-1.1-0.5-1.6-1.5-1.6c-1,0-2,0.9-2,2.8V44h-1.3v-5.4c0-1-0.5-1.7-1.5-1.7c-1,0-2,1-2,2.7V44h-1.3V36.1z"/>
								</g>
								<g>
									<path d="M240.6,40c0-2.5,1.8-4.2,4-4.2c2.3,0,3.8,1.6,3.8,4v0.4h-6.5c0.1,1.6,1.1,2.9,2.7,2.9c1.4,0,2.1-0.7,2.6-1.8l1,0.6
										c-0.7,1.5-1.9,2.3-3.6,2.3C242.4,44.2,240.6,42.5,240.6,40z M247.2,39.2c-0.1-1.5-1.2-2.3-2.5-2.3c-1.4,0-2.5,1-2.7,2.3
										H247.2z"/>
								</g>
								<g>
									<path d="M250.2,40c0-2.5,1.8-4.2,4-4.2c2.3,0,3.8,1.6,3.8,4v0.4h-6.5c0.1,1.6,1.1,2.9,2.7,2.9c1.4,0,2.1-0.7,2.6-1.8l1,0.6
										c-0.7,1.5-1.9,2.3-3.6,2.3C252,44.2,250.2,42.5,250.2,40z M256.7,39.2c-0.1-1.5-1.2-2.3-2.5-2.3c-1.4,0-2.5,1-2.7,2.3
										H256.7z"/>
								</g>
								<g>
									<path d="M260.8,42v-4.9h-1.3v-1h1.3v-2.1h1.3v2.1h1.9v1h-1.9v4.8c0,0.8,0.4,1.2,1.1,1.2c0.2,0,0.5,0,0.6-0.1l0.1,1.1
										c-0.3,0.1-0.6,0.2-1,0.2C261.8,44.2,260.8,43.6,260.8,42z"/>
								</g>
								<g>
									<path d="M266.1,33.1h1.5v1.6h-1.5V33.1z M266.2,36.1h1.3V44h-1.3V36.1z"/>
								</g>
								<g>
									<path d="M270.3,36.1h1.3v1.4c0.6-1,1.6-1.6,2.8-1.6c1.5,0,2.8,0.9,2.8,2.8V44h-1.3v-5.1c0-1.2-0.8-1.9-1.9-1.9
										c-1.2,0-2.3,1.1-2.3,2.7V44h-1.3V36.1z"/>
								</g>
								<g>
									<path d="M279.6,45.1c0-0.3,0.1-0.6,0.2-0.9l1.2,0.4c-0.1,0.2-0.1,0.4-0.1,0.6c0,0.8,0.8,1.2,2.2,1.2c1.6,0,2.5-0.9,2.5-2.8
										v-1.2c-0.5,0.9-1.4,1.5-2.7,1.5c-2.1,0-3.7-1.5-3.7-4c0-2.5,1.7-4,3.7-4c1.3,0,2.2,0.6,2.7,1.4v-1.1h1.3v7.4
										c0,2.5-1.4,4-3.8,4C280.8,47.5,279.6,46.5,279.6,45.1z M285.7,39.9c0-1.8-1.1-2.9-2.6-2.9c-1.6,0-2.6,1.1-2.6,2.9
										s1,2.9,2.6,2.9C284.6,42.8,285.7,41.6,285.7,39.9z"/>
								</g>
							</g>
						</g>
						<g class="st1">
							<g>
								<g>
									<path d="M1.1,11.9c0-0.3,0-0.5,0.1-0.7l1.1,0.2c-0.1,0.2-0.1,0.3-0.1,0.5c0,0.8,0.6,1.3,1.7,1.3c1.6,0,2.5-1.6,2.7-4.1
										c-0.5,0.9-1.4,1.5-2.6,1.5c-1.9,0-3.4-1.4-3.4-3.3C0.7,5.5,2.1,4,4.1,4c2.3,0,3.6,1.7,3.6,4.5c0,1.3-0.3,2.4-0.6,3.2
										c-0.6,1.5-1.8,2.4-3.2,2.4C2.1,14.2,1.1,13.2,1.1,11.9z M6.5,7.3C6.5,5.8,5.4,5,4.1,5C2.9,5,1.8,5.8,1.8,7.3
										c0,1.5,1.1,2.3,2.3,2.3C5.4,9.6,6.5,8.8,6.5,7.3z"/>
								</g>
								<g>
									<path d="M9.3,7.3h1.4v1.4H9.3V7.3z M9.3,12.6h1.4V14H9.3V12.6z"/>
								</g>
								<g>
									<path d="M12.4,11.4c0-0.3,0.1-0.6,0.1-0.8l1.1,0.3c0,0.1-0.1,0.3-0.1,0.5c0,1.1,0.8,1.8,2.1,1.8c1.2,0,2.1-0.7,2.1-2
										c0-1.4-1.2-2-2.7-2v-1c1.6,0,2.3-0.9,2.3-1.7c0-1-0.7-1.5-1.8-1.5c-1,0-1.8,0.6-1.8,1.6c0,0.1,0,0.3,0.1,0.4l-1.1,0.2
										c-0.1-0.2-0.1-0.4-0.1-0.7c0-1.4,1.2-2.6,2.9-2.6c1.9,0,2.9,1,2.9,2.4c0,0.9-0.5,1.8-1.6,2.2C18,8.9,19,9.8,19,11.1
										c0,1.9-1.4,3.1-3.3,3.1C13.6,14.2,12.4,12.8,12.4,11.4z"/>
								</g>
								<g>
									<path d="M20.7,9.1C20.7,6,22.4,4,24.9,4c2.5,0,4.3,2,4.3,5.1c0,3.1-1.8,5.1-4.3,5.1C22.4,14.2,20.7,12.2,20.7,9.1z M28,9.1
										c0-2.5-1.3-4-3.1-4s-3.1,1.5-3.1,4c0,2.5,1.3,4,3.1,4S28,11.6,28,9.1z"/>
								</g>
								<g>
									<path d="M38.2,4.2h1.2l3.9,9.8h-1.2L41,11.1h-4.3L35.6,14h-1.2L38.2,4.2z M40.6,10.1l-1.5-3.9C39,6,38.9,5.7,38.8,5.5
										c-0.1,0.2-0.2,0.5-0.3,0.7l-1.5,3.9H40.6z"/>
								</g>
								<g>
									<path d="M44.7,4.2H46l3.5,8.7L53,4.2h1.3V14h-1.1V6.5c-0.1,0.4-0.4,1.2-0.5,1.4L50.1,14h-1.2l-2.6-6.1
										c-0.1-0.2-0.4-1-0.5-1.4V14h-1.1V4.2z"/>
								</g>
								<g>
									<path d="M60.4,9.2h5.1v0.9h-5.1V9.2z"/>
								</g>
								<g>
									<path d="M73.3,5.7c-0.5,0.5-1.1,0.7-2.1,0.7v-1c1.1,0,1.7-0.4,2.2-1.2h1.1V14h-1.2V5.7z"/>
								</g>
								<g>
									<path d="M76.5,9.1C76.5,6,78.3,4,80.8,4C83.2,4,85,6,85,9.1c0,3.1-1.8,5.1-4.3,5.1C78.3,14.2,76.5,12.2,76.5,9.1z
										 M83.9,9.1c0-2.5-1.3-4-3.1-4s-3.1,1.5-3.1,4c0,2.5,1.3,4,3.1,4S83.9,11.6,83.9,9.1z"/>
								</g>
								<g>
									<path d="M86.6,7.3H88v1.4h-1.4V7.3z M86.6,12.6H88V14h-1.4V12.6z"/>
								</g>
								<g>
									<path d="M89.6,9.1C89.6,6,91.3,4,93.8,4c2.5,0,4.3,2,4.3,5.1c0,3.1-1.8,5.1-4.3,5.1C91.3,14.2,89.6,12.2,89.6,9.1z
										 M96.9,9.1c0-2.5-1.3-4-3.1-4s-3.1,1.5-3.1,4c0,2.5,1.3,4,3.1,4S96.9,11.6,96.9,9.1z"/>
								</g>
								<g>
									<path d="M99.7,9.1C99.7,6,101.5,4,104,4c2.5,0,4.3,2,4.3,5.1c0,3.1-1.8,5.1-4.3,5.1C101.5,14.2,99.7,12.2,99.7,9.1z
										 M107.1,9.1c0-2.5-1.3-4-3.1-4s-3.1,1.5-3.1,4c0,2.5,1.3,4,3.1,4S107.1,11.6,107.1,9.1z"/>
								</g>
								<g>
									<path d="M117.3,4.2h1.2l3.9,9.8h-1.2l-1.1-2.9h-4.3l-1.1,2.9h-1.2L117.3,4.2z M119.7,10.1l-1.5-3.9
										c-0.1-0.2-0.2-0.5-0.3-0.7c-0.1,0.2-0.2,0.5-0.3,0.7l-1.5,3.9H119.7z"/>
								</g>
								<g>
									<path d="M123.8,4.2h1.3l3.5,8.7l3.5-8.7h1.3V14h-1.1V6.5c-0.1,0.4-0.4,1.2-0.5,1.4l-2.6,6.2H128l-2.6-6.1
										c-0.1-0.2-0.4-1-0.5-1.4V14h-1.1V4.2z"/>
								</g>
							</g>
						</g>
					</g>
					<g id="Dot">
						<g id="container">
							<g>
								<rect class="st2" width="30" height="52"/>
							</g>
						</g>
						<g id="Oval" class="st3">
							<g>
								<circle class="st4" cx="16" cy="26" r="4"/>
							</g>
						</g>
					</g>
				</g>
				<g id="kelp-_x2F_-meetings-_x2F_-list-item-_x28_today_x29_" transform="translate(0.000000, 85.000000)">
					<g id="Text_1_" transform="translate(48.000000, 0.000000)">
						<g class="st1">
							<path class="st5" d="M3.7,34H0.3v-1.2h8.3V34H5.1v10H3.7V34z"/>
							<path class="st5" d="M8,41.8c0-1.6,1.3-2.3,2.7-2.6l2.7-0.4v-0.4c0-1-0.7-1.6-1.9-1.6c-1.2,0-1.9,0.6-1.9,1.3
								c0,0.1,0,0.1,0,0.2l-1.1,0.4c-0.1-0.2-0.1-0.4-0.1-0.6c0-1.2,1.2-2.3,3.1-2.3c2,0,3.2,1,3.2,2.6V42c0,0.9,0.1,1.4,0.5,2h-1.3
								c-0.2-0.2-0.5-0.8-0.5-1.6c-0.4,1.1-1.6,1.8-2.8,1.8C9.1,44.2,8,43.2,8,41.8z M13.4,40.1v-0.3L11,40.2
								c-1.1,0.2-1.7,0.7-1.7,1.6s0.6,1.4,1.6,1.4C12.5,43.1,13.4,41.6,13.4,40.1z"/>
							<path class="st5" d="M16.8,41.9l1.1-0.7c0.4,1.1,1.2,1.9,2.3,1.9c1,0,1.7-0.5,1.7-1.4c0-0.8-0.6-1.2-2-1.4
								c-1.5-0.3-2.7-1-2.7-2.4c0-1.3,1.3-2.1,2.8-2.1c1.6,0,2.6,0.7,3.1,1.9l-1,0.6c-0.4-1-1.2-1.5-2.1-1.5c-0.9,0-1.6,0.4-1.6,1.1
								c0,0.8,0.8,1.2,2.1,1.4c1.6,0.3,2.6,1,2.6,2.4c0,1.3-1,2.5-3,2.5C18.4,44.2,17.3,43.2,16.8,41.9z"/>
							<path class="st5" d="M25.9,42v-4.9h-1.3v-1h1.3v-2.1h1.3v2.1h1.9v1h-1.9v4.8c0,0.8,0.4,1.2,1.1,1.2c0.2,0,0.5,0,0.6-0.1
								l0.1,1.1c-0.3,0.1-0.6,0.2-1,0.2C26.9,44.2,25.9,43.6,25.9,42z"/>
							<path class="st5" d="M31.5,47.2l0.2-1.2c0.2,0.1,0.4,0.2,0.6,0.2c0.4,0,0.8-0.3,1-0.8l0.5-1.3l-3.2-8H32l2.5,6.2l2.5-6.2h1.4
								l-4,9.7c-0.4,1.1-1.1,1.6-2.1,1.6C32,47.4,31.7,47.3,31.5,47.2z"/>
							<path class="st5" d="M45.2,32.8h4.7c2.4,0,3.9,1.3,3.9,3.5c0,2.2-1.6,3.5-3.9,3.5h-3.3V44h-1.3V32.8z M49.9,38.6
								c1.8,0,2.6-0.9,2.6-2.3c0-1.4-0.9-2.3-2.6-2.3h-3.3v4.7H49.9z"/>
							<path class="st5" d="M56,32.8h1.3V44H56V32.8z"/>
							<path class="st5" d="M59.6,41.8c0-1.6,1.3-2.3,2.7-2.6l2.7-0.4v-0.4c0-1-0.7-1.6-1.9-1.6c-1.2,0-1.9,0.6-1.9,1.3
								c0,0.1,0,0.1,0,0.2l-1.1,0.4c-0.1-0.2-0.1-0.4-0.1-0.6c0-1.2,1.2-2.3,3.1-2.3c2,0,3.2,1,3.2,2.6V42c0,0.9,0.1,1.4,0.5,2h-1.3
								c-0.2-0.2-0.5-0.8-0.5-1.6c-0.4,1.1-1.6,1.8-2.8,1.8C60.6,44.2,59.6,43.2,59.6,41.8z M65,40.1v-0.3l-2.4,0.4
								c-1.1,0.2-1.7,0.7-1.7,1.6s0.6,1.4,1.6,1.4C64,43.1,65,41.6,65,40.1z"/>
							<path class="st5" d="M68.4,41.9l1.1-0.7c0.4,1.1,1.2,1.9,2.3,1.9c1,0,1.7-0.5,1.7-1.4c0-0.8-0.6-1.2-2-1.4
								c-1.5-0.3-2.7-1-2.7-2.4c0-1.3,1.3-2.1,2.8-2.1c1.6,0,2.6,0.7,3.1,1.9l-1,0.6c-0.4-1-1.2-1.5-2.1-1.5c-0.9,0-1.6,0.4-1.6,1.1
								c0,0.8,0.8,1.2,2.1,1.4c1.6,0.3,2.6,1,2.6,2.4c0,1.3-1,2.5-3,2.5C70,44.2,68.9,43.2,68.4,41.9z"/>
							<path class="st5" d="M77.5,42v-4.9h-1.3v-1h1.3v-2.1h1.3v2.1h1.9v1h-1.9v4.8c0,0.8,0.4,1.2,1.1,1.2c0.2,0,0.5,0,0.6-0.1
								l0.1,1.1c-0.3,0.1-0.6,0.2-1,0.2C78.4,44.2,77.5,43.6,77.5,42z"/>
							<path class="st5" d="M82.8,33.1h1.5v1.6h-1.5V33.1z M82.9,36.1h1.3V44h-1.3V36.1z"/>
							<path class="st5" d="M86.4,40c0-2.5,1.9-4.2,4.1-4.2c1.7,0,2.8,0.7,3.4,2l-1,0.6c-0.5-1-1.4-1.5-2.4-1.5
								c-1.5,0-2.8,1.2-2.8,3c0,1.8,1.2,3,2.8,3c1.2,0,1.9-0.5,2.4-1.5l1,0.6c-0.7,1.2-1.8,2-3.4,2C88.1,44.2,86.4,42.5,86.4,40z"/>
							<path class="st5" d="M100.7,38.4c0-3.3,2.5-5.8,5.5-5.8c2.2,0,3.9,1.2,4.7,2.9l-1.1,0.8c-0.9-1.7-2.1-2.4-3.7-2.4
								c-2.3,0-4.1,2-4.1,4.6c0,2.6,1.7,4.6,4.1,4.6c1.7,0,2.8-0.8,3.7-2.4l1,0.7c-1.1,1.8-2.4,2.9-4.8,2.9
								C103,44.2,100.7,41.7,100.7,38.4z"/>
							<path class="st5" d="M113.5,32.8h1.3v4.7c0.6-1,1.6-1.7,2.9-1.7c1.7,0,2.8,1,2.8,2.8V44h-1.3v-5.1c0-1.2-0.8-1.9-1.9-1.9
								c-1.2,0-2.4,1.1-2.4,2.7V44h-1.3V32.8z"/>
							<path class="st5" d="M122.7,41.8c0-1.6,1.3-2.3,2.7-2.6l2.7-0.4v-0.4c0-1-0.7-1.6-1.9-1.6c-1.2,0-1.9,0.6-1.9,1.3
								c0,0.1,0,0.1,0,0.2l-1.1,0.4c-0.1-0.2-0.1-0.4-0.1-0.6c0-1.2,1.2-2.3,3.1-2.3c2,0,3.2,1,3.2,2.6V42c0,0.9,0.1,1.4,0.5,2h-1.3
								c-0.2-0.2-0.5-0.8-0.5-1.6c-0.4,1.1-1.6,1.8-2.8,1.8C123.7,44.2,122.7,43.2,122.7,41.8z M128,40.1v-0.3l-2.4,0.4
								c-1.1,0.2-1.7,0.7-1.7,1.6s0.6,1.4,1.6,1.4C127.1,43.1,128,41.6,128,40.1z"/>
							<path class="st5" d="M132.1,33.1h1.5v1.6h-1.5V33.1z M132.2,36.1h1.3V44h-1.3V36.1z"/>
							<path class="st5" d="M136.3,36.1h1.3v1.4c0.4-0.9,1.2-1.6,2.3-1.6c0.3,0,0.4,0,0.7,0.1l-0.2,1.2c-0.2,0-0.4-0.1-0.6-0.1
								c-1.2,0-2.1,1.3-2.1,2.8V44h-1.3V36.1z"/>
							<path class="st5" d="M147.3,36.1h1.3v1.2c0.5-0.8,1.4-1.5,2.4-1.5s1.9,0.5,2.2,1.5c0.5-0.9,1.5-1.5,2.5-1.5
								c1.5,0,2.4,0.9,2.4,2.4V44h-1.3v-5.4c0-1.1-0.5-1.6-1.5-1.6c-1,0-2,0.9-2,2.8V44H152v-5.4c0-1-0.5-1.7-1.5-1.7
								c-1,0-2,1-2,2.7V44h-1.3V36.1z"/>
							<path class="st5" d="M160.3,40c0-2.5,1.8-4.2,4-4.2c2.3,0,3.8,1.6,3.8,4v0.4h-6.5c0.1,1.6,1.1,2.9,2.7,2.9
								c1.4,0,2.1-0.7,2.6-1.8l1,0.6c-0.7,1.5-1.9,2.3-3.6,2.3C162,44.2,160.3,42.5,160.3,40z M166.8,39.2c-0.1-1.5-1.2-2.3-2.5-2.3
								c-1.4,0-2.5,1-2.7,2.3H166.8z"/>
							<path class="st5" d="M169.9,40c0-2.5,1.8-4.2,4-4.2c2.3,0,3.8,1.6,3.8,4v0.4h-6.5c0.1,1.6,1.1,2.9,2.7,2.9
								c1.4,0,2.1-0.7,2.6-1.8l1,0.6c-0.7,1.5-1.9,2.3-3.6,2.3C171.6,44.2,169.9,42.5,169.9,40z M176.4,39.2
								c-0.1-1.5-1.2-2.3-2.5-2.3c-1.4,0-2.5,1-2.7,2.3H176.4z"/>
							<path class="st5" d="M180.4,42v-4.9h-1.3v-1h1.3v-2.1h1.3v2.1h1.9v1h-1.9v4.8c0,0.8,0.4,1.2,1.1,1.2c0.2,0,0.5,0,0.6-0.1
								l0.1,1.1c-0.3,0.1-0.6,0.2-1,0.2C181.4,44.2,180.4,43.6,180.4,42z"/>
							<path class="st5" d="M185.7,33.1h1.5v1.6h-1.5V33.1z M185.8,36.1h1.3V44h-1.3V36.1z"/>
							<path class="st5" d="M189.9,36.1h1.3v1.4c0.6-1,1.6-1.6,2.8-1.6c1.5,0,2.8,0.9,2.8,2.8V44h-1.3v-5.1c0-1.2-0.8-1.9-1.9-1.9
								c-1.2,0-2.3,1.1-2.3,2.7V44h-1.3V36.1z"/>
							<path class="st5" d="M199.2,45.1c0-0.3,0.1-0.6,0.2-0.9l1.2,0.4c-0.1,0.2-0.1,0.4-0.1,0.6c0,0.8,0.8,1.2,2.2,1.2
								c1.6,0,2.5-0.9,2.5-2.8v-1.2c-0.5,0.9-1.4,1.5-2.7,1.5c-2.1,0-3.7-1.5-3.7-4c0-2.5,1.7-4,3.7-4c1.3,0,2.2,0.6,2.7,1.4v-1.1
								h1.3v7.4c0,2.5-1.4,4-3.8,4C200.5,47.5,199.2,46.5,199.2,45.1z M205.3,39.9c0-1.8-1.1-2.9-2.6-2.9c-1.6,0-2.6,1.1-2.6,2.9
								s1,2.9,2.6,2.9C204.2,42.8,205.3,41.6,205.3,39.9z"/>
						</g>
						<g class="st1">
							<path class="st5" d="M2.8,5.7C2.3,6.3,1.7,6.5,0.7,6.5v-1c1.1,0,1.7-0.4,2.2-1.2H4V14H2.8V5.7z"/>
							<path class="st5" d="M6,9.1C6,6,7.8,4,10.3,4c2.5,0,4.3,2,4.3,5.1c0,3.1-1.8,5.1-4.3,5.1C7.8,14.2,6,12.2,6,9.1z M13.4,9.1
								c0-2.5-1.3-4-3.1-4s-3.1,1.5-3.1,4c0,2.5,1.3,4,3.1,4S13.4,11.6,13.4,9.1z"/>
							<path class="st5" d="M16.1,7.3h1.4v1.4h-1.4V7.3z M16.1,12.6h1.4V14h-1.4V12.6z"/>
							<path class="st5" d="M19.1,9.1C19.1,6,20.9,4,23.4,4c2.5,0,4.3,2,4.3,5.1c0,3.1-1.8,5.1-4.3,5.1
								C20.9,14.2,19.1,12.2,19.1,9.1z M26.5,9.1c0-2.5-1.3-4-3.1-4s-3.1,1.5-3.1,4c0,2.5,1.3,4,3.1,4S26.5,11.6,26.5,9.1z"/>
							<path class="st5" d="M29.3,9.1C29.3,6,31.1,4,33.5,4c2.5,0,4.3,2,4.3,5.1c0,3.1-1.8,5.1-4.3,5.1
								C31.1,14.2,29.3,12.2,29.3,9.1z M36.7,9.1c0-2.5-1.3-4-3.1-4s-3.1,1.5-3.1,4c0,2.5,1.3,4,3.1,4S36.7,11.6,36.7,9.1z"/>
							<path class="st5" d="M46.9,4.2h1.2L52,14h-1.2l-1.1-2.9h-4.3L44.2,14h-1.2L46.9,4.2z M49.2,10.1l-1.5-3.9
								c-0.1-0.2-0.2-0.5-0.3-0.7c-0.1,0.2-0.2,0.5-0.3,0.7l-1.5,3.9H49.2z"/>
							<path class="st5" d="M53.3,4.2h1.3l3.5,8.7l3.5-8.7h1.3V14h-1.1V6.5c-0.1,0.4-0.4,1.2-0.5,1.4L58.7,14h-1.2l-2.6-6.1
								c-0.1-0.2-0.4-1-0.5-1.4V14h-1.1V4.2z"/>
							<path class="st5" d="M69,9.2h5.1v0.9H69V9.2z"/>
							<path class="st5" d="M81.9,5.7c-0.5,0.5-1.1,0.7-2.1,0.7v-1c1.1,0,1.7-0.4,2.2-1.2H83V14h-1.2V5.7z"/>
							<path class="st5" d="M85.1,9.1C85.1,6,86.9,4,89.4,4c2.5,0,4.3,2,4.3,5.1c0,3.1-1.8,5.1-4.3,5.1
								C86.9,14.2,85.1,12.2,85.1,9.1z M92.5,9.1c0-2.5-1.3-4-3.1-4s-3.1,1.5-3.1,4c0,2.5,1.3,4,3.1,4S92.5,11.6,92.5,9.1z"/>
							<path class="st5" d="M95.2,7.3h1.4v1.4h-1.4V7.3z M95.2,12.6h1.4V14h-1.4V12.6z"/>
							<path class="st5" d="M98.3,11.4c0-0.3,0.1-0.6,0.1-0.8l1.1,0.3c0,0.1-0.1,0.3-0.1,0.5c0,1.1,0.8,1.8,2.1,1.8
								c1.2,0,2.1-0.7,2.1-2c0-1.4-1.2-2-2.7-2v-1c1.6,0,2.3-0.9,2.3-1.7c0-1-0.7-1.5-1.8-1.5c-1,0-1.8,0.6-1.8,1.6
								c0,0.1,0,0.3,0.1,0.4l-1.1,0.2c-0.1-0.2-0.1-0.4-0.1-0.7c0-1.4,1.2-2.6,2.9-2.6c1.9,0,2.9,1,2.9,2.4c0,0.9-0.5,1.8-1.6,2.2
								c1.1,0.3,2.1,1.2,2.1,2.5c0,1.9-1.4,3.1-3.3,3.1C99.5,14.2,98.3,12.8,98.3,11.4z"/>
							<path class="st5" d="M106.5,9.1c0-3.1,1.8-5.1,4.3-5.1c2.5,0,4.3,2,4.3,5.1c0,3.1-1.8,5.1-4.3,5.1
								C108.3,14.2,106.5,12.2,106.5,9.1z M113.9,9.1c0-2.5-1.3-4-3.1-4s-3.1,1.5-3.1,4c0,2.5,1.3,4,3.1,4S113.9,11.6,113.9,9.1z"/>
							<path class="st5" d="M124.1,4.2h1.2l3.9,9.8H128l-1.1-2.9h-4.3l-1.1,2.9h-1.2L124.1,4.2z M126.5,10.1L125,6.2
								c-0.1-0.2-0.2-0.5-0.3-0.7c-0.1,0.2-0.2,0.5-0.3,0.7l-1.5,3.9H126.5z"/>
							<path class="st5" d="M130.6,4.2h1.3l3.5,8.7l3.5-8.7h1.3V14h-1.1V6.5c-0.1,0.4-0.4,1.2-0.5,1.4L136,14h-1.2l-2.6-6.1
								c-0.1-0.2-0.4-1-0.5-1.4V14h-1.1V4.2z"/>
						</g>
					</g>
					<g id="Dot_1_">
						<g id="container_1_">
							<rect class="st2" width="30" height="52"/>
						</g>
						<g id="Oval_1_">
							<circle class="st6" cx="16" cy="26" r="4"/>
						</g>
					</g>
				</g>
				<g id="kelp-_x2F_-meetings-_x2F_-list-item-_x28_upcoming_x29_" transform="translate(0.000000, 170.000000)">
					<g id="Text_2_" transform="translate(48.000000, 0.000000)">
						<g class="st1">
							<g>
								<g>
									<path d="M0.8,40.8L2,40.1c0.4,1.8,1.4,2.9,3.2,2.9C7,43.1,8,42.1,8,41c0-1.3-1.1-1.9-3-2.3c-2.2-0.4-3.7-1.3-3.7-3.2
										c0-1.7,1.6-2.9,3.7-2.9c2,0,3.5,1,4.1,2.7l-1.1,0.6c-0.5-1.4-1.6-2.2-3-2.2c-1.4,0-2.4,0.6-2.4,1.7c0,1.2,1.1,1.8,3.1,2.2
										c2.3,0.4,3.6,1.5,3.6,3.2c0,1.9-1.6,3.4-4.1,3.4C2.7,44.2,1.2,42.7,0.8,40.8z"/>
								</g>
								<g>
									<path d="M12,32.8h1.3V44H12V32.8z"/>
								</g>
								<g>
									<path d="M15.5,40c0-2.5,1.8-4.2,4-4.2c2.3,0,3.8,1.6,3.8,4v0.4h-6.5c0.1,1.6,1.1,2.9,2.7,2.9c1.4,0,2.1-0.7,2.6-1.8l1,0.6
										c-0.7,1.5-1.9,2.3-3.6,2.3C17.3,44.2,15.5,42.5,15.5,40z M22,39.2c-0.1-1.5-1.2-2.3-2.5-2.3c-1.4,0-2.5,1-2.7,2.3H22z"/>
								</g>
								<g>
									<path d="M25.1,40c0-2.5,1.8-4.2,4-4.2c2.3,0,3.8,1.6,3.8,4v0.4h-6.5c0.1,1.6,1.1,2.9,2.7,2.9c1.4,0,2.1-0.7,2.6-1.8l1,0.6
										c-0.7,1.5-1.9,2.3-3.6,2.3C26.9,44.2,25.1,42.5,25.1,40z M31.6,39.2c-0.1-1.5-1.2-2.3-2.5-2.3c-1.4,0-2.5,1-2.7,2.3H31.6z"
										/>
								</g>
								<g>
									<path d="M35.2,32.8h1.3v6.3l3.1-3h1.6l-2.8,2.8l3.3,5.2h-1.5l-2.8-4.3l-1,1V44h-1.3V32.8z"/>
								</g>
								<g>
									<path d="M47.6,32.8H49l2.2,8.3c0,0,0.2,0.8,0.3,1.2c0.1-0.4,0.3-1.2,0.3-1.2l2.2-8.3h1.4l2.2,8.3c0,0,0.2,0.8,0.3,1.2
										c0.1-0.4,0.3-1.2,0.3-1.2l2.2-8.3h1.4L58.6,44h-1.4l-2.5-9.5L52.2,44h-1.4L47.6,32.8z"/>
								</g>
								<g>
									<path d="M62.3,40c0-2.7,2-4.2,4.1-4.2c2.2,0,4.2,1.5,4.2,4.2s-2,4.2-4.2,4.2C64.2,44.2,62.3,42.7,62.3,40z M69.3,40
										c0-1.8-1.3-3-2.9-3c-1.6,0-2.8,1.2-2.8,3s1.3,3,2.8,3C68,43.1,69.3,41.8,69.3,40z"/>
								</g>
								<g>
									<path d="M72.3,40c0-2.7,2-4.2,4.1-4.2c2.2,0,4.2,1.5,4.2,4.2s-2,4.2-4.2,4.2C74.3,44.2,72.3,42.7,72.3,40z M79.3,40
										c0-1.8-1.3-3-2.9-3c-1.6,0-2.8,1.2-2.8,3s1.3,3,2.8,3C78.1,43.1,79.3,41.8,79.3,40z"/>
								</g>
								<g>
									<path d="M82.4,40c0-2.5,1.7-4.2,3.8-4.2c1.3,0,2.3,0.6,2.8,1.6v-4.6h1.3V44H89v-1.4c-0.4,0.9-1.5,1.6-2.8,1.6
										C84,44.2,82.4,42.5,82.4,40z M89.1,40c0-1.7-1.1-3-2.7-3c-1.6,0-2.7,1.2-2.7,3s1.1,3,2.7,3C88,43.1,89.1,41.8,89.1,40z"/>
								</g>
								<g>
									<path d="M92.6,40c0-2.5,1.8-4.2,4-4.2c2.3,0,3.8,1.6,3.8,4v0.4h-6.5c0.1,1.6,1.1,2.9,2.7,2.9c1.4,0,2.1-0.7,2.6-1.8l1,0.6
										c-0.7,1.5-1.9,2.3-3.6,2.3C94.3,44.2,92.6,42.5,92.6,40z M99.1,39.2c-0.1-1.5-1.2-2.3-2.5-2.3c-1.4,0-2.5,1-2.7,2.3H99.1z"
										/>
								</g>
								<g>
									<path d="M102.7,36.1h1.3v1.4c0.6-1,1.6-1.6,2.8-1.6c1.5,0,2.8,0.9,2.8,2.8V44h-1.3v-5.1c0-1.2-0.8-1.9-1.9-1.9
										c-1.2,0-2.3,1.1-2.3,2.7V44h-1.3V36.1z"/>
								</g>
								<g>
									<path d="M116.9,40.8l1.2-0.6c0.4,1.8,1.4,2.9,3.2,2.9c1.7,0,2.8-1,2.8-2.1c0-1.3-1.1-1.9-3-2.3c-2.2-0.4-3.7-1.3-3.7-3.2
										c0-1.7,1.6-2.9,3.7-2.9c2,0,3.5,1,4.1,2.7l-1.1,0.6c-0.5-1.4-1.6-2.2-3-2.2c-1.4,0-2.4,0.6-2.4,1.7c0,1.2,1.1,1.8,3.1,2.2
										c2.3,0.4,3.6,1.5,3.6,3.2c0,1.9-1.6,3.4-4.1,3.4C118.8,44.2,117.3,42.7,116.9,40.8z"/>
								</g>
								<g>
									<path d="M127.5,40c0-2.7,2-4.2,4.1-4.2c2.2,0,4.2,1.5,4.2,4.2s-2,4.2-4.2,4.2C129.5,44.2,127.5,42.7,127.5,40z M134.5,40
										c0-1.8-1.3-3-2.9-3c-1.6,0-2.8,1.2-2.8,3s1.3,3,2.8,3C133.3,43.1,134.5,41.8,134.5,40z"/>
								</g>
								<g>
									<path d="M137.7,41.8c0-1.6,1.3-2.3,2.7-2.6l2.7-0.4v-0.4c0-1-0.7-1.6-1.9-1.6c-1.2,0-1.9,0.6-1.9,1.3c0,0.1,0,0.1,0,0.2
										l-1.1,0.4c-0.1-0.2-0.1-0.4-0.1-0.6c0-1.2,1.2-2.3,3.1-2.3c2,0,3.2,1,3.2,2.6V42c0,0.9,0.1,1.4,0.5,2h-1.3
										c-0.2-0.2-0.5-0.8-0.5-1.6c-0.4,1.1-1.6,1.8-2.8,1.8C138.7,44.2,137.7,43.2,137.7,41.8z M143.1,40.1v-0.3l-2.4,0.4
										c-1.1,0.2-1.7,0.7-1.7,1.6s0.6,1.4,1.6,1.4C142.1,43.1,143.1,41.6,143.1,40.1z"/>
								</g>
								<g>
									<path d="M147.1,36.1h1.3v1.4c0.5-0.9,1.6-1.7,2.9-1.7c2.1,0,3.7,1.7,3.7,4.2c0,2.4-1.6,4.2-3.8,4.2c-1.2,0-2.3-0.6-2.8-1.5
										v4.5h-1.3V36.1z M153.6,40c0-1.8-1.1-3-2.7-3c-1.6,0-2.7,1.3-2.7,3s1.1,3,2.7,3C152.5,43.1,153.6,41.8,153.6,40z"/>
								</g>
								<g>
									<path d="M162.1,36.1h1.3v1.2c0.5-0.8,1.4-1.5,2.4-1.5s1.9,0.5,2.2,1.5c0.5-0.9,1.5-1.5,2.5-1.5c1.5,0,2.4,0.9,2.4,2.4V44
										h-1.3v-5.4c0-1.1-0.5-1.6-1.5-1.6c-1,0-2,0.9-2,2.8V44h-1.3v-5.4c0-1-0.5-1.7-1.5-1.7c-1,0-2,1-2,2.7V44h-1.3V36.1z"/>
								</g>
								<g>
									<path d="M175.1,40c0-2.5,1.8-4.2,4-4.2c2.3,0,3.8,1.6,3.8,4v0.4h-6.5c0.1,1.6,1.1,2.9,2.7,2.9c1.4,0,2.1-0.7,2.6-1.8l1,0.6
										c-0.7,1.5-1.9,2.3-3.6,2.3C176.9,44.2,175.1,42.5,175.1,40z M181.6,39.2c-0.1-1.5-1.2-2.3-2.5-2.3c-1.4,0-2.5,1-2.7,2.3
										H181.6z"/>
								</g>
								<g>
									<path d="M184.7,40c0-2.5,1.8-4.2,4-4.2c2.3,0,3.8,1.6,3.8,4v0.4H186c0.1,1.6,1.1,2.9,2.7,2.9c1.4,0,2.1-0.7,2.6-1.8l1,0.6
										c-0.7,1.5-1.9,2.3-3.6,2.3C186.5,44.2,184.7,42.5,184.7,40z M191.2,39.2c-0.1-1.5-1.2-2.3-2.5-2.3c-1.4,0-2.5,1-2.7,2.3
										H191.2z"/>
								</g>
								<g>
									<path d="M195.3,42v-4.9h-1.3v-1h1.3v-2.1h1.3v2.1h1.9v1h-1.9v4.8c0,0.8,0.4,1.2,1.1,1.2c0.2,0,0.5,0,0.6-0.1l0.1,1.1
										c-0.3,0.1-0.6,0.2-1,0.2C196.2,44.2,195.3,43.6,195.3,42z"/>
								</g>
								<g>
									<path d="M200.5,33.1h1.5v1.6h-1.5V33.1z M200.7,36.1h1.3V44h-1.3V36.1z"/>
								</g>
								<g>
									<path d="M204.8,36.1h1.3v1.4c0.6-1,1.6-1.6,2.8-1.6c1.5,0,2.8,0.9,2.8,2.8V44h-1.3v-5.1c0-1.2-0.8-1.9-1.9-1.9
										c-1.2,0-2.3,1.1-2.3,2.7V44h-1.3V36.1z"/>
								</g>
								<g>
									<path d="M214.1,45.1c0-0.3,0.1-0.6,0.2-0.9l1.2,0.4c-0.1,0.2-0.1,0.4-0.1,0.6c0,0.8,0.8,1.2,2.2,1.2c1.6,0,2.5-0.9,2.5-2.8
										v-1.2c-0.5,0.9-1.4,1.5-2.7,1.5c-2.1,0-3.7-1.5-3.7-4c0-2.5,1.7-4,3.7-4c1.3,0,2.2,0.6,2.7,1.4v-1.1h1.3v7.4
										c0,2.5-1.4,4-3.8,4C215.3,47.5,214.1,46.5,214.1,45.1z M220.1,39.9c0-1.8-1.1-2.9-2.6-2.9c-1.6,0-2.6,1.1-2.6,2.9
										s1,2.9,2.6,2.9C219.1,42.8,220.1,41.6,220.1,39.9z"/>
								</g>
							</g>
						</g>
						<g class="st1">
							<g>
								<g>
									<path d="M2.8,5.7C2.3,6.3,1.7,6.5,0.7,6.5v-1c1.1,0,1.7-0.4,2.2-1.2H4V14H2.8V5.7z"/>
								</g>
								<g>
									<path d="M6,9.1C6,6,7.8,4,10.3,4c2.5,0,4.3,2,4.3,5.1c0,3.1-1.8,5.1-4.3,5.1C7.8,14.2,6,12.2,6,9.1z M13.4,9.1
										c0-2.5-1.3-4-3.1-4s-3.1,1.5-3.1,4c0,2.5,1.3,4,3.1,4S13.4,11.6,13.4,9.1z"/>
								</g>
								<g>
									<path d="M16.1,7.3h1.4v1.4h-1.4V7.3z M16.1,12.6h1.4V14h-1.4V12.6z"/>
								</g>
								<g>
									<path d="M19.2,11.4c0-0.3,0.1-0.6,0.1-0.8l1.1,0.3c0,0.1-0.1,0.3-0.1,0.5c0,1.1,0.8,1.8,2.1,1.8c1.2,0,2.1-0.7,2.1-2
										c0-1.4-1.2-2-2.7-2v-1c1.6,0,2.3-0.9,2.3-1.7c0-1-0.7-1.5-1.8-1.5c-1,0-1.8,0.6-1.8,1.6c0,0.1,0,0.3,0.1,0.4l-1.1,0.2
										c-0.1-0.2-0.1-0.4-0.1-0.7c0-1.4,1.2-2.6,2.9-2.6c1.9,0,2.9,1,2.9,2.4c0,0.9-0.5,1.8-1.6,2.2c1.1,0.3,2.1,1.2,2.1,2.5
										c0,1.9-1.4,3.1-3.3,3.1C20.4,14.2,19.2,12.8,19.2,11.4z"/>
								</g>
								<g>
									<path d="M27.4,9.1C27.4,6,29.2,4,31.7,4C34.2,4,36,6,36,9.1c0,3.1-1.8,5.1-4.3,5.1C29.2,14.2,27.4,12.2,27.4,9.1z
										 M34.8,9.1c0-2.5-1.3-4-3.1-4s-3.1,1.5-3.1,4c0,2.5,1.3,4,3.1,4S34.8,11.6,34.8,9.1z"/>
								</g>
								<g>
									<path d="M45,4.2h1.2l3.9,9.8h-1.2l-1.1-2.9h-4.3L42.4,14h-1.2L45,4.2z M47.4,10.1l-1.5-3.9c-0.1-0.2-0.2-0.5-0.3-0.7
										c-0.1,0.2-0.2,0.5-0.3,0.7l-1.5,3.9H47.4z"/>
								</g>
								<g>
									<path d="M51.5,4.2h1.3l3.5,8.7l3.5-8.7h1.3V14H60V6.5c-0.1,0.4-0.4,1.2-0.5,1.4L56.9,14h-1.2l-2.6-6.1
										c-0.1-0.2-0.4-1-0.5-1.4V14h-1.1V4.2z"/>
								</g>
								<g>
									<path d="M67.2,9.2h5.1v0.9h-5.1V9.2z"/>
								</g>
								<g>
									<path d="M80.1,5.7C79.6,6.3,79,6.5,78,6.5v-1c1.1,0,1.7-0.4,2.2-1.2h1.1V14h-1.2V5.7z"/>
								</g>
								<g>
									<path d="M85.3,5.7c-0.5,0.5-1.1,0.7-2.1,0.7v-1c1.1,0,1.7-0.4,2.2-1.2h1.1V14h-1.2V5.7z"/>
								</g>
								<g>
									<path d="M88.5,7.3h1.4v1.4h-1.4V7.3z M88.5,12.6h1.4V14h-1.4V12.6z"/>
								</g>
								<g>
									<path d="M91.5,11.4c0-0.3,0.1-0.6,0.1-0.8l1.1,0.3c0,0.1-0.1,0.3-0.1,0.5c0,1.1,0.8,1.8,2.1,1.8c1.2,0,2.1-0.7,2.1-2
										c0-1.4-1.2-2-2.7-2v-1c1.6,0,2.3-0.9,2.3-1.7c0-1-0.7-1.5-1.8-1.5c-1,0-1.8,0.6-1.8,1.6c0,0.1,0,0.3,0.1,0.4l-1.1,0.2
										c-0.1-0.2-0.1-0.4-0.1-0.7C91.8,5.2,93,4,94.8,4c1.9,0,2.9,1,2.9,2.4c0,0.9-0.5,1.8-1.6,2.2c1.1,0.3,2.1,1.2,2.1,2.5
										c0,1.9-1.4,3.1-3.3,3.1C92.7,14.2,91.5,12.8,91.5,11.4z"/>
								</g>
								<g>
									<path d="M99.8,9.1c0-3.1,1.8-5.1,4.3-5.1c2.5,0,4.3,2,4.3,5.1c0,3.1-1.8,5.1-4.3,5.1C101.6,14.2,99.8,12.2,99.8,9.1z
										 M107.2,9.1c0-2.5-1.3-4-3.1-4s-3.1,1.5-3.1,4c0,2.5,1.3,4,3.1,4S107.2,11.6,107.2,9.1z"/>
								</g>
								<g>
									<path d="M117.4,4.2h1.2l3.9,9.8h-1.2l-1.1-2.9h-4.3l-1.1,2.9h-1.2L117.4,4.2z M119.8,10.1l-1.5-3.9
										C118.2,6,118,5.7,118,5.5c-0.1,0.2-0.2,0.5-0.3,0.7l-1.5,3.9H119.8z"/>
								</g>
								<g>
									<path d="M123.8,4.2h1.3l3.5,8.7l3.5-8.7h1.3V14h-1.1V6.5c-0.1,0.4-0.4,1.2-0.5,1.4l-2.6,6.2H128l-2.6-6.1
										c-0.1-0.2-0.4-1-0.5-1.4V14h-1.1V4.2z"/>
								</g>
							</g>
						</g>
					</g>
					<g id="Dot_2_">
						<g id="container_2_">
							<g>
								<rect class="st2" width="30" height="52"/>
							</g>
						</g>
						<g id="Oval_2_" class="st7">
							<g>
								<circle class="st4" cx="16" cy="26" r="4"/>
							</g>
						</g>
					</g>
				</g>
				<g id="kelp-_x2F_-meetings-_x2F_-list-item-_x28_upcoming_x29_-copy" transform="translate(0.000000, 255.000000)">
					<g id="Text_3_" transform="translate(48.000000, 0.000000)">
						<g class="st1">
							<g>
								<g>
									<path d="M1.3,32.8h4.5c2.3,0,3.6,1.3,3.6,3.1c0,1.6-1,2.8-2.7,3.1L9.5,44H8l-2.8-4.8H2.7V44H1.3V32.8z M5.6,38
										c1.5,0,2.4-0.7,2.4-2c0-1.4-0.9-2-2.4-2h-3v4H5.6z"/>
								</g>
								<g>
									<path d="M10.8,40c0-2.5,1.8-4.2,4-4.2c2.3,0,3.8,1.6,3.8,4v0.4H12c0.1,1.6,1.1,2.9,2.7,2.9c1.4,0,2.1-0.7,2.6-1.8l1,0.6
										c-0.7,1.5-1.9,2.3-3.6,2.3C12.5,44.2,10.8,42.5,10.8,40z M17.3,39.2c-0.1-1.5-1.2-2.3-2.5-2.3c-1.4,0-2.5,1-2.7,2.3H17.3z"
										/>
								</g>
								<g>
									<path d="M21.2,37.1H20v-1h1.2v-1.5c0-1.6,0.8-2.6,2.4-2.6c0.3,0,0.6,0.1,0.8,0.2l-0.2,1.1c-0.2-0.1-0.4-0.1-0.6-0.1
										c-0.6,0-1.2,0.4-1.2,1.4v1.5h4.6V44h-1.3v-6.9h-3.3V44h-1.3V37.1z M25.7,33.1h1.5v1.6h-1.5V33.1z"/>
								</g>
								<g>
									<path d="M29.9,36.1h1.3v1.4c0.6-1,1.6-1.6,2.8-1.6c1.5,0,2.8,0.9,2.8,2.8V44h-1.3v-5.1c0-1.2-0.8-1.9-1.9-1.9
										c-1.2,0-2.3,1.1-2.3,2.7V44h-1.3V36.1z"/>
								</g>
								<g>
									<path d="M38.9,40c0-2.5,1.8-4.2,4-4.2c2.3,0,3.8,1.6,3.8,4v0.4h-6.5c0.1,1.6,1.1,2.9,2.7,2.9c1.4,0,2.1-0.7,2.6-1.8l1,0.6
										c-0.7,1.5-1.9,2.3-3.6,2.3C40.7,44.2,38.9,42.5,38.9,40z M45.4,39.2c-0.1-1.5-1.2-2.3-2.5-2.3c-1.4,0-2.5,1-2.7,2.3H45.4z"
										/>
								</g>
								<g>
									<path d="M48.5,40c0-2.5,1.7-4.2,3.8-4.2c1.3,0,2.3,0.6,2.8,1.6v-4.6h1.3V44h-1.3v-1.4c-0.4,0.9-1.5,1.6-2.8,1.6
										C50.1,44.2,48.5,42.5,48.5,40z M55.2,40c0-1.7-1.1-3-2.7-3c-1.6,0-2.7,1.2-2.7,3s1.1,3,2.7,3C54.1,43.1,55.2,41.8,55.2,40z
										"/>
								</g>
								<g>
									<path d="M63.7,40.8l1.2-0.6c0.4,1.8,1.4,2.9,3.2,2.9c1.7,0,2.8-1,2.8-2.1c0-1.3-1.1-1.9-3-2.3c-2.2-0.4-3.7-1.3-3.7-3.2
										c0-1.7,1.6-2.9,3.7-2.9c2,0,3.5,1,4.1,2.7L71,35.9c-0.5-1.4-1.6-2.2-3-2.2c-1.4,0-2.4,0.6-2.4,1.7c0,1.2,1.1,1.8,3.1,2.2
										c2.3,0.4,3.6,1.5,3.6,3.2c0,1.9-1.6,3.4-4.1,3.4C65.6,44.2,64.1,42.7,63.7,40.8z"/>
								</g>
								<g>
									<path d="M74.4,40c0-2.7,2-4.2,4.1-4.2c2.2,0,4.2,1.5,4.2,4.2s-2,4.2-4.2,4.2C76.3,44.2,74.4,42.7,74.4,40z M81.4,40
										c0-1.8-1.3-3-2.9-3c-1.6,0-2.8,1.2-2.8,3s1.3,3,2.8,3C80.1,43.1,81.4,41.8,81.4,40z"/>
								</g>
								<g>
									<path d="M85.2,37.1H84v-1h1.2v-1.5c0-1.6,0.9-2.6,2.5-2.6c0.3,0,0.6,0.1,0.8,0.2l-0.2,1.1c-0.2-0.1-0.4-0.1-0.6-0.1
										c-0.6,0-1.2,0.4-1.2,1.4v1.5h1.9v1h-1.9V44h-1.3V37.1z"/>
								</g>
								<g>
									<path d="M91.2,42v-4.9h-1.3v-1h1.3v-2.1h1.3v2.1h1.9v1h-1.9v4.8c0,0.8,0.4,1.2,1.1,1.2c0.2,0,0.5,0,0.6-0.1l0.1,1.1
										c-0.3,0.1-0.6,0.2-1,0.2C92.1,44.2,91.2,43.6,91.2,42z"/>
								</g>
								<g>
									<path d="M101.7,32.8h4.7c2.4,0,3.9,1.3,3.9,3.5c0,2.2-1.6,3.5-3.9,3.5H103V44h-1.3V32.8z M106.3,38.6
										c1.8,0,2.6-0.9,2.6-2.3c0-1.4-0.9-2.3-2.6-2.3H103v4.7H106.3z"/>
								</g>
								<g>
									<path d="M112.6,33.1h1.5v1.6h-1.5V33.1z M112.7,36.1h1.3V44h-1.3V36.1z"/>
								</g>
								<g>
									<path d="M116.3,42.9l4.7-5.8h-4.6v-1.1h6v1.1l-4.7,5.8h5V44h-6.4V42.9z"/>
								</g>
								<g>
									<path d="M124.5,42.9l4.7-5.8h-4.6v-1.1h6v1.1l-4.7,5.8h5V44h-6.4V42.9z"/>
								</g>
								<g>
									<path d="M132.8,41.8c0-1.6,1.3-2.3,2.7-2.6l2.7-0.4v-0.4c0-1-0.7-1.6-1.9-1.6c-1.2,0-1.9,0.6-1.9,1.3c0,0.1,0,0.1,0,0.2
										l-1.1,0.4c-0.1-0.2-0.1-0.4-0.1-0.6c0-1.2,1.2-2.3,3.1-2.3c2,0,3.2,1,3.2,2.6V42c0,0.9,0.1,1.4,0.5,2h-1.3
										c-0.2-0.2-0.5-0.8-0.5-1.6c-0.4,1.1-1.6,1.8-2.8,1.8C133.8,44.2,132.8,43.2,132.8,41.8z M138.2,40.1v-0.3l-2.4,0.4
										c-1.1,0.2-1.7,0.7-1.7,1.6s0.6,1.4,1.6,1.4C137.2,43.1,138.2,41.6,138.2,40.1z"/>
								</g>
								<g>
									<path d="M147.2,36.1h1.3v1.2c0.5-0.8,1.4-1.5,2.4-1.5c1,0,1.9,0.5,2.2,1.5c0.5-0.9,1.5-1.5,2.5-1.5c1.5,0,2.4,0.9,2.4,2.4
										V44h-1.3v-5.4c0-1.1-0.5-1.6-1.5-1.6c-1,0-2,0.9-2,2.8V44H152v-5.4c0-1-0.5-1.7-1.5-1.7c-1,0-2,1-2,2.7V44h-1.3V36.1z"/>
								</g>
								<g>
									<path d="M160.2,40c0-2.5,1.8-4.2,4-4.2c2.3,0,3.8,1.6,3.8,4v0.4h-6.5c0.1,1.6,1.1,2.9,2.7,2.9c1.4,0,2.1-0.7,2.6-1.8l1,0.6
										c-0.7,1.5-1.9,2.3-3.6,2.3C162,44.2,160.2,42.5,160.2,40z M166.7,39.2c-0.1-1.5-1.2-2.3-2.5-2.3c-1.4,0-2.5,1-2.7,2.3
										H166.7z"/>
								</g>
								<g>
									<path d="M169.8,40c0-2.5,1.8-4.2,4-4.2c2.3,0,3.8,1.6,3.8,4v0.4h-6.5c0.1,1.6,1.1,2.9,2.7,2.9c1.4,0,2.1-0.7,2.6-1.8l1,0.6
										c-0.7,1.5-1.9,2.3-3.6,2.3C171.6,44.2,169.8,42.5,169.8,40z M176.3,39.2c-0.1-1.5-1.2-2.3-2.5-2.3c-1.4,0-2.5,1-2.7,2.3
										H176.3z"/>
								</g>
								<g>
									<path d="M180.4,42v-4.9H179v-1h1.3v-2.1h1.3v2.1h1.9v1h-1.9v4.8c0,0.8,0.4,1.2,1.1,1.2c0.2,0,0.5,0,0.6-0.1l0.1,1.1
										c-0.3,0.1-0.6,0.2-1,0.2C181.3,44.2,180.4,43.6,180.4,42z"/>
								</g>
								<g>
									<path d="M185.6,33.1h1.5v1.6h-1.5V33.1z M185.8,36.1h1.3V44h-1.3V36.1z"/>
								</g>
								<g>
									<path d="M189.8,36.1h1.3v1.4c0.6-1,1.6-1.6,2.8-1.6c1.5,0,2.8,0.9,2.8,2.8V44h-1.3v-5.1c0-1.2-0.8-1.9-1.9-1.9
										c-1.2,0-2.3,1.1-2.3,2.7V44h-1.3V36.1z"/>
								</g>
								<g>
									<path d="M199.2,45.1c0-0.3,0.1-0.6,0.2-0.9l1.2,0.4c-0.1,0.2-0.1,0.4-0.1,0.6c0,0.8,0.8,1.2,2.2,1.2c1.6,0,2.5-0.9,2.5-2.8
										v-1.2c-0.5,0.9-1.4,1.5-2.7,1.5c-2.1,0-3.7-1.5-3.7-4c0-2.5,1.7-4,3.7-4c1.3,0,2.2,0.6,2.7,1.4v-1.1h1.3v7.4
										c0,2.5-1.4,4-3.8,4C200.4,47.5,199.2,46.5,199.2,45.1z M205.2,39.9c0-1.8-1.1-2.9-2.6-2.9s-2.6,1.1-2.6,2.9s1,2.9,2.6,2.9
										S205.2,41.6,205.2,39.9z"/>
								</g>
							</g>
						</g>
						<g class="st1">
							<g>
								<g>
									<path d="M2.8,5.7C2.3,6.3,1.7,6.5,0.7,6.5v-1c1.1,0,1.7-0.4,2.2-1.2H4V14H2.8V5.7z"/>
								</g>
								<g>
									<path d="M6,13.2l3.8-3.7c1-1,1.4-1.7,1.4-2.6c0-1.1-0.8-1.8-2-1.8c-1.1,0-2,0.7-2,1.9c0,0.3,0.1,0.5,0.1,0.6L6.2,7.8
										C6.1,7.5,6.1,7.2,6.1,6.8C6.1,5.4,7.3,4,9.2,4c2,0,3.1,1.2,3.1,2.7c0,1.2-0.4,2.1-1.8,3.4l-2.7,2.7h4.5V14H6V13.2z"/>
								</g>
								<g>
									<path d="M14.3,7.3h1.4v1.4h-1.4V7.3z M14.3,12.6h1.4V14h-1.4V12.6z"/>
								</g>
								<g>
									<path d="M17.3,11.4c0-0.3,0.1-0.6,0.1-0.8l1.1,0.3c0,0.1-0.1,0.3-0.1,0.5c0,1.1,0.8,1.8,2.1,1.8c1.2,0,2.1-0.7,2.1-2
										c0-1.4-1.2-2-2.7-2v-1c1.6,0,2.3-0.9,2.3-1.7c0-1-0.7-1.5-1.8-1.5c-1,0-1.8,0.6-1.8,1.6c0,0.1,0,0.3,0.1,0.4l-1.1,0.2
										c-0.1-0.2-0.1-0.4-0.1-0.7c0-1.4,1.2-2.6,2.9-2.6c1.9,0,2.9,1,2.9,2.4c0,0.9-0.5,1.8-1.6,2.2c1.1,0.3,2.1,1.2,2.1,2.5
										c0,1.9-1.4,3.1-3.3,3.1C18.5,14.2,17.3,12.8,17.3,11.4z"/>
								</g>
								<g>
									<path d="M25.6,9.1C25.6,6,27.4,4,29.9,4c2.5,0,4.3,2,4.3,5.1c0,3.1-1.8,5.1-4.3,5.1C27.4,14.2,25.6,12.2,25.6,9.1z M33,9.1
										c0-2.5-1.3-4-3.1-4s-3.1,1.5-3.1,4c0,2.5,1.3,4,3.1,4S33,11.6,33,9.1z"/>
								</g>
								<g>
									<path d="M40.3,4.2h4.1c2.1,0,3.4,1.1,3.4,3.1s-1.4,3.1-3.4,3.1h-2.9V14h-1.2V4.2z M44.4,9.3c1.6,0,2.3-0.8,2.3-2
										c0-1.3-0.8-2-2.3-2h-2.9v4.1H44.4z"/>
								</g>
								<g>
									<path d="M49.8,4.2h1.3l3.5,8.7l3.5-8.7h1.3V14h-1.1V6.5c-0.1,0.4-0.4,1.2-0.5,1.4L55.2,14H54l-2.6-6.1
										c-0.1-0.2-0.4-1-0.5-1.4V14h-1.1V4.2z"/>
								</g>
								<g>
									<path d="M65.5,9.2h5.1v0.9h-5.1V9.2z"/>
								</g>
								<g>
									<path d="M78.4,5.7c-0.5,0.5-1.1,0.7-2.1,0.7v-1c1.1,0,1.7-0.4,2.2-1.2h1.1V14h-1.2V5.7z"/>
								</g>
								<g>
									<path d="M81.5,7.3h1.4v1.4h-1.4V7.3z M81.5,12.6h1.4V14h-1.4V12.6z"/>
								</g>
								<g>
									<path d="M84.5,9.1C84.5,6,86.3,4,88.8,4C91.3,4,93,6,93,9.1c0,3.1-1.8,5.1-4.3,5.1C86.3,14.2,84.5,12.2,84.5,9.1z
										 M91.9,9.1c0-2.5-1.3-4-3.1-4s-3.1,1.5-3.1,4c0,2.5,1.3,4,3.1,4S91.9,11.6,91.9,9.1z"/>
								</g>
								<g>
									<path d="M94.7,9.1C94.7,6,96.5,4,99,4c2.5,0,4.3,2,4.3,5.1c0,3.1-1.8,5.1-4.3,5.1C96.5,14.2,94.7,12.2,94.7,9.1z
										 M102.1,9.1c0-2.5-1.3-4-3.1-4s-3.1,1.5-3.1,4c0,2.5,1.3,4,3.1,4S102.1,11.6,102.1,9.1z"/>
								</g>
								<g>
									<path d="M109.4,4.2h4.1c2.1,0,3.4,1.1,3.4,3.1s-1.4,3.1-3.4,3.1h-2.9V14h-1.2V4.2z M113.5,9.3c1.6,0,2.3-0.8,2.3-2
										c0-1.3-0.8-2-2.3-2h-2.9v4.1H113.5z"/>
								</g>
								<g>
									<path d="M118.9,4.2h1.3l3.5,8.7l3.5-8.7h1.3V14h-1.1V6.5c-0.1,0.4-0.4,1.2-0.5,1.4l-2.6,6.2h-1.2l-2.6-6.1
										c-0.1-0.2-0.4-1-0.5-1.4V14h-1.1V4.2z"/>
								</g>
							</g>
						</g>
					</g>
					<g id="Dot_3_">
						<g id="container_3_">
							<g>
								<rect class="st2" width="30" height="52"/>
							</g>
						</g>
						<g id="Oval_3_" class="st7">
							<g>
								<circle class="st4" cx="16" cy="26" r="4"/>
							</g>
						</g>
					</g>
				</g>
				<g id="Group" transform="translate(48.000000, 68.000000)">
					<g id="_x2796_Divider">
						<g class="st8">
							<g>
								<rect class="st4" width="295" height="1"/>
							</g>
						</g>
					</g>
				</g>
				<g id="Group_1_" transform="translate(48.000000, 153.000000)">
					<g id="_x2796_Divider_1_">
						<g class="st8">
							<g>
								<rect class="st4" width="295" height="1"/>
							</g>
						</g>
					</g>
				</g>
				<g id="Group_2_" transform="translate(48.000000, 238.000000)">
					<g id="_x2796_Divider_2_">
						<g class="st8">
							<g>
								<rect class="st4" width="295" height="1"/>
							</g>
						</g>
					</g>
				</g>
			</g>
			<g class="st1">
				<path class="st5" d="M3.7,6.4H0.3V4.8h8.6v1.6H5.4V16H3.7V6.4z"/>
				<path class="st5" d="M9.7,10.4c0-3.4,2.4-5.8,5.6-5.8c3.2,0,5.6,2.4,5.6,5.8s-2.4,5.8-5.6,5.8C12.1,16.2,9.7,13.8,9.7,10.4z
					 M19.1,10.4c0-2.6-1.6-4.2-3.8-4.2s-3.8,1.6-3.8,4.2c0,2.6,1.6,4.2,3.8,4.2S19.1,13,19.1,10.4z"/>
				<path class="st5" d="M23.2,4.8h3.2c3.4,0,5.9,2,5.9,5.6S29.9,16,26.4,16h-3.2V4.8z M26.5,14.4c2.4,0,4.1-1.3,4.1-4s-1.7-4-4.1-4
					h-1.5v8H26.5z"/>
				<path class="st5" d="M37.5,4.8h1.7L43.7,16h-1.8l-1.2-3.1h-4.6L34.9,16H33L37.5,4.8z M40.1,11.4l-1.4-3.5c0-0.1-0.2-0.6-0.4-1
					c-0.1,0.4-0.3,0.9-0.4,1l-1.4,3.5H40.1z"/>
				<path class="st5" d="M46.6,11.5L43,4.8h1.9l2.3,4.4c0.1,0.3,0.2,0.5,0.4,0.8c0.1-0.3,0.2-0.5,0.4-0.8l2.3-4.4h1.9l-3.7,6.7V16
					h-1.7V11.5z"/>
			</g>
			<g class="st1">
				<path class="st5" d="M59.4,9.4H61v1.7h-1.6V9.4z"/>
			</g>
			<g>
			</g>
			<g class="st1">
				<path class="st5" d="M66.9,6.4h-3.4V4.8h8.6v1.6h-3.4V16h-1.7V6.4z"/>
				<path class="st5" d="M74.1,4.8h1.7v4.7h5.3V4.8h1.7V16h-1.7v-4.9h-5.3V16h-1.7V4.8z"/>
				<path class="st5" d="M85.6,11.9V4.8h1.7v7c0,1.8,1.1,2.9,2.7,2.9s2.7-1.1,2.7-2.9v-7h1.7v7.1c0,2.8-1.8,4.3-4.4,4.3
					S85.6,14.7,85.6,11.9z"/>
				<path class="st5" d="M102.1,4.8h1.8l3.8,9.4l3.8-9.4h1.8V16h-1.7V8.3c-0.1,0.6-0.4,1.3-0.5,1.7l-2.6,6.1h-1.7l-2.6-6.1
					c-0.2-0.4-0.4-1.1-0.6-1.7V16h-1.7V4.8z"/>
				<path class="st5" d="M119.5,4.8h1.7l4.5,11.2h-1.8l-1.2-3.1h-4.6l-1.2,3.1H115L119.5,4.8z M122.1,11.4l-1.4-3.5
					c0-0.1-0.2-0.6-0.4-1c-0.1,0.4-0.3,0.9-0.4,1l-1.4,3.5H122.1z"/>
				<path class="st5" d="M127.3,4.8h4.6c2.4,0,3.8,1.3,3.8,3.2c0,1.7-1,2.7-2.6,3.2l2.8,4.8h-2l-2.7-4.7h-2.2V16h-1.7V4.8z
					 M131.9,9.8c1.4,0,2.1-0.6,2.1-1.7c0-1.1-0.7-1.7-2.1-1.7h-2.8v3.5H131.9z"/>
				<path class="st5" d="M145,7c-0.6,0.6-1.3,0.8-2.4,0.8V6.2c1.3,0,2-0.5,2.5-1.4h1.6V16H145V7z"/>
				<path class="st5" d="M149,12.9c0-1.4,0.8-2.4,1.9-2.9c-1-0.5-1.6-1.4-1.6-2.5c0-1.7,1.5-2.9,3.5-2.9s3.5,1.2,3.5,2.9
					c0,1.1-0.6,2-1.6,2.5c1.1,0.5,1.9,1.5,1.9,2.9c0,2-1.6,3.3-3.9,3.3S149,14.9,149,12.9z M155.1,12.8c0-1.2-1-2-2.2-2
					s-2.2,0.8-2.2,2c0,1.2,0.9,2,2.2,2C154.2,14.8,155.1,14,155.1,12.8z M154.8,7.6c0-1.1-0.9-1.7-1.9-1.7S151,6.5,151,7.6
					s0.8,1.7,1.9,1.7S154.8,8.7,154.8,7.6z"/>
			</g>
		</g>
		<g id="Happening-now" transform="translate(16.000000, 208.000000)">
			<g id="Rectangle">
				<path class="st9" d="M8,0h327c4.4,0,8,3.6,8,8v166c0,4.4-3.6,8-8,8H8c-4.4,0-8-3.6-8-8V8C0,3.6,3.6,0,8,0z"/>
			</g>
			<g id="Group_3_" transform="translate(16.000000, 51.000000)">
				<g class="st1">
					<path d="M3.7,6H0.3V4.8h8.3V6H5.1v10H3.7V6z"/>
					<path d="M8,13.8c0-1.6,1.3-2.3,2.7-2.6l2.7-0.4v-0.4c0-1-0.7-1.6-1.9-1.6c-1.2,0-1.9,0.6-1.9,1.3c0,0.1,0,0.1,0,0.2l-1.1,0.4
						c-0.1-0.2-0.1-0.4-0.1-0.6c0-1.2,1.2-2.3,3.1-2.3c2,0,3.2,1,3.2,2.6V14c0,0.9,0.1,1.4,0.5,2h-1.3c-0.2-0.2-0.5-0.8-0.5-1.6
						c-0.4,1.1-1.6,1.8-2.8,1.8C9.1,16.2,8,15.2,8,13.8z M13.4,12.1v-0.3L11,12.2c-1.1,0.2-1.7,0.7-1.7,1.6s0.6,1.4,1.6,1.4
						C12.5,15.1,13.4,13.6,13.4,12.1z"/>
					<path d="M16.8,13.9l1.1-0.7c0.4,1.1,1.2,1.9,2.3,1.9c1,0,1.7-0.5,1.7-1.4c0-0.8-0.6-1.2-2-1.4c-1.5-0.3-2.7-1-2.7-2.4
						c0-1.3,1.3-2.1,2.8-2.1c1.6,0,2.6,0.7,3.1,1.9l-1,0.6c-0.4-1-1.2-1.5-2.1-1.5c-0.9,0-1.6,0.4-1.6,1.1c0,0.8,0.8,1.2,2.1,1.4
						c1.6,0.3,2.6,1,2.6,2.4c0,1.3-1,2.5-3,2.5C18.4,16.2,17.3,15.2,16.8,13.9z"/>
					<path d="M25.9,14V9.1h-1.3v-1h1.3V5.9h1.3v2.1h1.9v1h-1.9v4.8c0,0.8,0.4,1.2,1.1,1.2c0.2,0,0.5,0,0.6-0.1l0.1,1.1
						c-0.3,0.1-0.6,0.2-1,0.2C26.9,16.2,25.9,15.6,25.9,14z"/>
					<path d="M31.5,19.2l0.2-1.2c0.2,0.1,0.4,0.2,0.6,0.2c0.4,0,0.8-0.3,1-0.8l0.5-1.3l-3.2-8H32l2.5,6.2L37,8.1h1.4l-4,9.7
						c-0.4,1.1-1.1,1.6-2.1,1.6C32,19.4,31.7,19.3,31.5,19.2z"/>
					<path d="M45.2,4.8h4.7c2.4,0,3.9,1.3,3.9,3.5c0,2.2-1.6,3.5-3.9,3.5h-3.3V16h-1.3V4.8z M49.9,10.6c1.8,0,2.6-0.9,2.6-2.3
						c0-1.4-0.9-2.3-2.6-2.3h-3.3v4.7H49.9z"/>
					<path d="M56,4.8h1.3V16H56V4.8z"/>
					<path d="M59.6,13.8c0-1.6,1.3-2.3,2.7-2.6l2.7-0.4v-0.4c0-1-0.7-1.6-1.9-1.6c-1.2,0-1.9,0.6-1.9,1.3c0,0.1,0,0.1,0,0.2
						l-1.1,0.4c-0.1-0.2-0.1-0.4-0.1-0.6c0-1.2,1.2-2.3,3.1-2.3c2,0,3.2,1,3.2,2.6V14c0,0.9,0.1,1.4,0.5,2h-1.3
						c-0.2-0.2-0.5-0.8-0.5-1.6c-0.4,1.1-1.6,1.8-2.8,1.8C60.6,16.2,59.6,15.2,59.6,13.8z M65,12.1v-0.3l-2.4,0.4
						c-1.1,0.2-1.7,0.7-1.7,1.6s0.6,1.4,1.6,1.4C64,15.1,65,13.6,65,12.1z"/>
					<path d="M68.4,13.9l1.1-0.7c0.4,1.1,1.2,1.9,2.3,1.9c1,0,1.7-0.5,1.7-1.4c0-0.8-0.6-1.2-2-1.4c-1.5-0.3-2.7-1-2.7-2.4
						c0-1.3,1.3-2.1,2.8-2.1c1.6,0,2.6,0.7,3.1,1.9l-1,0.6c-0.4-1-1.2-1.5-2.1-1.5c-0.9,0-1.6,0.4-1.6,1.1c0,0.8,0.8,1.2,2.1,1.4
						c1.6,0.3,2.6,1,2.6,2.4c0,1.3-1,2.5-3,2.5C70,16.2,68.9,15.2,68.4,13.9z"/>
					<path d="M77.5,14V9.1h-1.3v-1h1.3V5.9h1.3v2.1h1.9v1h-1.9v4.8c0,0.8,0.4,1.2,1.1,1.2c0.2,0,0.5,0,0.6-0.1l0.1,1.1
						c-0.3,0.1-0.6,0.2-1,0.2C78.4,16.2,77.5,15.6,77.5,14z"/>
					<path d="M82.8,5.1h1.5v1.6h-1.5V5.1z M82.9,8.1h1.3V16h-1.3V8.1z"/>
					<path d="M86.4,12c0-2.5,1.9-4.2,4.1-4.2c1.7,0,2.8,0.7,3.4,2l-1,0.6c-0.5-1-1.4-1.5-2.4-1.5c-1.5,0-2.8,1.2-2.8,3
						c0,1.8,1.2,3,2.8,3c1.2,0,1.9-0.5,2.4-1.5l1,0.6c-0.7,1.2-1.8,2-3.4,2C88.1,16.2,86.4,14.5,86.4,12z"/>
					<path d="M100.7,10.4c0-3.3,2.5-5.8,5.5-5.8c2.2,0,3.9,1.2,4.7,2.9l-1.1,0.8c-0.9-1.7-2.1-2.4-3.7-2.4c-2.3,0-4.1,2-4.1,4.6
						c0,2.6,1.7,4.6,4.1,4.6c1.7,0,2.8-0.8,3.7-2.4l1,0.7c-1.1,1.8-2.4,2.9-4.8,2.9C103,16.2,100.7,13.7,100.7,10.4z"/>
					<path d="M113.5,4.8h1.3v4.7c0.6-1,1.6-1.7,2.9-1.7c1.7,0,2.8,1,2.8,2.8V16h-1.3v-5.1c0-1.2-0.8-1.9-1.9-1.9
						c-1.2,0-2.4,1.1-2.4,2.7V16h-1.3V4.8z"/>
					<path d="M122.7,13.8c0-1.6,1.3-2.3,2.7-2.6l2.7-0.4v-0.4c0-1-0.7-1.6-1.9-1.6c-1.2,0-1.9,0.6-1.9,1.3c0,0.1,0,0.1,0,0.2
						l-1.1,0.4c-0.1-0.2-0.1-0.4-0.1-0.6c0-1.2,1.2-2.3,3.1-2.3c2,0,3.2,1,3.2,2.6V14c0,0.9,0.1,1.4,0.5,2h-1.3
						c-0.2-0.2-0.5-0.8-0.5-1.6c-0.4,1.1-1.6,1.8-2.8,1.8C123.7,16.2,122.7,15.2,122.7,13.8z M128,12.1v-0.3l-2.4,0.4
						c-1.1,0.2-1.7,0.7-1.7,1.6s0.6,1.4,1.6,1.4C127.1,15.1,128,13.6,128,12.1z"/>
					<path d="M132.1,5.1h1.5v1.6h-1.5V5.1z M132.2,8.1h1.3V16h-1.3V8.1z"/>
					<path d="M136.3,8.1h1.3v1.4c0.4-0.9,1.2-1.6,2.3-1.6c0.3,0,0.4,0,0.7,0.1l-0.2,1.2c-0.2,0-0.4-0.1-0.6-0.1
						c-1.2,0-2.1,1.3-2.1,2.8V16h-1.3V8.1z"/>
					<path d="M147.3,8.1h1.3v1.2c0.5-0.8,1.4-1.5,2.4-1.5s1.9,0.5,2.2,1.5c0.5-0.9,1.5-1.5,2.5-1.5c1.5,0,2.4,0.9,2.4,2.4V16h-1.3
						v-5.4c0-1.1-0.5-1.6-1.5-1.6c-1,0-2,0.9-2,2.8V16H152v-5.4c0-1-0.5-1.7-1.5-1.7c-1,0-2,1-2,2.7V16h-1.3V8.1z"/>
					<path d="M160.3,12c0-2.5,1.8-4.2,4-4.2c2.3,0,3.8,1.6,3.8,4v0.4h-6.5c0.1,1.6,1.1,2.9,2.7,2.9c1.4,0,2.1-0.7,2.6-1.8l1,0.6
						c-0.7,1.5-1.9,2.3-3.6,2.3C162,16.2,160.3,14.5,160.3,12z M166.8,11.2c-0.1-1.5-1.2-2.3-2.5-2.3c-1.4,0-2.5,1-2.7,2.3H166.8z"
						/>
					<path d="M169.9,12c0-2.5,1.8-4.2,4-4.2c2.3,0,3.8,1.6,3.8,4v0.4h-6.5c0.1,1.6,1.1,2.9,2.7,2.9c1.4,0,2.1-0.7,2.6-1.8l1,0.6
						c-0.7,1.5-1.9,2.3-3.6,2.3C171.6,16.2,169.9,14.5,169.9,12z M176.4,11.2c-0.1-1.5-1.2-2.3-2.5-2.3c-1.4,0-2.5,1-2.7,2.3H176.4z
						"/>
					<path d="M180.4,14V9.1h-1.3v-1h1.3V5.9h1.3v2.1h1.9v1h-1.9v4.8c0,0.8,0.4,1.2,1.1,1.2c0.2,0,0.5,0,0.6-0.1l0.1,1.1
						c-0.3,0.1-0.6,0.2-1,0.2C181.4,16.2,180.4,15.6,180.4,14z"/>
					<path d="M185.7,5.1h1.5v1.6h-1.5V5.1z M185.8,8.1h1.3V16h-1.3V8.1z"/>
					<path d="M189.9,8.1h1.3v1.4c0.6-1,1.6-1.6,2.8-1.6c1.5,0,2.8,0.9,2.8,2.8V16h-1.3v-5.1c0-1.2-0.8-1.9-1.9-1.9
						c-1.2,0-2.3,1.1-2.3,2.7V16h-1.3V8.1z"/>
					<path d="M199.2,17.1c0-0.3,0.1-0.6,0.2-0.9l1.2,0.4c-0.1,0.2-0.1,0.4-0.1,0.6c0,0.8,0.8,1.2,2.2,1.2c1.6,0,2.5-0.9,2.5-2.8
						v-1.2c-0.5,0.9-1.4,1.5-2.7,1.5c-2.1,0-3.7-1.5-3.7-4c0-2.5,1.7-4,3.7-4c1.3,0,2.2,0.6,2.7,1.4V8.1h1.3v7.4c0,2.5-1.4,4-3.8,4
						C200.5,19.5,199.2,18.5,199.2,17.1z M205.3,11.9c0-1.8-1.1-2.9-2.6-2.9c-1.6,0-2.6,1.1-2.6,2.9s1,2.9,2.6,2.9
						C204.2,14.8,205.3,13.6,205.3,11.9z"/>
				</g>
			</g>
			<g class="st1">
				<g>
					<g>
						<path d="M17.3,20.8H19v4.7h5.3v-4.7H26V32h-1.7v-4.9H19V32h-1.7V20.8z"/>
					</g>
					<g>
						<path d="M28.1,29.8c0-1.6,1.3-2.4,2.8-2.6l2.5-0.4v-0.3c0-0.9-0.6-1.4-1.6-1.4c-1.1,0-1.7,0.5-1.7,1.1c0,0.1,0,0.1,0,0.2
							l-1.5,0.5c-0.1-0.2-0.1-0.4-0.1-0.7c0-1.2,1.2-2.4,3.2-2.4c2.1,0,3.3,1,3.3,2.8V30c0,0.9,0.1,1.4,0.5,2h-1.7
							c-0.2-0.2-0.4-0.7-0.4-1.4c-0.5,1-1.5,1.6-2.7,1.6C29.2,32.2,28.1,31.2,28.1,29.8z M33.4,28.2V28l-2.2,0.4
							c-1,0.2-1.5,0.6-1.5,1.3c0,0.7,0.6,1.2,1.4,1.2C32.5,30.8,33.4,29.7,33.4,28.2z"/>
					</g>
					<g>
						<path d="M37.7,24.1h1.7v1.3c0.5-0.8,1.6-1.5,2.8-1.5c2,0,3.7,1.6,3.7,4.2c0,2.5-1.7,4.2-3.8,4.2c-1.2,0-2.1-0.5-2.7-1.3v4.4
							h-1.7V24.1z M44.2,28c0-1.5-1-2.7-2.5-2.7c-1.4,0-2.5,1.2-2.5,2.7s1,2.7,2.5,2.7C43.1,30.7,44.2,29.6,44.2,28z"/>
					</g>
					<g>
						<path d="M48,24.1h1.7v1.3c0.5-0.8,1.6-1.5,2.8-1.5c2,0,3.7,1.6,3.7,4.2c0,2.5-1.7,4.2-3.8,4.2c-1.2,0-2.1-0.5-2.7-1.3v4.4H48
							V24.1z M54.5,28c0-1.5-1-2.7-2.5-2.7c-1.4,0-2.5,1.2-2.5,2.7s1,2.7,2.5,2.7C53.5,30.7,54.5,29.6,54.5,28z"/>
					</g>
					<g>
						<path d="M57.9,28c0-2.5,1.8-4.2,4.1-4.2c2.3,0,3.8,1.6,3.8,4v0.6h-6.3c0.1,1.4,1.1,2.4,2.4,2.4c1.2,0,1.9-0.6,2.4-1.6l1.2,0.7
							c-0.8,1.6-1.9,2.3-3.7,2.3C59.7,32.2,57.9,30.5,57.9,28z M64.2,27.1c-0.1-1.2-1.1-2-2.3-2c-1.2,0-2.1,0.8-2.4,2H64.2z"/>
					</g>
					<g>
						<path d="M68,24.1h1.7v1.3c0.6-1,1.6-1.6,2.7-1.6c1.6,0,2.8,1,2.8,2.8V32h-1.7v-4.8c0-1.2-0.6-1.8-1.8-1.8
							c-1.2,0-2.1,1-2.1,2.4V32H68V24.1z"/>
					</g>
					<g>
						<path d="M77.7,21h1.9v1.8h-1.9V21z M77.8,24.1h1.7V32h-1.7V24.1z"/>
					</g>
					<g>
						<path d="M82.1,24.1h1.7v1.3c0.6-1,1.6-1.6,2.7-1.6c1.6,0,2.8,1,2.8,2.8V32h-1.7v-4.8c0-1.2-0.6-1.8-1.8-1.8
							c-1.2,0-2.1,1-2.1,2.4V32h-1.7V24.1z"/>
					</g>
					<g>
						<path d="M91.6,32.9c0-0.3,0.1-0.7,0.2-0.9l1.6,0.5c-0.1,0.2-0.1,0.4-0.1,0.6c0,0.6,0.7,1.1,2,1.1c1.4,0,2.2-0.8,2.2-2.5v-1.1
							c-0.5,0.8-1.3,1.3-2.5,1.3c-2.1,0-3.8-1.6-3.8-4c0-2.4,1.8-4,3.8-4c1.1,0,2,0.5,2.4,1.2v-1h1.6v7.4c0,2.6-1.5,4-3.9,4
							C92.9,35.5,91.6,34.5,91.6,32.9z M97.6,27.9c0-1.6-1.1-2.6-2.4-2.6c-1.3,0-2.3,1-2.3,2.6c0,1.6,1,2.6,2.3,2.6
							C96.5,30.4,97.6,29.5,97.6,27.9z"/>
					</g>
					<g>
						<path d="M106.6,24.1h1.7v1.3c0.6-1,1.6-1.6,2.7-1.6c1.6,0,2.8,1,2.8,2.8V32h-1.7v-4.8c0-1.2-0.6-1.8-1.8-1.8
							c-1.2,0-2.1,1-2.1,2.4V32h-1.7V24.1z"/>
					</g>
					<g>
						<path d="M115.8,28c0-2.7,2.1-4.2,4.3-4.2c2.2,0,4.2,1.5,4.2,4.2s-2.1,4.2-4.2,4.2C117.9,32.2,115.8,30.8,115.8,28z M122.6,28
							c0-1.6-1.2-2.7-2.6-2.7c-1.4,0-2.6,1-2.6,2.7s1.2,2.7,2.6,2.7C121.4,30.7,122.6,29.7,122.6,28z"/>
					</g>
					<g>
						<path d="M125.2,24.1h1.6l1.5,5.9l1.6-5.9h1.6l1.6,5.9l1.5-5.9h1.6L134,32h-1.7l-1.6-6l-1.6,6h-1.7L125.2,24.1z"/>
					</g>
				</g>
			</g>
			<g class="st1">
				<path class="st10" d="M16.8,103.9c0-0.3,0.1-0.7,0.2-1l1.6,0.4c0,0.1-0.1,0.3-0.1,0.5c0,1.1,0.9,1.9,2.2,1.9
					c1.3,0,2.2-0.7,2.2-2c0-1.5-1.3-2-3-2v-1.3c1.7,0,2.5-0.8,2.5-1.8c0-0.9-0.7-1.5-1.8-1.5c-1.1,0-1.9,0.6-1.9,1.6
					c0,0.2,0,0.4,0.1,0.5l-1.6,0.3c-0.1-0.2-0.1-0.5-0.1-0.8c0-1.6,1.4-3,3.5-3c2.3,0,3.5,1.2,3.5,2.7c0,1.1-0.7,2.1-1.8,2.5
					c1.2,0.4,2.3,1.3,2.3,2.8c0,2.2-1.7,3.5-3.9,3.5C18.2,107.2,16.8,105.6,16.8,103.9z"/>
				<path class="st10" d="M31.5,103c0-2.5,1.8-4.2,3.9-4.2c1.2,0,2.2,0.5,2.6,1.4v-4.4h1.7V107H38v-1.3c-0.4,0.8-1.4,1.5-2.6,1.5
					C33.2,107.2,31.5,105.6,31.5,103z M38.1,103c0-1.6-1-2.7-2.5-2.7c-1.4,0-2.5,1.1-2.5,2.7s1,2.7,2.5,2.7
					C37.1,105.7,38.1,104.6,38.1,103z"/>
				<path class="st10" d="M41.8,103c0-2.7,2.1-4.2,4.3-4.2c2.2,0,4.2,1.5,4.2,4.2s-2.1,4.2-4.2,4.2C43.9,107.2,41.8,105.8,41.8,103z
					 M48.6,103c0-1.6-1.2-2.7-2.6-2.7c-1.4,0-2.6,1-2.6,2.7s1.2,2.7,2.6,2.7C47.4,105.7,48.6,104.7,48.6,103z"/>
				<path class="st10" d="M52,103c0-2.5,1.9-4.2,4.1-4.2c1.7,0,2.9,0.7,3.5,2l-1.4,0.8c-0.5-1-1.3-1.3-2.1-1.3c-1.4,0-2.4,1-2.4,2.7
					s1,2.7,2.4,2.7c1.1,0,1.7-0.5,2.2-1.3l1.3,0.8c-0.8,1.3-1.9,2.1-3.5,2.1C53.8,107.2,52,105.5,52,103z"/>
				<path class="st10" d="M61.2,104.9l1.3-0.8c0.4,1.1,1.1,1.8,2.2,1.8c0.8,0,1.5-0.4,1.5-1.1c0-0.7-0.6-1-1.9-1.2
					c-1.5-0.3-2.7-1-2.7-2.4c0-1.4,1.3-2.2,2.8-2.2c1.7,0,2.6,0.7,3.2,2l-1.2,0.7c-0.4-0.9-1.1-1.4-1.9-1.4c-0.8,0-1.4,0.3-1.4,0.9
					c0,0.6,0.7,1,2,1.3c1.8,0.4,2.6,1.1,2.6,2.4c0,1.4-1.1,2.6-3.1,2.6C62.8,107.2,61.7,106.1,61.2,104.9z"/>
				<path class="st10" d="M74.8,110.2l0.3-1.5c0.2,0.1,0.4,0.2,0.7,0.2c0.4,0,0.7-0.2,0.9-0.8l0.4-1l-3.3-8h1.9l2.3,5.7l2.2-5.7H82
					l-3.9,9.5c-0.5,1.3-1.2,1.8-2.4,1.8C75.4,110.4,75,110.3,74.8,110.2z"/>
				<path class="st10" d="M82.9,103c0-2.7,2.1-4.2,4.3-4.2c2.2,0,4.2,1.5,4.2,4.2s-2.1,4.2-4.2,4.2C85,107.2,82.9,105.8,82.9,103z
					 M89.7,103c0-1.6-1.2-2.7-2.6-2.7c-1.4,0-2.6,1-2.6,2.7s1.2,2.7,2.6,2.7C88.6,105.7,89.7,104.7,89.7,103z"/>
				<path class="st10" d="M93.5,104.1v-5.1h1.7v4.7c0,1.2,0.6,1.9,1.8,1.9c1.2,0,2.1-1,2.1-2.5v-4.2h1.6v7.9H99v-1.3
					c-0.5,1-1.5,1.5-2.6,1.5C94.8,107.2,93.5,106.2,93.5,104.1z"/>
				<path class="st10" d="M108.2,99.1h1.7v1.2c0.5-0.9,1.4-1.4,2.3-1.4c1.1,0,1.9,0.5,2.2,1.4c0.5-0.9,1.5-1.4,2.5-1.4
					c1.6,0,2.5,1,2.5,2.5v5.7h-1.6v-5.2c0-1-0.4-1.6-1.4-1.6c-1,0-1.7,0.8-1.7,2.4v4.3H113v-5.1c0-1-0.4-1.6-1.4-1.6
					c-0.9,0-1.7,0.8-1.7,2.3v4.4h-1.7V99.1z"/>
				<path class="st10" d="M121.6,104.8c0-1.6,1.3-2.4,2.8-2.6l2.5-0.4v-0.3c0-0.9-0.6-1.4-1.6-1.4c-1.1,0-1.7,0.5-1.7,1.1
					c0,0.1,0,0.1,0,0.2l-1.5,0.5c-0.1-0.2-0.1-0.4-0.1-0.7c0-1.2,1.2-2.4,3.2-2.4c2.1,0,3.3,1,3.3,2.8v3.4c0,0.9,0.1,1.4,0.5,2h-1.7
					c-0.2-0.2-0.4-0.7-0.4-1.4c-0.5,1-1.5,1.6-2.7,1.6C122.7,107.2,121.6,106.2,121.6,104.8z M126.9,103.2V103l-2.2,0.4
					c-1,0.2-1.5,0.6-1.5,1.3c0,0.7,0.6,1.2,1.4,1.2C126,105.8,126.9,104.7,126.9,103.2z"/>
				<path class="st10" d="M131.3,110.2l0.3-1.5c0.2,0.1,0.4,0.2,0.7,0.2c0.4,0,0.7-0.2,0.9-0.8l0.4-1l-3.3-8h1.9l2.3,5.7l2.2-5.7
					h1.9l-3.9,9.5c-0.5,1.3-1.2,1.8-2.4,1.8C131.9,110.4,131.6,110.3,131.3,110.2z"/>
				<path class="st10" d="M145.1,99.1h1.7v1.3c0.6-1,1.6-1.6,2.7-1.6c1.6,0,2.8,1,2.8,2.8v5.4h-1.7v-4.8c0-1.2-0.6-1.8-1.8-1.8
					c-1.2,0-2.1,1-2.1,2.4v4.2h-1.7V99.1z"/>
				<path class="st10" d="M154.3,103c0-2.5,1.8-4.2,4.1-4.2c2.3,0,3.8,1.6,3.8,4v0.6h-6.3c0.1,1.4,1.1,2.4,2.4,2.4
					c1.2,0,1.9-0.6,2.4-1.6l1.2,0.7c-0.8,1.6-1.9,2.3-3.7,2.3C156.1,107.2,154.3,105.5,154.3,103z M160.7,102.1
					c-0.1-1.2-1.1-2-2.3-2c-1.2,0-2.1,0.8-2.4,2H160.7z"/>
				<path class="st10" d="M163.9,103c0-2.5,1.8-4.2,4.1-4.2c2.3,0,3.8,1.6,3.8,4v0.6h-6.3c0.1,1.4,1.1,2.4,2.4,2.4
					c1.2,0,1.9-0.6,2.4-1.6l1.2,0.7c-0.8,1.6-1.9,2.3-3.7,2.3C165.8,107.2,163.9,105.5,163.9,103z M170.3,102.1
					c-0.1-1.2-1.1-2-2.3-2c-1.2,0-2.1,0.8-2.4,2H170.3z"/>
				<path class="st10" d="M173.6,103c0-2.5,1.8-4.2,3.9-4.2c1.2,0,2.2,0.5,2.6,1.4v-4.4h1.7V107h-1.7v-1.3c-0.4,0.8-1.4,1.5-2.6,1.5
					C175.3,107.2,173.6,105.6,173.6,103z M180.2,103c0-1.6-1-2.7-2.5-2.7c-1.4,0-2.5,1.1-2.5,2.7s1,2.7,2.5,2.7
					C179.2,105.7,180.2,104.6,180.2,103z"/>
			</g>
			<g id="kelp-_x2F_-button_x2F_-outlined-_x2F_-text-only" transform="translate(16.000000, 130.000000)">
				<g id="_x21B3_-_xD83C__xDFA8_-Color" class="st8">
					<g>
						<path d="M145,36H18C8.1,36,0,27.9,0,18S8.1,0,18,0h127c9.9,0,18,8.1,18,18S154.9,36,145,36z M18,1C8.6,1,1,8.6,1,18
							s7.6,17,17,17h127c9.4,0,17-7.6,17-17s-7.6-17-17-17H18z"/>
					</g>
				</g>
				<g id="_x21B3_-_xD83D__xDCA1_States">
				</g>
				<defs>
					<filter id="Adobe_OpacityMaskFilter" filterUnits="userSpaceOnUse" x="19.5" y="13" width="121.3" height="10.2">
						<feColorMatrix  type="matrix" values="1 0 0 0 0  0 1 0 0 0  0 0 1 0 0  0 0 0 1 0"/>
					</filter>
				</defs>
				<mask maskUnits="userSpaceOnUse" x="19.5" y="13" width="121.3" height="10.2" id="mask-2_1_">
					<g class="st11">
						<path id="path-1_1_" class="st0" d="M18,0h127c9.9,0,18,8.1,18,18l0,0c0,9.9-8.1,18-18,18H18C8.1,36,0,27.9,0,18l0,0
							C0,8.1,8.1,0,18,0z"/>
					</g>
				</mask>
				<g class="st12">
					<g>
						<path class="st5" d="M22.1,18.5h-2.6v-1.2h2.6v-2.6h1.2v2.6h2.6v1.2h-2.6v2.6h-1.2V18.5z"/>
					</g>
					<g>
						<path class="st5" d="M33.5,20.1l1.3-0.7c0.3,1.5,1.1,2.5,2.7,2.5c1.3,0,2.1-0.7,2.1-1.6c0-1-0.9-1.5-2.5-1.8
							c-1.8-0.4-3.1-1.2-3.1-2.9c0-1.6,1.4-2.6,3.3-2.6c1.8,0,3.1,0.9,3.7,2.5l-1.2,0.7c-0.4-1.2-1.3-1.8-2.5-1.8
							c-1,0-1.9,0.4-1.9,1.3c0,0.9,0.9,1.4,2.5,1.7c2.1,0.4,3.2,1.3,3.2,2.9c0,1.6-1.4,3-3.6,3C35.2,23.2,33.9,21.9,33.5,20.1z"/>
					</g>
					<g>
						<path class="st5" d="M44.1,13.2h1.6l3.3,8.3l3.3-8.3h1.6V23h-1.5v-6.8c-0.1,0.5-0.3,1.1-0.5,1.5L49.8,23h-1.5L46,17.7
							c-0.1-0.3-0.4-1-0.5-1.5V23h-1.5V13.2z"/>
					</g>
					<g>
						<path class="st5" d="M60.1,13.2h1.5l4,9.8h-1.6l-1.1-2.7h-4L57.8,23h-1.6L60.1,13.2z M62.4,18.9l-1.2-3.1
							c0-0.1-0.2-0.5-0.3-0.9c-0.1,0.4-0.3,0.8-0.3,0.9l-1.2,3.1H62.4z"/>
					</g>
					<g>
						<path class="st5" d="M67.7,13.2h4c2.1,0,3.3,1.1,3.3,2.8c0,1.5-0.9,2.4-2.3,2.8l2.4,4.2h-1.7l-2.3-4.1h-1.9V23h-1.5V13.2z
							 M71.7,17.6c1.2,0,1.9-0.5,1.9-1.5c0-1-0.6-1.5-1.9-1.5h-2.5v3H71.7z"/>
					</g>
					<g>
						<path class="st5" d="M80.1,14.6h-3v-1.4h7.5v1.4h-3V23h-1.5V14.6z"/>
					</g>
					<g>
						<path class="st5" d="M92.3,13.2h1.5l4.4,6.8c0,0,0.3,0.6,0.4,0.8v-7.6h1.5V23h-1.6l-4.4-6.8c0,0-0.3-0.6-0.4-0.8V23h-1.5V13.2
							z"/>
					</g>
					<g>
						<path class="st5" d="M103,18.1c0-3,2.1-5.1,4.9-5.1s4.9,2.1,4.9,5.1c0,3-2.1,5.1-4.9,5.1S103,21.1,103,18.1z M111.3,18.1
							c0-2.3-1.4-3.7-3.4-3.7c-1.9,0-3.4,1.4-3.4,3.7s1.4,3.7,3.4,3.7C109.8,21.8,111.3,20.4,111.3,18.1z"/>
					</g>
					<g>
						<path class="st5" d="M117.3,14.6h-3v-1.4h7.5v1.4h-3V23h-1.5V14.6z"/>
					</g>
					<g>
						<path class="st5" d="M124.4,13.2h6.4v1.3h-4.9v2.7h4.5v1.3h-4.5v3.1h5V23h-6.5V13.2z"/>
					</g>
					<g>
						<path class="st5" d="M133.2,20.1l1.3-0.7c0.3,1.5,1.1,2.5,2.7,2.5c1.3,0,2.1-0.7,2.1-1.6c0-1-0.9-1.5-2.5-1.8
							c-1.8-0.4-3.1-1.2-3.1-2.9c0-1.6,1.4-2.6,3.3-2.6c1.8,0,3.1,0.9,3.7,2.5l-1.2,0.7c-0.4-1.2-1.3-1.8-2.5-1.8
							c-1,0-1.9,0.4-1.9,1.3c0,0.9,0.9,1.4,2.5,1.7c2.1,0.4,3.2,1.3,3.2,2.9c0,1.6-1.4,3-3.6,3C134.8,23.2,133.5,21.9,133.2,20.1z"
							/>
					</g>
				</g>
			</g>
			<g id="Group_4_" transform="translate(287.000000, 126.000000)">
				<g id="_x21B3_-_xD83C__xDFA8_-Color_1_">
					<path class="st6" d="M20,0L20,0c11,0,20,9,20,20l0,0c0,11-9,20-20,20l0,0C9,40,0,31,0,20l0,0C0,9,9,0,20,0z"/>
				</g>
				<g id="_x21B3_-_xD83D__xDCA1_States_1_">
				</g>
				<defs>
					<filter id="Adobe_OpacityMaskFilter_1_" filterUnits="userSpaceOnUse" x="11" y="14.2" width="18" height="12">
						<feColorMatrix  type="matrix" values="1 0 0 0 0  0 1 0 0 0  0 0 1 0 0  0 0 0 1 0"/>
					</filter>
				</defs>
				<mask maskUnits="userSpaceOnUse" x="11" y="14.2" width="18" height="12" id="mask-4_1_">
					<g class="st13">
						<path id="path-3_1_" class="st0" d="M20,0L20,0c11,0,20,9,20,20l0,0c0,11-9,20-20,20l0,0C9,40,0,31,0,20l0,0C0,9,9,0,20,0z"/>
					</g>
				</mask>
				<g id="kelp-_x2F_-icons-_x2F_-join" class="st14">
					<g id="noun_Video-Camera_2863059" transform="translate(8.000000, 8.190000)">
						<g transform="translate(3.000000, 6.000000)">
							<g id="Shape">
								<path class="st15" d="M16.8,1.6c0.5-0.4,1.2,0,1.2,0.6v7.5c0,0.6-0.7,1-1.2,0.6l-5.2-3.8c-0.4-0.3-0.4-0.9,0-1.2L16.8,1.6z
									 M16.5,3.7L13.3,6l3.2,2.3V3.7z"/>
							</g>
							<g id="Shape_1_">
								<path class="st15" d="M2.2,1.5c-0.4,0-0.8,0.3-0.8,0.8v7.5c0,0.4,0.3,0.8,0.8,0.8h8.2c0.4,0,0.8-0.3,0.8-0.8V2.2
									c0-0.4-0.3-0.8-0.8-0.8H2.2z M2.2,0h8.2c1.2,0,2.2,1,2.2,2.2v7.5c0,1.2-1,2.2-2.2,2.2H2.2C1,12,0,11,0,9.8V2.2
									C0,1,1,0,2.2,0z"/>
							</g>
						</g>
					</g>
				</g>
			</g>
		</g>
		<g id="kelp-_x2F_-date-picker-_x28_linear_x29_" transform="translate(0.000000, 65.000000)">
			<g id="background">
				<rect class="st0" width="375" height="121"/>
			</g>
			<g id="Group_5_" transform="translate(0.000000, 121.000000)" class="st8">
				<g id="Divider_x2F__x5F_Light-Copy">
					<g id="_x2796_Divider_3_">
						<rect class="st4" width="375" height="1"/>
					</g>
				</g>
			</g>
			<g id="Group_6_" transform="translate(91.525362, 68.000000)" class="st16">
				<g id="kelp-_x2F_-jumping-date-unit-_x2F_-active">
					<g class="st1">
						<g>
							<g>
								<path d="M9.1,16.6c-0.5,0.6-1.2,0.8-2.4,0.8v-1.2c1.3,0,2-0.4,2.5-1.4h1.2V26H9.1V16.6z"/>
							</g>
							<g>
								<path d="M13,23.1c0-0.3,0-0.6,0.1-0.8l1.2,0.3c0,0.1-0.1,0.3-0.1,0.5c0,1.3,1,2,2.4,2c1.6,0,2.7-1.1,2.7-2.8
									c0-1.7-1-2.8-2.6-2.8c-1.2,0-2.2,0.8-2.7,1.7l-1.1-0.3l0.6-6.1h6.5V16h-5.4l-0.4,3.8c0.7-1,1.8-1.4,2.8-1.4
									c2.4,0,3.7,1.6,3.7,3.9c0,2.3-1.6,4-4,4C14.4,26.2,13,24.7,13,23.1z"/>
							</g>
						</g>
					</g>
					<g class="st1">
						<g>
							<g>
								<path d="M3.9,0.7h0.8L7,6.3l2.3-5.6h0.8V7H9.4V2.1C9.3,2.4,9.1,2.9,9,3L7.4,7H6.6L5,3c0-0.1-0.3-0.7-0.3-0.9V7H3.9V0.7z"/>
							</g>
							<g>
								<path d="M11.5,3.8c0-2,1.3-3.3,3.1-3.3c1.7,0,3.1,1.3,3.1,3.3c0,2-1.3,3.3-3.1,3.3C12.8,7.1,11.5,5.8,11.5,3.8z M16.8,3.8
									c0-1.6-1-2.6-2.3-2.6c-1.3,0-2.3,1-2.3,2.6c0,1.6,1,2.6,2.3,2.6C15.8,6.5,16.8,5.4,16.8,3.8z"/>
							</g>
							<g>
								<path d="M19,0.7h0.8l3,4.7c0,0,0.2,0.4,0.3,0.5V0.7h0.7V7H23l-3-4.7c0,0-0.2-0.4-0.3-0.5V7H19V0.7z"/>
							</g>
						</g>
					</g>
				</g>
			</g>
			<g id="Group_7_" transform="translate(50.538043, 68.000000)" class="st16">
				<g id="kelp-_x2F_-jumping-date-unit-_x2F_-past">
					<g class="st1">
						<g>
							<g>
								<path d="M9.1,16.6c-0.5,0.6-1.2,0.8-2.4,0.8v-1.2c1.3,0,2-0.4,2.5-1.4h1.2V26H9.1V16.6z"/>
							</g>
							<g>
								<path d="M18.4,23.8H13v-1.2l5.4-7.8h1.3v7.8H21v1.2h-1.2V26h-1.3V23.8z M18.4,22.6v-5.8l-4,5.8H18.4z"/>
							</g>
						</g>
					</g>
					<g class="st1">
						<g>
							<g>
								<path d="M5,5.2l0.7-0.4c0.2,1,0.8,1.6,1.8,1.6c1,0,1.5-0.6,1.5-1.2c0-0.7-0.6-1.1-1.7-1.3C6.2,3.8,5.3,3.3,5.3,2.2
									c0-1,0.9-1.6,2.1-1.6c1.1,0,2,0.6,2.3,1.5L9.1,2.5C8.8,1.7,8.2,1.2,7.4,1.2c-0.8,0-1.4,0.4-1.4,1c0,0.7,0.6,1,1.7,1.2
									c1.3,0.3,2,0.8,2,1.8c0,1.1-0.9,1.9-2.3,1.9C6.1,7.1,5.3,6.3,5,5.2z"/>
							</g>
							<g>
								<path d="M11.2,4.8V0.7H12v4.1c0,1.1,0.7,1.7,1.6,1.7c1,0,1.6-0.6,1.6-1.7V0.7H16v4.1c0,1.5-1,2.3-2.4,2.3
									C12.2,7.1,11.2,6.3,11.2,4.8z"/>
							</g>
							<g>
								<path d="M17.6,0.7h0.8l3,4.7c0,0,0.2,0.4,0.3,0.5V0.7h0.7V7h-0.8l-3-4.7c0,0-0.2-0.4-0.3-0.5V7h-0.7V0.7z"/>
							</g>
						</g>
					</g>
				</g>
			</g>
			<g id="Group_8_" transform="translate(132.512681, 68.000000)" class="st16">
				<g id="kelp-_x2F_-jumping-date-unit-_x2F_-upcoming">
					<g class="st1">
						<g>
							<g>
								<path d="M9,16.6c-0.5,0.6-1.2,0.8-2.4,0.8v-1.2c1.3,0,2-0.4,2.5-1.4h1.2V26H9V16.6z"/>
							</g>
							<g>
								<path d="M12.9,21.1c0-1.5,0.3-2.7,0.7-3.7c0.7-1.8,2.1-2.8,3.7-2.8c2,0,3.3,1.1,3.3,2.7c0,0.3,0,0.6-0.2,0.8l-1.2-0.3
									c0.1-0.2,0.1-0.4,0.1-0.6c0-0.9-0.7-1.5-2-1.5c-1.8,0-3,2-3.1,4.7c0.6-1.1,1.8-1.7,3-1.7c2.1,0,3.7,1.6,3.7,3.7
									c0,2.1-1.6,3.8-4,3.8C14.5,26.2,12.9,24.3,12.9,21.1z M19.6,22.4c0-1.7-1.2-2.6-2.6-2.6c-1.4,0-2.7,1-2.7,2.6
									c0,1.7,1.2,2.6,2.7,2.6C18.4,25.1,19.6,24.1,19.6,22.4z"/>
							</g>
						</g>
					</g>
					<g class="st1">
						<g>
							<g>
								<path d="M7.6,1.4H5.6V0.7h4.6v0.7H8.3V7H7.6V1.4z"/>
							</g>
							<g>
								<path d="M11.4,4.8V0.7h0.8v4.1c0,1.1,0.7,1.7,1.6,1.7c1,0,1.6-0.6,1.6-1.7V0.7h0.8v4.1c0,1.5-1,2.3-2.4,2.3
									C12.3,7.1,11.4,6.3,11.4,4.8z"/>
							</g>
							<g>
								<path d="M17.7,0.7h3.9v0.7h-3.2v2h2.9v0.7h-2.9v2.3h3.2V7h-4V0.7z"/>
							</g>
						</g>
					</g>
				</g>
			</g>
			<g id="Group_9_" transform="translate(173.500000, 68.000000)" class="st16">
				<g id="kelp-_x2F_-jumping-date-unit-_x2F_-upcoming_1_">
					<g class="st1">
						<g>
							<g>
								<path d="M9.5,16.6c-0.5,0.6-1.2,0.8-2.4,0.8v-1.2c1.3,0,2-0.4,2.5-1.4h1.2V26H9.5V16.6z"/>
							</g>
							<g>
								<path d="M19.2,16h-5.9v-1.2h7.3v1.1L16,26h-1.3L19.2,16z"/>
							</g>
						</g>
					</g>
					<g class="st1">
						<g>
							<g>
								<path d="M4,0.7h0.8L6,5.4c0,0,0.1,0.5,0.2,0.7c0-0.2,0.2-0.7,0.2-0.7l1.2-4.7h0.8l1.2,4.7c0,0,0.1,0.5,0.2,0.7
									c0-0.2,0.2-0.7,0.2-0.7l1.3-4.7h0.8L10.1,7H9.3L7.9,1.7L6.5,7H5.7L4,0.7z"/>
							</g>
							<g>
								<path d="M13,0.7h3.9v0.7h-3.2v2h2.9v0.7h-2.9v2.3h3.2V7h-4V0.7z"/>
							</g>
							<g>
								<path d="M18.4,0.7h1.7c1.9,0,3.2,1.2,3.2,3.2c0,2-1.3,3.2-3.2,3.2h-1.7V0.7z M20.1,6.3c1.5,0,2.5-0.8,2.5-2.5
									c0-1.7-1-2.5-2.5-2.5h-1v5H20.1z"/>
							</g>
						</g>
					</g>
				</g>
			</g>
			<g id="kelp-_x2F_-jumping-date-unit-_x2F_-upcoming_2_" transform="translate(214.487319, 68.000000)">
				<g class="st1">
					<path class="st5" d="M9.3,16.6c-0.5,0.6-1.2,0.8-2.4,0.8v-1.2c1.3,0,2-0.4,2.5-1.4h1.2V26H9.3V16.6z"/>
					<path class="st5" d="M13.1,22.9c0-1.4,0.8-2.4,1.9-2.9c-1-0.5-1.6-1.5-1.6-2.5c0-1.7,1.5-2.9,3.4-2.9s3.4,1.2,3.4,2.9
						c0,1.1-0.6,2-1.6,2.5c1.1,0.5,1.9,1.5,1.9,2.9c0,2-1.6,3.3-3.7,3.3C14.6,26.2,13.1,24.9,13.1,22.9z M19.3,22.8
						c0-1.3-1.1-2.2-2.4-2.2c-1.3,0-2.4,0.9-2.4,2.2s1,2.2,2.4,2.2S19.3,24.2,19.3,22.8z M18.9,17.6c0-1.2-1-1.9-2.1-1.9
						s-2.1,0.7-2.1,1.9s0.9,2,2.1,2S18.9,18.8,18.9,17.6z"/>
				</g>
				<g class="st1">
					<g>
						<g>
							<path d="M7.1,1.4H5.2V0.7h4.6v0.7H7.9V7H7.1V1.4z"/>
						</g>
						<g>
							<path d="M11,0.7h0.8v2.7H15V0.7h0.8V7H15V4.1h-3.2V7H11V0.7z"/>
						</g>
						<g>
							<path d="M17.3,4.8V0.7h0.8v4.1c0,1.1,0.7,1.7,1.6,1.7c1,0,1.6-0.6,1.6-1.7V0.7H22v4.1c0,1.5-1,2.3-2.4,2.3
								C18.3,7.1,17.3,6.3,17.3,4.8z"/>
						</g>
					</g>
				</g>
				<g id="Oval_4_">
					<circle class="st6" cx="14" cy="35" r="2"/>
				</g>
			</g>
			<g id="Group_10_" transform="translate(255.474638, 68.000000)">
				<g id="kelp-_x2F_-jumping-date-unit-_x2F_-upcoming_3_">
					<g class="st1">
						<path d="M9,16.6c-0.5,0.6-1.2,0.8-2.4,0.8v-1.2c1.3,0,2-0.4,2.5-1.4h1.2V26H9V16.6z"/>
						<path d="M13.3,23.6c0-0.3,0-0.6,0.1-0.8l1.3,0.3c-0.1,0.2-0.1,0.4-0.1,0.6c0,0.9,0.7,1.5,2,1.5c1.8,0,2.9-1.8,3.1-4.7
							c-0.5,1.1-1.6,1.7-2.9,1.7c-2.2,0-3.8-1.6-3.8-3.7c0-2.1,1.6-3.8,4-3.8c2.7,0,4.1,1.9,4.1,5.2c0,1.5-0.3,2.7-0.7,3.7
							c-0.7,1.8-2.1,2.8-3.7,2.8C14.5,26.2,13.3,25.1,13.3,23.6z M19.4,18.3c0-1.7-1.2-2.6-2.7-2.6c-1.4,0-2.6,1-2.6,2.6
							c0,1.7,1.2,2.6,2.6,2.6C18.2,21,19.4,20,19.4,18.3z"/>
					</g>
					<g class="st1">
						<g>
							<g>
								<path d="M7.8,0.7h4.1v0.7H8.6v2.2h3v0.7h-3V7H7.8V0.7z"/>
							</g>
							<g>
								<path d="M13.2,0.7h2.5c1.3,0,2,0.7,2,1.8c0,0.9-0.6,1.5-1.5,1.8L17.8,7H17l-1.5-2.7H14V7h-0.8V0.7z M15.7,3.6
									c0.9,0,1.4-0.4,1.4-1.1c0-0.8-0.5-1.1-1.4-1.1H14v2.3H15.7z"/>
							</g>
							<g>
								<path d="M19.1,0.7h0.8V7h-0.8V0.7z"/>
							</g>
						</g>
					</g>
				</g>
			</g>
			<g id="Group_11_" transform="translate(296.461957, 68.000000)">
				<g id="kelp-_x2F_-jumping-date-unit-_x2F_-upcoming_4_">
					<g class="st1">
						<path d="M4.4,25.1l4.3-4.3c1.1-1.1,1.6-1.9,1.6-3c0-1.3-0.9-2.1-2.3-2.1c-1.3,0-2.3,0.8-2.3,2.2c0,0.3,0.1,0.5,0.1,0.7
							l-1.3,0.2c-0.1-0.4-0.2-0.7-0.2-1.1c0-1.7,1.3-3.2,3.6-3.2c2.3,0,3.6,1.3,3.6,3.1c0,1.3-0.5,2.4-2,3.9l-3.1,3.1h5.2V26H4.4
							V25.1z"/>
						<path d="M13.4,20.4c0-3.5,2-5.8,4.9-5.8c2.8,0,4.9,2.3,4.9,5.8c0,3.5-2,5.8-4.9,5.8C15.4,26.2,13.4,23.9,13.4,20.4z
							 M21.8,20.4c0-2.9-1.5-4.6-3.6-4.6s-3.6,1.7-3.6,4.6c0,2.9,1.5,4.6,3.6,4.6S21.8,23.3,21.8,20.4z"/>
					</g>
					<g class="st1">
						<g>
							<g>
								<path d="M6,5.2l0.7-0.4c0.2,1,0.8,1.6,1.8,1.6c1,0,1.5-0.6,1.5-1.2C10,4.6,9.4,4.2,8.3,4C7.1,3.8,6.3,3.3,6.3,2.2
									c0-1,0.9-1.6,2.1-1.6c1.1,0,2,0.6,2.3,1.5l-0.6,0.4C9.8,1.7,9.2,1.2,8.4,1.2C7.6,1.2,7,1.6,7,2.2c0,0.7,0.6,1,1.7,1.2
									c1.3,0.3,2,0.8,2,1.8c0,1.1-0.9,1.9-2.3,1.9C7.1,7.1,6.2,6.3,6,5.2z"/>
							</g>
							<g>
								<path d="M14.2,0.7H15L17.5,7h-0.8L16,5.1h-2.8L12.5,7h-0.8L14.2,0.7z M15.7,4.5l-1-2.5c-0.1-0.1-0.1-0.4-0.2-0.5
									c0,0.1-0.1,0.3-0.2,0.5l-1,2.5H15.7z"/>
							</g>
							<g>
								<path d="M19.3,1.4h-1.9V0.7H22v0.7h-1.9V7h-0.8V1.4z"/>
							</g>
						</g>
					</g>
				</g>
			</g>
			<g id="Group_12_" transform="translate(16.000000, 75.000000)" class="st16">
				<g id="keyboard_arrow_left-24px">
					<g id="Path">
						<polygon class="st2" points="0,0 24,0 24,24 0,24 						"/>
					</g>
					<g id="Path_1_">
						<polygon points="15.4,16.6 10.8,12 15.4,7.4 14,6 8,12 14,18 						"/>
					</g>
				</g>
			</g>
			<g id="Group_13_" transform="translate(335.000000, 75.000000)" class="st16">
				
					<g id="keyboard_arrow_left-24px_1_" transform="translate(12.000000, 12.000000) rotate(-180.000000) translate(-12.000000, -12.000000) ">
					<g id="Path_2_">
						<polygon class="st2" points="0,0 24,0 24,24 0,24 						"/>
					</g>
					<g id="Path_3_">
						<polygon points="15.4,16.6 10.8,12 15.4,7.4 14,6 8,12 14,18 						"/>
					</g>
				</g>
			</g>
			<g id="Group_14_" transform="translate(275.000000, 16.000000)">
				<g id="_x21B3_-_xD83C__xDFA8_-Color_2_" class="st8">
					<g>
						<path d="M65,36H18C8.1,36,0,27.9,0,18S8.1,0,18,0h47c9.9,0,18,8.1,18,18S74.9,36,65,36z M18,1C8.6,1,1,8.6,1,18s7.6,17,17,17
							h47c9.4,0,17-7.6,17-17S74.4,1,65,1H18z"/>
					</g>
				</g>
				<g id="_x21B3_-_xD83D__xDCA1_States_2_">
				</g>
				<defs>
					<filter id="Adobe_OpacityMaskFilter_2_" filterUnits="userSpaceOnUse" x="16.2" y="13" width="48.6" height="10.2">
						<feColorMatrix  type="matrix" values="1 0 0 0 0  0 1 0 0 0  0 0 1 0 0  0 0 0 1 0"/>
					</filter>
				</defs>
				<mask maskUnits="userSpaceOnUse" x="16.2" y="13" width="48.6" height="10.2" id="mask-6_1_">
					<g class="st17">
						<path id="path-5_1_" class="st0" d="M18,0h47c9.9,0,18,8.1,18,18l0,0c0,9.9-8.1,18-18,18H18C8.1,36,0,27.9,0,18l0,0
							C0,8.1,8.1,0,18,0z"/>
					</g>
				</mask>
				<g class="st18">
					<g>
						<path class="st5" d="M19.2,14.6h-3v-1.4h7.5v1.4h-3V23h-1.5V14.6z"/>
					</g>
					<g>
						<path class="st5" d="M25.3,18.1c0-3,2.1-5.1,4.9-5.1c2.8,0,4.9,2.1,4.9,5.1c0,3-2.1,5.1-4.9,5.1
							C27.4,23.2,25.3,21.1,25.3,18.1z M33.5,18.1c0-2.3-1.4-3.7-3.4-3.7c-1.9,0-3.4,1.4-3.4,3.7s1.4,3.7,3.4,3.7
							C32.1,21.8,33.5,20.4,33.5,18.1z"/>
					</g>
					<g>
						<path class="st5" d="M37.9,13.2h2.8c3,0,5.2,1.7,5.2,4.9c0,3.2-2.2,4.9-5.2,4.9h-2.8V13.2z M40.8,21.6c2.1,0,3.6-1.1,3.6-3.5
							s-1.5-3.5-3.6-3.5h-1.3v7H40.8z"/>
					</g>
					<g>
						<path class="st5" d="M51.3,13.2h1.5l3.9,9.8h-1.6L54,20.3h-4L48.9,23h-1.6L51.3,13.2z M53.5,18.9l-1.2-3.1
							c0-0.1-0.2-0.5-0.3-0.9c-0.1,0.4-0.3,0.8-0.3,0.9l-1.2,3.1H53.5z"/>
					</g>
					<g>
						<path class="st5" d="M60.1,19.1l-3.2-5.9h1.7l2,3.8c0.1,0.2,0.2,0.4,0.3,0.7c0.1-0.3,0.2-0.5,0.3-0.7l2-3.8h1.7l-3.2,5.9V23
							h-1.5V19.1z"/>
					</g>
				</g>
			</g>
			<g id="Month-picker" transform="translate(16.000000, 22.000000)">
				<g class="st1">
					<path d="M1.3,5.8h1.8l3.8,9.4l3.8-9.4h1.8V17h-1.7V9.3c-0.1,0.6-0.4,1.3-0.5,1.7L7.8,17H6.1l-2.6-6.1c-0.2-0.4-0.4-1.1-0.6-1.7
						V17H1.3V5.8z"/>
					<path d="M18.7,5.8h1.7L24.9,17H23l-1.2-3.1h-4.6L16,17h-1.8L18.7,5.8z M21.2,12.4l-1.4-3.5c0-0.1-0.2-0.6-0.4-1
						c-0.1,0.4-0.3,0.9-0.4,1l-1.4,3.5H21.2z"/>
					<path d="M26.5,5.8h4.6c2.4,0,3.8,1.3,3.8,3.2c0,1.7-1,2.7-2.6,3.2L35,17h-2l-2.7-4.7h-2.2V17h-1.7V5.8z M31,10.8
						c1.4,0,2.1-0.6,2.1-1.7c0-1.1-0.7-1.7-2.1-1.7h-2.8v3.5H31z"/>
					<path d="M41.8,15.8l4.3-4.2c1-1,1.4-1.7,1.4-2.6c0-1.1-0.8-1.8-2-1.8c-1.2,0-2,0.7-2,1.9c0,0.3,0,0.5,0.1,0.8L42,10
						c-0.1-0.4-0.2-0.8-0.2-1.2c0-1.7,1.4-3.3,3.7-3.3c2.4,0,3.7,1.4,3.7,3.2c0,1.4-0.5,2.4-2,3.9l-2.8,2.8h4.8V17h-7.4V15.8z"/>
					<path d="M50.9,11.4c0-3.5,2.1-5.8,5-5.8c2.9,0,5,2.3,5,5.8c0,3.5-2.1,5.8-5,5.8C53,17.2,50.9,14.9,50.9,11.4z M59.1,11.4
						c0-2.7-1.4-4.2-3.2-4.2c-1.9,0-3.2,1.6-3.2,4.2s1.4,4.2,3.2,4.2C57.7,15.6,59.1,14.1,59.1,11.4z"/>
					<path d="M62.6,15.8l4.3-4.2c1-1,1.4-1.7,1.4-2.6c0-1.1-0.8-1.8-2-1.8c-1.2,0-2,0.7-2,1.9c0,0.3,0,0.5,0.1,0.8L62.8,10
						c-0.1-0.4-0.2-0.8-0.2-1.2c0-1.7,1.4-3.3,3.7-3.3c2.4,0,3.7,1.4,3.7,3.2c0,1.4-0.5,2.4-2,3.9l-2.8,2.8h4.8V17h-7.4V15.8z"/>
					<path d="M74.8,8c-0.6,0.6-1.3,0.8-2.4,0.8V7.2c1.3,0,2-0.5,2.5-1.4h1.6V17h-1.7V8z"/>
				</g>
				<g id="Group_15_" transform="translate(80.000000, 0.000000)" class="st16">
					
						<g id="keyboard_arrow_left-24px_2_" transform="translate(12.000000, 12.000000) rotate(-90.000000) translate(-12.000000, -12.000000) ">
						<g id="Path_4_">
							<polygon class="st2" points="0,0 24,0 24,24 0,24 							"/>
						</g>
						<g id="Path_5_">
							<polygon points="15.4,16.6 10.8,12 15.4,7.4 14,6 8,12 14,18 							"/>
						</g>
					</g>
				</g>
			</g>
		</g>
		<g id="kelp-_x2F_-top-nav">
			<g id="Main-nav">
				<rect class="st0" width="375" height="64"/>
			</g>
			<g id="Group-14" transform="translate(23.000000, 15.000000)">
				<g id="Fill-1">
					<path class="st4" d="M1.9,15.5c0-0.6,0.5-1,1-1s1,0.5,1,1s-0.5,1-1,1S1.9,16.1,1.9,15.5 M5.8,15.5c0-1.6-1.3-2.9-2.9-2.9
						S0,13.9,0,15.5c0,1.6,1.3,2.9,2.9,2.9S5.8,17.1,5.8,15.5"/>
				</g>
				<g id="Fill-3">
					<path class="st4" d="M2.9,10.9c0.7,0,1.3-0.6,1.3-1.3c0-0.7-0.6-1.3-1.3-1.3S1.6,8.9,1.6,9.6C1.6,10.4,2.2,10.9,2.9,10.9"/>
				</g>
				<g id="Group-7" transform="translate(18.086957, 12.271351)">
					<g id="Clip-6">
					</g>
					<defs>
						<filter id="Adobe_OpacityMaskFilter_3_" filterUnits="userSpaceOnUse" x="0.3" y="0.4" width="5.8" height="5.8">
							<feColorMatrix  type="matrix" values="1 0 0 0 0  0 1 0 0 0  0 0 1 0 0  0 0 0 1 0"/>
						</filter>
					</defs>
					<mask maskUnits="userSpaceOnUse" x="0.3" y="0.4" width="5.8" height="5.8" id="mask-8_2_">
						<g class="st19">
							<polygon id="path-7_2_" class="st0" points="0.3,0.4 6.1,0.4 6.1,6.2 0.3,6.2 							"/>
						</g>
					</mask>
					<g id="Fill-5" class="st20">
						<path class="st4" d="M3.2,4.4c-0.6,0-1-0.5-1-1s0.5-1,1-1c0.6,0,1,0.5,1,1S3.8,4.4,3.2,4.4 M3.2,0.4c-1.6,0-2.9,1.3-2.9,2.9
							c0,1.6,1.3,2.9,2.9,2.9s2.9-1.3,2.9-2.9C6.1,1.7,4.8,0.4,3.2,0.4"/>
					</g>
				</g>
				<g id="Fill-8">
					<path class="st4" d="M21.3,10.5c0.7,0,1.3-0.6,1.3-1.3c0-0.7-0.6-1.3-1.3-1.3c-0.7,0-1.3,0.6-1.3,1.3
						C20,9.9,20.6,10.5,21.3,10.5"/>
				</g>
				<g id="Fill-10">
					<path class="st4" d="M12.6,2.6C13.4,2.6,14,2,14,1.3S13.4,0,12.6,0c-0.7,0-1.3,0.6-1.3,1.3S11.9,2.6,12.6,2.6"/>
				</g>
				<g id="Fill-12">
					<path class="st4" d="M21.6,20.7c-0.5,0-0.9,0.4-0.9,0.9c0,3.6-2.3,6.7-5.5,7.8c-0.3-1.5-1.6-2.3-2.6-3
						c-1.1-0.8-1.8-1.3-1.8-2.2c0-1,0.7-1.5,1.8-2.2c1.2-0.8,2.7-1.8,2.6-3.8c0-2-1.5-3-2.7-3.8c-1.1-0.8-1.8-1.3-1.8-2.2
						c0-1,0.7-1.5,1.8-2.2c1.2-0.8,2.7-1.8,2.6-3.8c0-0.5-0.4-0.9-0.9-0.9h0c-0.5,0-0.9,0.4-0.9,0.9c0,1-0.7,1.5-1.8,2.2
						c-1.2,0.8-2.7,1.8-2.6,3.8c0,2,1.5,3,2.7,3.8c1.1,0.8,1.8,1.3,1.8,2.2c0,1-0.7,1.5-1.8,2.2c-1.2,0.8-2.7,1.8-2.6,3.8
						c0,2,1.5,3,2.7,3.8c1,0.7,1.7,1.1,1.8,1.9c-0.3,0-0.6,0.1-1,0.1c-4.6,0-8.3-3.7-8.3-8.3c0-0.5-0.4-0.9-0.9-0.9
						c-0.5,0-0.9,0.4-0.9,0.9c0,5.6,4.6,10.2,10.1,10.2c5.6,0,10.2-4.6,10.2-10.2C22.5,21.1,22.1,20.7,21.6,20.7"/>
				</g>
			</g>
			<g id="Group_16_" transform="translate(0.000000, 64.000000)" class="st8">
				<g id="Divider_x2F__x5F_Light-Copy_1_">
					<g id="_x2796_Divider_4_">
						<rect class="st4" width="375" height="1"/>
					</g>
				</g>
			</g>
			<g id="kelp-_x2F_-icons-_x2F_-search" transform="translate(64.000000, 20.000000)">
				<g id="Path_6_">
					<polygon class="st2" points="0,0 24,0 24,24 0,24 					"/>
				</g>
				<g id="Shape_2_">
					<path d="M15.5,14h-0.8l-0.3-0.3c1-1.1,1.6-2.6,1.6-4.2C16,5.9,13.1,3,9.5,3S3,5.9,3,9.5S5.9,16,9.5,16c1.6,0,3.1-0.6,4.2-1.6
						l0.3,0.3v0.8l5,5l1.5-1.5L15.5,14z M9.5,14C7,14,5,12,5,9.5S7,5,9.5,5S14,7,14,9.5S12,14,9.5,14z"/>
				</g>
			</g>
		</g>
		<g id="Meetings-list_1_" transform="translate(16.000000, 785.000000)">
			<g class="st1">
				<g>
					<g>
						<path d="M1.3,4.8h7.6v1.5H3v3.4h5.3v1.5H3V16H1.3V4.8z"/>
					</g>
					<g>
						<path d="M11.1,4.8h4.6c2.4,0,3.8,1.3,3.8,3.2c0,1.7-1,2.7-2.6,3.2l2.8,4.8h-2L15,11.3h-2.2V16h-1.7V4.8z M15.7,9.8
							c1.4,0,2.1-0.6,2.1-1.7c0-1.1-0.7-1.7-2.1-1.7h-2.8v3.5H15.7z"/>
					</g>
					<g>
						<path d="M21.8,4.8h1.7V16h-1.7V4.8z"/>
					</g>
					<g>
						<path d="M31.4,4.8h1.8l3.8,9.4l3.8-9.4h1.8V16H41V8.3c-0.1,0.6-0.4,1.3-0.5,1.7L37.9,16h-1.7l-2.6-6.1
							c-0.2-0.4-0.4-1.1-0.6-1.7V16h-1.7V4.8z"/>
					</g>
					<g>
						<path d="M48.8,4.8h1.7L55,16h-1.8L52,12.9h-4.6L46.2,16h-1.8L48.8,4.8z M51.4,11.4L50,7.8c0-0.1-0.2-0.6-0.4-1
							c-0.1,0.4-0.3,0.9-0.4,1L48,11.4H51.4z"/>
					</g>
					<g>
						<path d="M56.6,4.8h4.6c2.4,0,3.8,1.3,3.8,3.2c0,1.7-1,2.7-2.6,3.2l2.8,4.8h-2l-2.7-4.7h-2.2V16h-1.7V4.8z M61.2,9.8
							c1.4,0,2.1-0.6,2.1-1.7c0-1.1-0.7-1.7-2.1-1.7h-2.8v3.5H61.2z"/>
					</g>
					<g>
						<path d="M74.3,7c-0.6,0.6-1.3,0.8-2.4,0.8V6.2c1.3,0,2-0.5,2.5-1.4H76V16h-1.7V7z"/>
					</g>
					<g>
						<path d="M78.8,13.5c0-0.3,0.1-0.6,0.1-0.8l1.6,0.4c-0.1,0.2-0.1,0.3-0.1,0.5c0,0.8,0.7,1.3,1.8,1.3c1.6,0,2.6-1.6,2.8-4.1
							c-0.5,0.8-1.5,1.4-2.8,1.4c-2.3,0-3.9-1.6-3.9-3.7c0-2.1,1.7-3.8,4-3.8c2.8,0,4.3,1.9,4.3,5.2c0,1.5-0.3,2.8-0.7,3.7
							c-0.7,1.8-2.1,2.8-3.8,2.8C80,16.2,78.8,15,78.8,13.5z M84.9,8.3c0-1.5-1.1-2.4-2.4-2.4C81.2,6,80,6.9,80,8.3
							c0,1.5,1.1,2.4,2.4,2.4C83.7,10.7,84.9,9.8,84.9,8.3z"/>
					</g>
				</g>
			</g>
		</g>
	</g>
	<g id="kelp-_x2F_-bottom-nav" transform="translate(0.000000, 747.000000)">
		<g id="Main-nav_1_">
			<rect y="1" class="st0" width="375" height="64"/>
		</g>
		<g id="Group_17_" class="st8">
			<g id="Divider_x2F__x5F_Light-Copy_2_">
				<g id="_x2796_Divider_5_">
					<rect class="st4" width="375" height="1"/>
				</g>
			</g>
		</g>
		<g id="kelp-_x2F_-icons-_x2F_-meetings" transform="translate(40.000000, 21.000000)">
			<g id="event-24px">
				<g id="Path_7_">
					<polygon class="st2" points="0,0 24,0 24,24 0,24 					"/>
				</g>
			</g>
			<g id="noun_Calendar_2863064" transform="translate(4.086957, 3.000000)">
				<g id="Shape_3_">
					<path class="st5" d="M2.4,3.3C2,3.3,1.6,3.6,1.6,4.1v11.4c0,0.5,0.4,0.8,0.8,0.8h11.4c0.5,0,0.8-0.4,0.8-0.8V4.1
						c0-0.5-0.4-0.8-0.8-0.8H2.4z M2.4,1.6h11.4c1.4,0,2.4,1.1,2.4,2.4v11.4c0,1.4-1.1,2.4-2.4,2.4H2.4c-1.4,0-2.4-1.1-2.4-2.4V4.1
						C0,2.7,1.1,1.6,2.4,1.6z"/>
				</g>
				<g id="Path_8_">
					<path class="st5" d="M10.6,0.8C10.6,0.4,11,0,11.4,0c0.5,0,0.8,0.4,0.8,0.8v3.3c0,0.5-0.4,0.8-0.8,0.8c-0.5,0-0.8-0.4-0.8-0.8
						V0.8z"/>
				</g>
				<g id="Path_9_">
					<path class="st5" d="M4.1,0.8C4.1,0.4,4.4,0,4.9,0s0.8,0.4,0.8,0.8v3.3c0,0.5-0.4,0.8-0.8,0.8S4.1,4.5,4.1,4.1V0.8z"/>
				</g>
				<g id="Path_10_">
					<path class="st5" d="M0.8,8.2C0.4,8.2,0,7.8,0,7.3s0.4-0.8,0.8-0.8h14.7c0.5,0,0.8,0.4,0.8,0.8s-0.4,0.8-0.8,0.8H0.8z"/>
				</g>
			</g>
		</g>
		<g id="Group_18_" transform="translate(175.500000, 21.000000)">
			<g id="noun_File_2863079" transform="translate(5.000000, 3.000000)">
				<g id="Shape_4_">
					<path d="M8.2,0c0.2,0,0.4,0.1,0.6,0.2l5.7,5.7c0.2,0.2,0.2,0.4,0.2,0.6v9c0,1.4-1.1,2.4-2.4,2.4H2.4c-1.4,0-2.4-1.1-2.4-2.4
						v-13C0,1.1,1.1,0,2.4,0H8.2z M7.8,1.6H2.4C2,1.6,1.6,2,1.6,2.4v13c0,0.5,0.4,0.8,0.8,0.8h9.8c0.5,0,0.8-0.4,0.8-0.8V6.9
						L7.8,1.6z"/>
				</g>
				<g id="Path_11_">
					<path d="M9,5.7h4.9c0.5,0,0.8,0.4,0.8,0.8s-0.4,0.8-0.8,0.8H8.2C7.7,7.3,7.3,7,7.3,6.5V0.8C7.3,0.4,7.7,0,8.2,0
						C8.6,0,9,0.4,9,0.8V5.7z"/>
				</g>
			</g>
		</g>
		<g id="Group_19_" transform="translate(311.000000, 21.000000)">
			<g id="noun_User_2863100" transform="translate(4.000000, 3.000000)">
				<g id="Path_12_">
					<path d="M16.1,17c0,0.5-0.4,0.9-0.9,0.9c-0.5,0-0.9-0.4-0.9-0.9v-1.8c0-1.5-1.2-2.7-2.7-2.7H4.5c-1.5,0-2.7,1.2-2.7,2.7V17
						c0,0.5-0.4,0.9-0.9,0.9S0,17.5,0,17v-1.8c0-2.5,2-4.5,4.5-4.5h7.1c2.5,0,4.5,2,4.5,4.5V17z"/>
				</g>
				<g id="Shape_5_">
					<path d="M8,8.9c-2.5,0-4.5-2-4.5-4.5S5.6,0,8,0s4.5,2,4.5,4.5S10.5,8.9,8,8.9z M8,7.1c1.5,0,2.7-1.2,2.7-2.7S9.5,1.8,8,1.8
						S5.4,3,5.4,4.5S6.6,7.1,8,7.1z"/>
				</g>
			</g>
		</g>
	</g>
	<g id="Settings-and-notifications" transform="translate(335.000000, 20.000000)">
		<g id="noun_Settings_2863081" transform="translate(3.000000, 3.000000)">
			<g id="Shape_6_">
				<path d="M9,12c-1.7,0-3-1.3-3-3s1.3-3,3-3s3,1.3,3,3S10.7,12,9,12z M9,10.5c0.8,0,1.5-0.7,1.5-1.5S9.8,7.5,9,7.5S7.5,8.2,7.5,9
					S8.2,10.5,9,10.5z"/>
			</g>
			<g id="Shape_7_">
				<path d="M15.7,9.8L15.7,9.8c0.5,0,0.8-0.3,0.8-0.8s-0.3-0.8-0.8-0.8h-0.1c-0.8,0-1.5-0.5-1.8-1.2c0-0.1,0-0.1-0.1-0.2
					c-0.2-0.7-0.1-1.5,0.5-2.1l0,0c0.1-0.1,0.2-0.3,0.2-0.5s-0.1-0.4-0.2-0.5c-0.1-0.1-0.3-0.2-0.5-0.2c-0.2,0-0.4,0.1-0.5,0.2
					l-0.1,0.1c-0.6,0.6-1.4,0.7-2.2,0.4c-0.7-0.3-1.2-1-1.2-1.8V2.2c0-0.4-0.3-0.8-0.8-0.8S8.2,1.8,8.2,2.2v0.1
					c0,0.8-0.5,1.5-1.2,1.8c-0.1,0-0.1,0-0.2,0.1C6.1,4.5,5.3,4.3,4.8,3.8l0,0C4.6,3.6,4.4,3.5,4.2,3.5S3.8,3.6,3.7,3.7
					C3.5,3.9,3.5,4.1,3.5,4.3s0.1,0.4,0.2,0.5l0.1,0.1C4.3,5.4,4.5,6.3,4.2,7c-0.3,0.8-1,1.3-1.8,1.3H2.2c-0.4,0-0.8,0.3-0.8,0.8
					c0,0.4,0.3,0.8,0.8,0.8l0.1,0c0.8,0,1.5,0.5,1.8,1.2c0.3,0.7,0.2,1.6-0.4,2.2l0,0c-0.1,0.1-0.2,0.3-0.2,0.5s0.1,0.4,0.2,0.5
					c0.1,0.1,0.3,0.2,0.5,0.2s0.4-0.1,0.5-0.2l0.1-0.1c0.6-0.6,1.4-0.7,2.1-0.4c0.8,0.3,1.3,1,1.3,1.8v0.1c0,0.4,0.3,0.8,0.8,0.8
					c0.4,0,0.8-0.3,0.8-0.8l0-0.1c0-0.8,0.5-1.5,1.2-1.8c0.7-0.3,1.6-0.2,2.2,0.4l0,0c0.1,0.1,0.3,0.2,0.5,0.2s0.4-0.1,0.5-0.2
					c0.1-0.1,0.2-0.3,0.2-0.5c0-0.2-0.1-0.4-0.2-0.5l-0.1-0.1c-0.6-0.6-0.7-1.4-0.4-2.2C14.2,10.2,14.9,9.8,15.7,9.8z M15.2,6.5
					c0.1,0.1,0.2,0.2,0.4,0.2h0.1C17,6.8,18,7.8,18,9s-1,2.2-2.2,2.2h-0.1c-0.2,0-0.4,0.1-0.4,0.3c-0.1,0.2,0,0.4,0.1,0.5l0,0
					c0.4,0.4,0.7,1,0.7,1.6s-0.2,1.2-0.7,1.6c-0.4,0.4-1,0.7-1.6,0.7s-1.2-0.2-1.6-0.7l0,0c-0.1-0.1-0.4-0.2-0.5-0.1
					c-0.2,0.1-0.3,0.3-0.3,0.4v0.1c0,1.2-1,2.2-2.2,2.2s-2.3-1-2.3-2.2c0-0.3-0.1-0.4-0.4-0.5c-0.2-0.1-0.4,0-0.5,0.1l0,0
					c-0.4,0.4-1,0.7-1.6,0.7s-1.2-0.2-1.6-0.7C2.3,15,2,14.4,2,13.8s0.2-1.2,0.7-1.6l0,0c0.1-0.1,0.2-0.4,0.1-0.5
					c-0.1-0.2-0.3-0.3-0.4-0.3H2.2C1,11.3,0,10.3,0,9.1s1-2.3,2.2-2.3c0.3,0,0.4-0.1,0.5-0.4c0.1-0.2,0-0.4-0.1-0.5l0,0
					C2.2,5.4,2,4.9,2,4.3s0.2-1.2,0.7-1.6C3,2.3,3.6,2,4.2,2s1.2,0.2,1.6,0.7l0,0C6,2.9,6.2,2.9,6.4,2.8c0,0,0.1,0,0.1,0
					c0.1-0.1,0.2-0.2,0.2-0.4V2.2C6.8,1,7.8,0,9,0s2.2,1,2.2,2.2v0.1c0,0.2,0.1,0.4,0.3,0.4c0.2,0.1,0.4,0,0.5-0.1l0,0
					c0.4-0.4,1-0.7,1.6-0.7s1.2,0.2,1.6,0.7C15.7,3,16,3.6,16,4.2s-0.2,1.2-0.7,1.6l0,0c-0.1,0.1-0.2,0.4-0.1,0.5
					C15.2,6.4,15.2,6.5,15.2,6.5z"/>
			</g>
		</g>
	</g>
</g>
</svg>
