<?xml version="1.0" encoding="utf-8"?>
<!-- Generator: Adobe Illustrator 24.0.3, SVG Export Plug-In . SVG Version: 6.00 Build 0)  -->
<svg version="1.1" id="Layer_1" xmlns="http://www.w3.org/2000/svg" xmlns:xlink="http://www.w3.org/1999/xlink" x="0px" y="0px"
	 viewBox="0 0 360 212" style="enable-background:new 0 0 360 212;" xml:space="preserve">
<style type="text/css">
	.st0{fill-rule:evenodd;clip-rule:evenodd;fill:#FFFFFF;}
	.st1{enable-background:new    ;}
	.st2{opacity:0.4;enable-background:new    ;}
	.st3{fill:#47B7B8;}
	.st4{fill:none;stroke:#000000;stroke-opacity:0.12;}
	.st5{fill:#FF4500;}
	.st6{fill-rule:evenodd;clip-rule:evenodd;fill:#FF4500;}
	.st7{fill:#FFFFFF;}
</style>
<title>Happening now</title>
<g id="Clean">
	<g id="Homepage-_x28_desktop_x29_" transform="translate(-760.000000, -1502.000000)">
		<g id="Content" transform="translate(100.000000, 260.000000)">
			<g id="Features" transform="translate(200.000000, 1052.000000)">
				<g id="_x31_" transform="translate(0.000000, 190.000000)">
					<g id="Happening-now" transform="translate(460.000000, 0.000000)">
						<path id="Rectangle" class="st0" d="M32,0h296c17.7,0,32,14.3,32,32v148c0,17.7-14.3,32-32,32H32c-17.7,0-32-14.3-32-32V32
							C0,14.3,14.3,0,32,0z"/>
						<g id="Group" transform="translate(24.000000, 65.000000)">
							<g class="st1">
								<path d="M3.7,6H0.3V4.8h8.3V6H5.1v10H3.7V6z"/>
								<path d="M8,13.8c0-1.6,1.3-2.3,2.7-2.6l2.7-0.4v-0.4c0-1-0.7-1.6-1.9-1.6s-1.9,0.6-1.9,1.3c0,0.1,0,0.1,0,0.2l-1.1,0.4
									c-0.1-0.2-0.1-0.4-0.1-0.6c0-1.2,1.2-2.3,3.1-2.3c2,0,3.2,1,3.2,2.6V14c0,0.9,0.1,1.4,0.5,2h-1.3c-0.2-0.2-0.5-0.8-0.5-1.6
									c-0.4,1.1-1.6,1.8-2.8,1.8C9.1,16.2,8,15.2,8,13.8z M13.4,12.1v-0.3L11,12.2c-1.1,0.2-1.7,0.7-1.7,1.6s0.6,1.4,1.6,1.4
									C12.5,15.1,13.4,13.6,13.4,12.1z"/>
								<path d="M16.8,13.9l1.1-0.7c0.4,1.1,1.2,1.9,2.3,1.9c1,0,1.7-0.5,1.7-1.4c0-0.8-0.6-1.2-2-1.4c-1.5-0.3-2.7-1-2.7-2.4
									c0-1.3,1.3-2.1,2.8-2.1c1.6,0,2.6,0.7,3.1,1.9l-1,0.6c-0.4-1-1.2-1.5-2.1-1.5s-1.6,0.4-1.6,1.1c0,0.8,0.8,1.2,2.1,1.4
									c1.6,0.3,2.6,1,2.6,2.4c0,1.3-1,2.5-3,2.5C18.4,16.2,17.3,15.2,16.8,13.9z"/>
								<path d="M25.9,14V9.1h-1.3v-1h1.3V5.9h1.3V8h1.9v1h-1.9v4.8c0,0.8,0.4,1.2,1.1,1.2c0.2,0,0.5,0,0.6-0.1L29,16
									c-0.3,0.1-0.6,0.2-1,0.2C26.9,16.2,25.9,15.6,25.9,14z"/>
								<path d="M31.5,19.2l0.2-1.2c0.2,0.1,0.4,0.2,0.6,0.2c0.4,0,0.8-0.3,1-0.8l0.5-1.3l-3.2-8H32l2.5,6.2L37,8.1h1.4l-4,9.7
									c-0.4,1.1-1.1,1.6-2.1,1.6C32,19.4,31.7,19.3,31.5,19.2z"/>
								<path d="M45.2,4.8h4.7c2.4,0,3.9,1.3,3.9,3.5s-1.6,3.5-3.9,3.5h-3.3V16h-1.3V4.8H45.2z M49.9,10.6c1.8,0,2.6-0.9,2.6-2.3
									S51.6,6,49.9,6h-3.3v4.7L49.9,10.6L49.9,10.6z"/>
								<path d="M56,4.8h1.3V16H56V4.8z"/>
								<path d="M59.6,13.8c0-1.6,1.3-2.3,2.7-2.6l2.7-0.4v-0.4c0-1-0.7-1.6-1.9-1.6c-1.2,0-1.9,0.6-1.9,1.3c0,0.1,0,0.1,0,0.2
									l-1.1,0.4C60,10.5,60,10.3,60,10.1c0-1.2,1.2-2.3,3.1-2.3c2,0,3.2,1,3.2,2.6V14c0,0.9,0.1,1.4,0.5,2h-1.3
									c-0.2-0.2-0.5-0.8-0.5-1.6c-0.4,1.1-1.6,1.8-2.8,1.8C60.6,16.2,59.6,15.2,59.6,13.8z M65,12.1v-0.3l-2.4,0.4
									c-1.1,0.2-1.7,0.7-1.7,1.6s0.6,1.4,1.6,1.4C64,15.1,65,13.6,65,12.1z"/>
								<path d="M68.4,13.9l1.1-0.7c0.4,1.1,1.2,1.9,2.3,1.9c1,0,1.7-0.5,1.7-1.4c0-0.8-0.6-1.2-2-1.4c-1.5-0.3-2.7-1-2.7-2.4
									c0-1.3,1.3-2.1,2.8-2.1c1.6,0,2.6,0.7,3.1,1.9l-1,0.6c-0.4-1-1.2-1.5-2.1-1.5S70,9.2,70,9.9c0,0.8,0.8,1.2,2.1,1.4
									c1.6,0.3,2.6,1,2.6,2.4c0,1.3-1,2.5-3,2.5C70,16.2,68.9,15.2,68.4,13.9z"/>
								<path d="M77.5,14V9.1h-1.3v-1h1.3V5.9h1.3V8h1.9v1h-1.9v4.8c0,0.8,0.4,1.2,1.1,1.2c0.2,0,0.5,0,0.6-0.1l0.1,1.1
									c-0.3,0.1-0.6,0.2-1,0.2C78.4,16.2,77.5,15.6,77.5,14z"/>
								<path d="M82.8,5.1h1.5v1.6h-1.5V5.1z M82.9,8.1h1.3V16h-1.3V8.1z"/>
								<path d="M86.4,12c0-2.5,1.9-4.2,4.1-4.2c1.7,0,2.8,0.7,3.4,2l-1,0.6c-0.5-1-1.4-1.5-2.4-1.5c-1.5,0-2.8,1.2-2.8,3
									s1.2,3,2.8,3c1.2,0,1.9-0.5,2.4-1.5l1,0.6c-0.7,1.2-1.8,2-3.4,2C88.1,16.2,86.4,14.5,86.4,12z"/>
								<path d="M100.7,10.4c0-3.3,2.5-5.8,5.5-5.8c2.2,0,3.9,1.2,4.7,2.9l-1.1,0.8c-0.9-1.7-2.1-2.4-3.7-2.4c-2.3,0-4.1,2-4.1,4.6
									s1.7,4.6,4.1,4.6c1.7,0,2.8-0.8,3.7-2.4l1,0.7c-1.1,1.8-2.4,2.9-4.8,2.9C103,16.2,100.7,13.7,100.7,10.4z"/>
								<path d="M113.5,4.8h1.3v4.7c0.6-1,1.6-1.7,2.9-1.7c1.7,0,2.8,1,2.8,2.8V16h-1.3v-5.1c0-1.2-0.8-1.9-1.9-1.9
									c-1.2,0-2.4,1.1-2.4,2.7V16h-1.3L113.5,4.8L113.5,4.8z"/>
								<path d="M122.7,13.8c0-1.6,1.3-2.3,2.7-2.6l2.7-0.4v-0.4c0-1-0.7-1.6-1.9-1.6c-1.2,0-1.9,0.6-1.9,1.3c0,0.1,0,0.1,0,0.2
									l-1.1,0.4c-0.1-0.2-0.1-0.4-0.1-0.6c0-1.2,1.2-2.3,3.1-2.3c2,0,3.2,1,3.2,2.6V14c0,0.9,0.1,1.4,0.5,2h-1.3
									c-0.2-0.2-0.5-0.8-0.5-1.6c-0.4,1.1-1.6,1.8-2.8,1.8C123.7,16.2,122.7,15.2,122.7,13.8z M128,12.1v-0.3l-2.4,0.4
									c-1.1,0.2-1.7,0.7-1.7,1.6s0.6,1.4,1.6,1.4C127.1,15.1,128,13.6,128,12.1z"/>
								<path d="M132.1,5.1h1.5v1.6h-1.5V5.1z M132.2,8.1h1.3V16h-1.3V8.1z"/>
								<path d="M136.3,8.1h1.3v1.4c0.4-0.9,1.2-1.6,2.3-1.6c0.3,0,0.4,0,0.7,0.1l-0.2,1.2c-0.2,0-0.4-0.1-0.6-0.1
									c-1.2,0-2.1,1.3-2.1,2.8V16h-1.3L136.3,8.1L136.3,8.1z"/>
								<path d="M147.3,8.1h1.3v1.2c0.5-0.8,1.4-1.5,2.4-1.5s1.9,0.5,2.2,1.5c0.5-0.9,1.5-1.5,2.5-1.5c1.5,0,2.4,0.9,2.4,2.4V16
									h-1.3v-5.4c0-1.1-0.5-1.6-1.5-1.6s-2,0.9-2,2.8V16H152v-5.4c0-1-0.5-1.7-1.5-1.7s-2,1-2,2.7V16h-1.3V8.1H147.3z"/>
								<path d="M160.3,12c0-2.5,1.8-4.2,4-4.2c2.3,0,3.8,1.6,3.8,4v0.4h-6.5c0.1,1.6,1.1,2.9,2.7,2.9c1.4,0,2.1-0.7,2.6-1.8l1,0.6
									c-0.7,1.5-1.9,2.3-3.6,2.3C162,16.2,160.3,14.5,160.3,12z M166.8,11.2c-0.1-1.5-1.2-2.3-2.5-2.3c-1.4,0-2.5,1-2.7,2.3H166.8
									z"/>
								<path d="M169.9,12c0-2.5,1.8-4.2,4-4.2c2.3,0,3.8,1.6,3.8,4v0.4h-6.5c0.1,1.6,1.1,2.9,2.7,2.9c1.4,0,2.1-0.7,2.6-1.8l1,0.6
									c-0.7,1.5-1.9,2.3-3.6,2.3C171.6,16.2,169.9,14.5,169.9,12z M176.4,11.2c-0.1-1.5-1.2-2.3-2.5-2.3c-1.4,0-2.5,1-2.7,2.3
									H176.4z"/>
								<path d="M180.4,14V9.1h-1.3v-1h1.3V5.9h1.3V8h1.9v1h-1.9v4.8c0,0.8,0.4,1.2,1.1,1.2c0.2,0,0.5,0,0.6-0.1l0.1,1.1
									c-0.3,0.1-0.6,0.2-1,0.2C181.4,16.2,180.4,15.6,180.4,14z"/>
								<path d="M185.7,5.1h1.5v1.6h-1.5V5.1z M185.8,8.1h1.3V16h-1.3V8.1z"/>
								<path d="M189.9,8.1h1.3v1.4c0.6-1,1.6-1.6,2.8-1.6c1.5,0,2.8,0.9,2.8,2.8V16h-1.3v-5.1c0-1.2-0.8-1.9-1.9-1.9
									c-1.2,0-2.3,1.1-2.3,2.7V16H190V8.1H189.9z"/>
								<path d="M199.2,17.1c0-0.3,0.1-0.6,0.2-0.9l1.2,0.4c-0.1,0.2-0.1,0.4-0.1,0.6c0,0.8,0.8,1.2,2.2,1.2c1.6,0,2.5-0.9,2.5-2.8
									v-1.2c-0.5,0.9-1.4,1.5-2.7,1.5c-2.1,0-3.7-1.5-3.7-4s1.7-4,3.7-4c1.3,0,2.2,0.6,2.7,1.4V8.1h1.3v7.4c0,2.5-1.4,4-3.8,4
									C200.5,19.5,199.2,18.5,199.2,17.1z M205.3,11.9c0-1.8-1.1-2.9-2.6-2.9c-1.6,0-2.6,1.1-2.6,2.9s1,2.9,2.6,2.9
									C204.2,14.8,205.3,13.6,205.3,11.9z"/>
							</g>
						</g>
						<g class="st2">
							<g>
								<path d="M25.1,36.2h1.5v4.1h4.6v-4.1h1.5V46h-1.5v-4.3h-4.6V46h-1.5V36.2z"/>
								<path d="M34.6,44c0-1.4,1.1-2.1,2.4-2.3l2.2-0.3v-0.3c0-0.8-0.5-1.2-1.4-1.2c-1,0-1.5,0.4-1.5,1c0,0.1,0,0.1,0,0.2L35,41.5
									c0-0.2,0-0.4,0-0.6c0-1.1,1.1-2.1,2.8-2.1c1.9,0,2.9,0.8,2.9,2.4v3c0,0.8,0.1,1.2,0.4,1.7h-1.5c-0.1-0.2-0.4-0.6-0.4-1.2
									c-0.4,0.9-1.3,1.4-2.4,1.4C35.6,46.2,34.6,45.3,34.6,44z M39.3,42.7v-0.2l-1.9,0.3C36.5,42.9,36,43.3,36,44
									c0,0.6,0.5,1,1.2,1C38.5,45,39.3,44,39.3,42.7z"/>
								<path d="M43,39.1h1.5v1.1c0.4-0.7,1.4-1.3,2.5-1.3c1.8,0,3.2,1.4,3.2,3.7c0,2.2-1.5,3.7-3.3,3.7c-1,0-1.9-0.5-2.4-1.2v3.8
									H43V39.1z M48.6,42.5c0-1.3-0.9-2.3-2.2-2.3s-2.2,1-2.2,2.3s0.9,2.3,2.2,2.3S48.6,43.9,48.6,42.5z"/>
								<path d="M52,39.1h1.5v1.1c0.4-0.7,1.4-1.3,2.5-1.3c1.8,0,3.2,1.4,3.2,3.7c0,2.2-1.5,3.7-3.3,3.7c-1,0-1.9-0.5-2.4-1.2v3.8
									H52V39.1z M57.7,42.5c0-1.3-0.9-2.3-2.2-2.3s-2.2,1-2.2,2.3s0.9,2.3,2.2,2.3S57.7,43.9,57.7,42.5z"/>
								<path d="M60.6,42.5c0-2.2,1.6-3.7,3.6-3.7s3.4,1.4,3.4,3.5v0.5H62c0.1,1.2,0.9,2.1,2.1,2.1c1.1,0,1.7-0.5,2.1-1.4l1.1,0.6
									c-0.7,1.4-1.7,2-3.2,2C62.2,46.2,60.6,44.7,60.6,42.5z M66.2,41.7c-0.1-1.1-1-1.7-2-1.7c-1.1,0-1.9,0.7-2.1,1.7H66.2z"/>
								<path d="M69.5,39.1H71v1.2c0.5-0.8,1.4-1.4,2.4-1.4c1.4,0,2.4,0.9,2.4,2.4V46h-1.5v-4.2c0-1-0.5-1.6-1.5-1.6
									S71,41.1,71,42.3V46h-1.5V39.1z"/>
								<path d="M78,36.3h1.6v1.6H78V36.3z M78.1,39.1h1.5V46h-1.5V39.1z"/>
								<path d="M81.8,39.1h1.5v1.2c0.5-0.8,1.4-1.4,2.4-1.4c1.4,0,2.4,0.9,2.4,2.4V46h-1.5v-4.2c0-1-0.5-1.6-1.5-1.6
									s-1.8,0.9-1.8,2.1V46h-1.5V39.1z"/>
								<path d="M90.1,46.8c0-0.3,0.1-0.6,0.2-0.8l1.4,0.4c-0.1,0.1-0.1,0.3-0.1,0.5c0,0.6,0.6,0.9,1.7,0.9c1.2,0,1.9-0.7,1.9-2.2
									v-1c-0.4,0.7-1.1,1.2-2.2,1.2c-1.8,0-3.3-1.4-3.3-3.5s1.6-3.5,3.3-3.5c1,0,1.7,0.4,2.1,1.1V39h1.4v6.5
									c0,2.3-1.3,3.5-3.4,3.5C91.3,49.1,90.1,48.2,90.1,46.8z M95.4,42.4c0-1.4-0.9-2.3-2.1-2.3s-2,0.8-2,2.3s0.9,2.3,2,2.3
									S95.4,43.8,95.4,42.4z"/>
								<path d="M103.2,39.1h1.5v1.2c0.5-0.8,1.4-1.4,2.4-1.4c1.4,0,2.4,0.9,2.4,2.4V46H108v-4.2c0-1-0.5-1.6-1.5-1.6
									s-1.8,0.9-1.8,2.1V46h-1.5V39.1z"/>
								<path d="M111.3,42.5c0-2.4,1.8-3.7,3.7-3.7c1.9,0,3.7,1.3,3.7,3.7s-1.8,3.7-3.7,3.7C113.1,46.2,111.3,44.9,111.3,42.5z
									 M117.3,42.5c0-1.4-1-2.3-2.2-2.3s-2.3,0.9-2.3,2.3s1,2.3,2.3,2.3C116.2,44.9,117.3,44,117.3,42.5z"/>
								<path d="M119.6,39.1h1.4l1.3,5.1l1.4-5.1h1.4l1.4,5.1l1.3-5.1h1.4l-2,6.9h-1.5l-1.4-5.2L123,46h-1.5L119.6,39.1z"/>
							</g>
						</g>
						<g class="st1">
							<path class="st3" d="M24.8,117.9c0-0.3,0.1-0.7,0.2-1l1.6,0.4c0,0.1-0.1,0.3-0.1,0.5c0,1.1,0.9,1.9,2.2,1.9
								c1.3,0,2.2-0.7,2.2-2c0-1.5-1.3-2-3-2v-1.3c1.7,0,2.5-0.8,2.5-1.8c0-0.9-0.7-1.5-1.8-1.5c-1.1,0-1.9,0.6-1.9,1.6
								c0,0.2,0,0.4,0.1,0.5l-1.6,0.3c-0.1-0.2-0.1-0.5-0.1-0.8c0-1.6,1.4-3,3.5-3c2.3,0,3.5,1.2,3.5,2.7c0,1.1-0.7,2.1-1.8,2.5
								c1.2,0.4,2.3,1.3,2.3,2.8c0,2.2-1.7,3.5-3.9,3.5C26.2,121.2,24.8,119.6,24.8,117.9z"/>
							<path class="st3" d="M39.5,117c0-2.5,1.8-4.2,3.9-4.2c1.2,0,2.2,0.5,2.6,1.4v-4.4h1.7V121H46v-1.3c-0.4,0.8-1.4,1.5-2.6,1.5
								C41.2,121.2,39.5,119.6,39.5,117z M46.1,117c0-1.6-1-2.7-2.5-2.7c-1.4,0-2.5,1.1-2.5,2.7s1,2.7,2.5,2.7S46.1,118.6,46.1,117z
								"/>
							<path class="st3" d="M49.8,117c0-2.7,2.1-4.2,4.3-4.2s4.2,1.5,4.2,4.2s-2.1,4.2-4.2,4.2C51.9,121.2,49.8,119.8,49.8,117z
								 M56.6,117c0-1.6-1.2-2.7-2.6-2.7c-1.4,0-2.6,1-2.6,2.7s1.2,2.7,2.6,2.7C55.4,119.7,56.6,118.7,56.6,117z"/>
							<path class="st3" d="M60,117c0-2.5,1.9-4.2,4.1-4.2c1.7,0,2.9,0.7,3.5,2l-1.4,0.8c-0.5-1-1.3-1.3-2.1-1.3
								c-1.4,0-2.4,1-2.4,2.7s1,2.7,2.4,2.7c1.1,0,1.7-0.5,2.2-1.3l1.3,0.8c-0.8,1.3-1.9,2.1-3.5,2.1C61.8,121.2,60,119.5,60,117z"
								/>
							<path class="st3" d="M69.2,118.9l1.3-0.8c0.4,1.1,1.1,1.8,2.2,1.8c0.8,0,1.5-0.4,1.5-1.1s-0.6-1-1.9-1.2
								c-1.5-0.3-2.7-1-2.7-2.4s1.3-2.2,2.8-2.2c1.7,0,2.6,0.7,3.2,2l-1.2,0.7c-0.4-0.9-1.1-1.4-1.9-1.4s-1.4,0.3-1.4,0.9
								s0.7,1,2,1.3c1.8,0.4,2.6,1.1,2.6,2.4c0,1.4-1.1,2.6-3.1,2.6C70.8,121.2,69.7,120.1,69.2,118.9z"/>
							<path class="st3" d="M82.8,124.2l0.3-1.5c0.2,0.1,0.4,0.2,0.7,0.2c0.4,0,0.7-0.2,0.9-0.8l0.4-1l-3.3-8h1.9l2.3,5.7l2.2-5.7
								H90l-3.9,9.5c-0.5,1.3-1.2,1.8-2.4,1.8C83.4,124.4,83,124.3,82.8,124.2z"/>
							<path class="st3" d="M90.9,117c0-2.7,2.1-4.2,4.3-4.2c2.2,0,4.2,1.5,4.2,4.2s-2.1,4.2-4.2,4.2C93,121.2,90.9,119.8,90.9,117z
								 M97.7,117c0-1.6-1.2-2.7-2.6-2.7s-2.6,1-2.6,2.7s1.2,2.7,2.6,2.7C96.6,119.7,97.7,118.7,97.7,117z"/>
							<path class="st3" d="M101.5,118.1V113h1.7v4.7c0,1.2,0.6,1.9,1.8,1.9c1.2,0,2.1-1,2.1-2.5v-4.2h1.6v7.9H107v-1.3
								c-0.5,1-1.5,1.5-2.6,1.5C102.8,121.2,101.5,120.2,101.5,118.1z"/>
							<path class="st3" d="M116.2,113.1h1.7v1.2c0.5-0.9,1.4-1.4,2.3-1.4c1.1,0,1.9,0.5,2.2,1.4c0.5-0.9,1.5-1.4,2.5-1.4
								c1.6,0,2.5,1,2.5,2.5v5.7h-1.6v-5.2c0-1-0.4-1.6-1.4-1.6s-1.7,0.8-1.7,2.4v4.3H121v-5.1c0-1-0.4-1.6-1.4-1.6
								c-0.9,0-1.7,0.8-1.7,2.3v4.4h-1.7C116.2,121,116.2,113.1,116.2,113.1z"/>
							<path class="st3" d="M129.6,118.8c0-1.6,1.3-2.4,2.8-2.6l2.5-0.4v-0.3c0-0.9-0.6-1.4-1.6-1.4c-1.1,0-1.7,0.5-1.7,1.1
								c0,0.1,0,0.1,0,0.2l-1.5,0.5c-0.1-0.2-0.1-0.4-0.1-0.7c0-1.2,1.2-2.4,3.2-2.4c2.1,0,3.3,1,3.3,2.8v3.4c0,0.9,0.1,1.4,0.5,2
								h-1.7c-0.2-0.2-0.4-0.7-0.4-1.4c-0.5,1-1.5,1.6-2.7,1.6C130.7,121.2,129.6,120.2,129.6,118.8z M134.9,117.2V117l-2.2,0.4
								c-1,0.2-1.5,0.6-1.5,1.3c0,0.7,0.6,1.2,1.4,1.2C134,119.8,134.9,118.7,134.9,117.2z"/>
							<path class="st3" d="M139.3,124.2l0.3-1.5c0.2,0.1,0.4,0.2,0.7,0.2c0.4,0,0.7-0.2,0.9-0.8l0.4-1l-3.3-8h1.9l2.3,5.7l2.2-5.7
								h1.9l-3.9,9.5c-0.5,1.3-1.2,1.8-2.4,1.8C139.9,124.4,139.6,124.3,139.3,124.2z"/>
							<path class="st3" d="M153.1,113.1h1.7v1.3c0.6-1,1.6-1.6,2.7-1.6c1.6,0,2.8,1,2.8,2.8v5.4h-1.7v-4.8c0-1.2-0.6-1.8-1.8-1.8
								s-2.1,1-2.1,2.4v4.2H153v-7.9H153.1z"/>
							<path class="st3" d="M162.3,117c0-2.5,1.8-4.2,4.1-4.2s3.8,1.6,3.8,4v0.6h-6.3c0.1,1.4,1.1,2.4,2.4,2.4
								c1.2,0,1.9-0.6,2.4-1.6l1.2,0.7c-0.8,1.6-1.9,2.3-3.7,2.3C164.1,121.2,162.3,119.5,162.3,117z M168.7,116.1
								c-0.1-1.2-1.1-2-2.3-2s-2.1,0.8-2.4,2H168.7z"/>
							<path class="st3" d="M171.9,117c0-2.5,1.8-4.2,4.1-4.2s3.8,1.6,3.8,4v0.6h-6.3c0.1,1.4,1.1,2.4,2.4,2.4
								c1.2,0,1.9-0.6,2.4-1.6l1.2,0.7c-0.8,1.6-1.9,2.3-3.7,2.3C173.8,121.2,171.9,119.5,171.9,117z M178.3,116.1
								c-0.1-1.2-1.1-2-2.3-2s-2.1,0.8-2.4,2H178.3z"/>
							<path class="st3" d="M181.6,117c0-2.5,1.8-4.2,3.9-4.2c1.2,0,2.2,0.5,2.6,1.4v-4.4h1.7V121h-1.7v-1.3
								c-0.4,0.8-1.4,1.5-2.6,1.5C183.3,121.2,181.6,119.6,181.6,117z M188.2,117c0-1.6-1-2.7-2.5-2.7c-1.4,0-2.5,1.1-2.5,2.7
								s1,2.7,2.5,2.7S188.2,118.6,188.2,117z"/>
						</g>
						<g id="kelp-_x2F_-button_x2F_-outlined-_x2F_-text-only" transform="translate(24.000000, 144.000000)">
							<path id="_x21B3_-_xD83C__xDFA8_-Color" class="st4" d="M18,0.5h127c9.7,0,17.5,7.8,17.5,17.5l0,0c0,9.7-7.8,17.5-17.5,17.5
								H18C8.3,35.5,0.5,27.7,0.5,18l0,0C0.5,8.3,8.3,0.5,18,0.5z"/>
							<g id="_x21B3_-_xD83D__xDCA1_States">
							</g>
							<g class="st1">
								<path class="st5" d="M22.1,18.5h-2.6v-1.2h2.6v-2.6h1.2v2.6h2.6v1.2h-2.6v2.6h-1.2V18.5z"/>
								<path class="st5" d="M33.5,20.1l1.3-0.7c0.3,1.5,1.1,2.5,2.7,2.5c1.3,0,2.1-0.7,2.1-1.6c0-1-0.9-1.5-2.5-1.8
									c-1.8-0.4-3.1-1.2-3.1-2.9c0-1.6,1.4-2.6,3.3-2.6c1.8,0,3.1,0.9,3.7,2.5l-1.2,0.7c-0.4-1.2-1.3-1.8-2.5-1.8
									c-1,0-1.9,0.4-1.9,1.3c0,0.9,0.9,1.4,2.5,1.7c2.1,0.4,3.2,1.3,3.2,2.9s-1.4,3-3.6,3C35.2,23.2,33.9,21.9,33.5,20.1z"/>
								<path class="st5" d="M44.1,13.2h1.6l3.3,8.3l3.3-8.3h1.6V23h-1.5v-6.8c-0.1,0.5-0.3,1.1-0.5,1.5L49.8,23h-1.5L46,17.7
									c-0.1-0.3-0.4-1-0.5-1.5V23H44L44.1,13.2L44.1,13.2z"/>
								<path class="st5" d="M60.1,13.2h1.5l4,9.8H64l-1.1-2.7h-4L57.8,23h-1.6L60.1,13.2z M62.4,18.9l-1.2-3.1
									c0-0.1-0.2-0.5-0.3-0.9c-0.1,0.4-0.3,0.8-0.3,0.9l-1.2,3.1H62.4z"/>
								<path class="st5" d="M67.7,13.2h4c2.1,0,3.3,1.1,3.3,2.8c0,1.5-0.9,2.4-2.3,2.8l2.4,4.2h-1.7l-2.3-4.1h-1.9V23h-1.5V13.2z
									 M71.7,17.6c1.2,0,1.9-0.5,1.9-1.5s-0.6-1.5-1.9-1.5h-2.5v3H71.7z"/>
								<path class="st5" d="M80.1,14.6h-3v-1.4h7.5v1.4h-3V23h-1.5V14.6z"/>
								<path class="st5" d="M92.3,13.2h1.5l4.4,6.8c0,0,0.3,0.6,0.4,0.8v-7.6h1.5V23h-1.6l-4.4-6.8c0,0-0.3-0.6-0.4-0.8V23h-1.5
									L92.3,13.2L92.3,13.2z"/>
								<path class="st5" d="M103,18.1c0-3,2.1-5.1,4.9-5.1s4.9,2.1,4.9,5.1s-2.1,5.1-4.9,5.1S103,21.1,103,18.1z M111.3,18.1
									c0-2.3-1.4-3.7-3.4-3.7c-1.9,0-3.4,1.4-3.4,3.7s1.4,3.7,3.4,3.7C109.8,21.8,111.3,20.4,111.3,18.1z"/>
								<path class="st5" d="M117.3,14.6h-3v-1.4h7.5v1.4h-3V23h-1.5V14.6z"/>
								<path class="st5" d="M124.4,13.2h6.4v1.3h-4.9v2.7h4.5v1.3h-4.5v3.1h5V23h-6.5C124.4,23,124.4,13.2,124.4,13.2z"/>
								<path class="st5" d="M133.2,20.1l1.3-0.7c0.3,1.5,1.1,2.5,2.7,2.5c1.3,0,2.1-0.7,2.1-1.6c0-1-0.9-1.5-2.5-1.8
									c-1.8-0.4-3.1-1.2-3.1-2.9c0-1.6,1.4-2.6,3.3-2.6c1.8,0,3.1,0.9,3.7,2.5l-1.2,0.7c-0.4-1.2-1.3-1.8-2.5-1.8
									c-1,0-1.9,0.4-1.9,1.3c0,0.9,0.9,1.4,2.5,1.7c2.1,0.4,3.2,1.3,3.2,2.9s-1.4,3-3.6,3C134.8,23.2,133.5,21.9,133.2,20.1z"/>
							</g>
						</g>
						<g id="Group_1_" transform="translate(296.000000, 140.000000)">
							<path id="_x21B3_-_xD83C__xDFA8_-Color_1_" class="st6" d="M20,0L20,0c11,0,20,9,20,20l0,0c0,11-9,20-20,20l0,0
								C9,40,0,31,0,20l0,0C0,9,9,0,20,0z"/>
							<g id="_x21B3_-_xD83D__xDCA1_States_1_">
							</g>
							<g id="kelp-_x2F_-icons-_x2F_-join">
								<g id="noun_Video-Camera_2863059" transform="translate(8.000000, 8.190000)">
									<g transform="translate(3.000000, 6.000000)">
										<path id="Shape" class="st7" d="M16.8,1.6c0.5-0.4,1.2,0,1.2,0.6v7.5c0,0.6-0.7,1-1.2,0.6l-5.2-3.8
											c-0.4-0.3-0.4-0.9,0-1.2L16.8,1.6z M16.5,3.7L13.3,6l3.2,2.3V3.7z"/>
										<path id="Shape_1_" class="st7" d="M2.2,1.5c-0.4,0-0.8,0.3-0.8,0.8v7.5c0,0.4,0.3,0.8,0.8,0.8h8.2c0.4,0,0.8-0.3,0.8-0.8
											V2.2c0-0.4-0.3-0.8-0.8-0.8L2.2,1.5L2.2,1.5z M2.2,0h8.2c1.2,0,2.2,1,2.2,2.2v7.5c0,1.2-1,2.2-2.2,2.2H2.2
											C1,12,0,11,0,9.8V2.2C0,1,1,0,2.2,0z"/>
									</g>
								</g>
							</g>
						</g>
					</g>
				</g>
			</g>
		</g>
	</g>
</g>
</svg>
