<?xml version="1.0" encoding="UTF-8"?>
<svg width="360px" height="231px" viewBox="0 0 360 231" version="1.1" xmlns="http://www.w3.org/2000/svg" xmlns:xlink="http://www.w3.org/1999/xlink">
    <title>D6272A5B-A7F2-4586-B0BE-0E3F81F2F94F</title>
    <g id="Clean" stroke="none" stroke-width="1" fill="none" fill-rule="evenodd">
        <g id="Homepage-(desktop)" transform="translate(-300.000000, -1778.000000)">
            <g id="Content" transform="translate(100.000000, 260.000000)">
                <g id="Features" transform="translate(200.000000, 1052.000000)">
                    <g id="Documents-you-may-need" transform="translate(0.000000, 466.000000)">
                        <rect id="Rectangle-Copy-2" fill="#FFFFFF" x="0" y="0" width="360" height="231" rx="32"></rect>
                        <g id="Group" transform="translate(24.000000, 32.000000)">
                            <text id="Documents-you-may-ne" font-family="BasisGrotesqueTrial-Medium, Basis Grotesque Trial" font-size="14" font-weight="400" line-spacing="20" letter-spacing="0.25" fill="#000000" fill-opacity="0.5">
                                <tspan x="0" y="14">Documents you may need</tspan>
                            </text>
                            <g id="kelp-/-list-(stack)-/-documents" transform="translate(0.000000, 36.000000)">
                                <g id="kelp-/-divider-/-light" transform="translate(48.000000, 65.000000)" fill="#000000" fill-opacity="0.12">
                                    <g id="➖Divider">
                                        <rect x="0" y="0" width="264" height="1"></rect>
                                    </g>
                                </g>
                                <g id="Guests---small">
                                    <g id="Document-type">
                                        <rect id="container" x="0" y="0" width="28" height="47.6363636"></rect>
                                        <g id="article-24px" transform="translate(4.000000, 11.818182)">
                                            <polygon id="Path" points="0 0 24 0 24 24 0 24"></polygon>
                                            <path d="M19,3 L5,3 C3.9,3 3,3.9 3,5 L3,19 C3,20.1 3.9,21 5,21 L19,21 C20.1,21 21,20.1 21,19 L21,5 C21,3.9 20.1,3 19,3 Z M14,17 L7,17 L7,15 L14,15 L14,17 Z M17,13 L7,13 L7,11 L17,11 L17,13 Z M17,9 L7,9 L7,7 L17,7 L17,9 Z" id="Shape" fill="#3086F6" fill-rule="nonzero"></path>
                                        </g>
                                    </g>
                                    <g id="Name,-email" transform="translate(48.000000, 0.000000)" fill="#000000" font-family="BasisGrotesqueTrial-Regular, Basis Grotesque Trial" font-size="14" font-weight="normal" letter-spacing="0.25">
                                        <text id="March-3-2021-at-6:57" fill-opacity="0.5">
                                            <tspan x="0" y="40.8099174"> March 3 2021 at 6:57 AM</tspan>
                                        </text>
                                        <text id="TestForLighthouse.pd" line-spacing="20">
                                            <tspan x="0" y="14.8264463">TestForLighthouse.pdf</tspan>
                                        </text>
                                    </g>
                                </g>
                                <g id="Guests---small" transform="translate(0.000000, 83.363636)">
                                    <g id="document-type">
                                        <rect id="container" x="0" y="0" width="28" height="47.6363636"></rect>
                                        <g id="picture_as_pdf-24px" transform="translate(4.000000, 11.818182)">
                                            <polygon id="Path" points="0 0 24 0 24 24 0 24"></polygon>
                                            <path d="M18.75,3 L5.25,3 C4.0125,3 3,4.0125 3,5.25 L3,18.75 C3,19.9875 4.0125,21 5.25,21 L18.75,21 C19.9875,21 21,19.9875 21,18.75 L21,5.25 C21,4.0125 19.9875,3 18.75,3 Z M9.1875,11.4375 C9.1875,12.37125 8.43375,13.125 7.5,13.125 L6.375,13.125 L6.375,15.375 L4.6875,15.375 L4.6875,8.625 L7.5,8.625 C8.43375,8.625 9.1875,9.37875 9.1875,10.3125 L9.1875,11.4375 Z M14.8125,13.6875 C14.8125,14.62125 14.05875,15.375 13.125,15.375 L10.3125,15.375 L10.3125,8.625 L13.125,8.625 C14.05875,8.625 14.8125,9.37875 14.8125,10.3125 L14.8125,13.6875 Z M19.3125,10.3125 L17.625,10.3125 L17.625,11.4375 L19.3125,11.4375 L19.3125,13.125 L17.625,13.125 L17.625,15.375 L15.9375,15.375 L15.9375,8.625 L19.3125,8.625 L19.3125,10.3125 Z M6.375,11.4375 L7.5,11.4375 L7.5,10.3125 L6.375,10.3125 L6.375,11.4375 Z M12,13.6875 L13.125,13.6875 L13.125,10.3125 L12,10.3125 L12,13.6875 Z" id="Shape" fill="#EA4435" fill-rule="nonzero"></path>
                                        </g>
                                    </g>
                                    <g id="Name,-email" transform="translate(48.000000, 0.000000)" fill="#000000" font-family="BasisGrotesqueTrial-Regular, Basis Grotesque Trial" font-size="14" font-weight="normal" letter-spacing="0.25">
                                        <text id="March-3-2021-at-6:57" fill-opacity="0.5">
                                            <tspan x="0" y="39.9834711"> March 3 2021 at 6:57 AM</tspan>
                                        </text>
                                        <text id="TestForLighthouse.pd" line-spacing="20">
                                            <tspan x="0" y="14">TestForLighthouse.pdf</tspan>
                                        </text>
                                    </g>
                                </g>
                            </g>
                        </g>
                    </g>
                </g>
            </g>
        </g>
    </g>
</svg>