<svg height='100px' width='100px'  fill="#000000" xmlns="http://www.w3.org/2000/svg" xmlns:xlink="http://www.w3.org/1999/xlink" viewBox="0 0 32 32" version="1.1" x="0px" y="0px"><title>Icons32px / More-horizontal </title><desc>Created with Sketch.</desc><g stroke="none" stroke-width="1" fill="none" fill-rule="evenodd"><path d="M16,19 C14.3431458,19 13,17.6568542 13,16 C13,14.3431458 14.3431458,13 16,13 C17.6568542,13 19,14.3431458 19,16 C19,17.6568542 17.6568542,19 16,19 Z M16,17 C16.5522847,17 17,16.5522847 17,16 C17,15.4477153 16.5522847,15 16,15 C15.4477153,15 15,15.4477153 15,16 C15,16.5522847 15.4477153,17 16,17 Z" fill="#000000"></path><path d="M24,19 C22.3431458,19 21,17.6568542 21,16 C21,14.3431458 22.3431458,13 24,13 C25.6568542,13 27,14.3431458 27,16 C27,17.6568542 25.6568542,19 24,19 Z M24,17 C24.5522847,17 25,16.5522847 25,16 C25,15.4477153 24.5522847,15 24,15 C23.4477153,15 23,15.4477153 23,16 C23,16.5522847 23.4477153,17 24,17 Z" fill="#000000"></path><path d="M8,19 C6.34314575,19 5,17.6568542 5,16 C5,14.3431458 6.34314575,13 8,13 C9.65685425,13 11,14.3431458 11,16 C11,17.6568542 9.65685425,19 8,19 Z M8,17 C8.55228475,17 9,16.5522847 9,16 C9,15.4477153 8.55228475,15 8,15 C7.44771525,15 7,15.4477153 7,16 C7,16.5522847 7.44771525,17 8,17 Z" fill="#000000"></path></g></svg>