<svg id="ICONS" xmlns="http://www.w3.org/2000/svg" viewBox="0 0 250 250"><defs><style>.cls-1{fill:#ffe945;}</style></defs><path id="key-color" class="cls-1" d="M164,87.76c7-14.66,3-32.17-8.31-43a42.46,42.46,0,0,0-21.89-11.61c-10.91-2.06-19.61.65-29.08,5.79-16.49,8.93-25.46,22.92-21.2,42.4,3.4,15.56,15.71,26.18,30.16,30,.1,10.1.2,20,.29,29.87.22,21.46.43,42.92.64,66.52a10,10,0,0,0,10,9.91h.09a10,10,0,0,0,9.91-10.09c0-1.07,0-2.12,0-3.18a145.78,145.78,0,0,1,18-.06,10,10,0,0,0,1.16-20,168.28,168.28,0,0,0-19.32,0c0-.86,0-4.73,0-5.58l8.61-.41a10,10,0,0,0-.94-20l-7.86.37c-.07-6.95-.14-10.85-.21-17.74-.1-10-.2-20-.29-30.28C146.91,107,158.91,98.36,164,87.76Zm-29-7.11a16.52,16.52,0,0,1-16.22,4.49,14.57,14.57,0,0,1-10.27-13c-.18-5.9,5.45-12.48,11.14-14s14.19-1.06,17.76,4.46S139.64,75.92,135.07,80.65Z"/></svg>