<svg xmlns="http://www.w3.org/2000/svg" viewBox="0 0 820 820"><defs><style>.cls-1{fill:#f4f6f9;}.cls-2{fill:none;stroke:#333;stroke-linecap:round;stroke-linejoin:round;stroke-width:7px;}.cls-3{fill:#333;}.cls-4{fill:#ffe945;}</style></defs><g id="CHARACTERS"><g id="Key"><g id="BG"><path class="cls-1" d="M229.32,471.68c15.45,35.66,28.9,74,64,94.59,14.47,8.5,29.61,9.27,46,6.74,20.73-3.2,36.85-8.38,54.79-18,19.55-10.49,35.26-26.82,52.14-41.2,14.25-12.15,27.74-26.08,41.47-39,13.31-12.52,26.36-24.66,35.42-40.32L525.3,432c.5.27,1,.52,1.53.78l0-.78c0-16.21-2.2-71-2.83-96.1a251.77,251.77,0,0,0-94.2,22.46c-21.9,10-41.31,23.52-59.73,38.89-16.61,13.85-33.56,29.8-54.43,36.89-23.84,8.09-46.89-.53-70.35-5.62-12.93-2.8-26.09-4-38.74-2.32C217,439.54,222.08,455,229.32,471.68Z"/><path class="cls-1" d="M726.23,383.53c-26.43-26.47-65.22-24.4-92.08-29.84.05,9.07.18,18.15.62,27.21.45,9.36.75,22.61.75,32.21l.06.62c3-.82,5.6-.92,7.25.31,8.41,6.3,7.81,18,8,39,12.47,13.82,23.13,28.88,36.24,42.19,10.53,10.69,16.25,23,24.11,35.7.74,1.2,1.68,2.76,2.67,4.47,15.46-10.34,33.69-29.77,40-63.49S752.65,410,726.23,383.53Z"/></g><g id="Character"><path class="cls-2" d="M112.17,304.57c3.17,4.66,6.46,10.05,10,14.87h0c-7.27-8.91-16.87-1.12-16.77,8.38.12,11.62,11.46,13.47,20.28,14.24,11,1,20.93-.46,28.36-9.91,6.16-7.83,9.71-14.74,3.13-23S141.86,291.3,134,285"/><path class="cls-2" d="M83.68,354.06c-6.62-7.76-12.47-16-15.59-26.63-3.39-11.49-4.49-18.2-3.9-30.39,1.06-22,24.58-32.05,39.59-45.91,7.84-7.24,16.74-13,25.23-19.28,6-4.42,17.25-12,24.36-12,10.33-.06,17.1,11.66,23,18.5,7.46,8.67,13.8,16,20.25,25.4,4.58,6.7,11.56,15.43,7.87,24.06-3,7-13.9,11.41-21.09,10.81"/><path class="cls-2" d="M155.66,258.84c7.58,3.29,21.69,23.5,24.76,31.47,6.49,16.8-10.92,18.14-20.22,24.41"/><path class="cls-2" d="M88.93,383.3c13.2.56,26.9-3.34,39.66-6.77a91.82,91.82,0,0,0,27.07-12.13s18.28,34.53,16.09,39.92c-3.17,7.82-26.18,13.88-32.58,15.47-13.07,3.24-28.49,6.9-44.13,6.9-3.16-14.05-6.79-29.28-9.78-43.24C86.6,382.88,87.08,383.5,88.93,383.3Z"/><path class="cls-2" d="M194.65,297.08c9.9,13.37-.36,18.94-12,27.73-6.06,4.58-21.34,13.11-25.4,2.39"/><path class="cls-2" d="M88.93,383.3s-11.05-28.07-11.86-37.7"/><path class="cls-2" d="M174.41,331.57c-4,14-22.21,29.11-36.74,26.24"/><line class="cls-2" x1="148.91" y1="357.06" x2="152.66" y2="365.31"/><path class="cls-2" d="M95.68,425.29c-8.33,19.81-13.1,40.67,5.84,58.43-12.46-1.19-12.59,32-7.28,41.34"/><path class="cls-2" d="M171.75,404.32c7.43-.95,18.35,5.92,24.4,11.1,18.07,15.45,23.87,34.78,33.17,56.26,15.45,35.66,28.9,74,64,94.59,14.47,8.5,29.61,9.27,46,6.74,20.73-3.2,36.85-8.38,54.79-18,19.55-10.49,35.26-26.82,52.14-41.2,14.25-12.15,27.74-26.08,41.47-39,13.31-12.52,26.36-24.66,35.42-40.32"/><path class="cls-2" d="M166.91,226.86c21.24-2.49,48.11.27,60.86.86,10.94.51,22.06,1.61,33.06,1.13,4.94-.22,14.24-3,18.11,4.11,11.14,20.46-41.76,19.93-47.57,20.46-13.06,1.2-44,.46-42.22.16"/><path class="cls-2" d="M249.53,252.36c-.08,7.49,1.6,29.22,6.15,47.67"/><path class="cls-2" d="M635.52,413.11c0-9.6-.3-22.85-.75-32.21-1.07-22-.31-44-1-66,6.15-1.16,16-1.65,20.49-2.09,7.76-.75,15.44-.88,18.74-9.35,2.87-7.35.67-16.85-6-21.39-9.65-6.57-23.5-1.79-35.36.15-1.74-16.37-5.15-33.47-13.38-46-7.68-11.75-30.22-17.12-43.6-15.74-16,1.64-28.94,6.18-43,13.69-25.63,13.65-49.8,33.54-70,54.53,8.16,2.92,62.12,11.44,62.12,11.44-.14,7.3,0,17.63,0,26.07,0,15.4,3,87,3,105.89"/><path class="cls-2" d="M559,324.11c11.41.71,19.76-5.93,21.37-10.41"/><line class="cls-2" x1="557.54" y1="264.84" x2="556.04" y2="271.58"/><line class="cls-2" x1="579.07" y1="269.25" x2="577.25" y2="274.66"/><path class="cls-2" d="M525.3,432c16.78,9.18,37.11,9.68,56.23,4.7,11.12-2.9,20.73-8.67,31.87-12.87,7.25-2.73,23.79-14.05,29.43-9.83,8.41,6.3,7.81,18,8,39,12.47,13.82,23.13,28.88,36.24,42.19,10.53,10.69,16.25,23,24.11,35.7,2.71,4.37,7.92,13.44,9.06,17.33"/><path class="cls-2" d="M527.55,449.28c-.58,8.75,3.68,26.53,11.62,31.49,13.58,8.49,32.45-22.78,39.43-31.28.3,12,11.49,35.29,19.89,43.63,5.4,5.37,9.76,3.22,15.79-1.07,5.33-3.79,27.05-25.58,27.05-25.58"/><path class="cls-2" d="M576.28,489c0,27.74-4.5,57.73-10.51,84.54.29-8-8.28-18.61-16.68-16.29-13.78,3.82-17.88,29.74-22.25,40.44C520.05,588,502.06,588,491.56,621"/><path class="cls-2" d="M635.52,577.22s28.5-6.14,50-4.81"/><path class="cls-2" d="M668.51,561c3.31,8.43,5.52,16.22,5.24,25.49"/><path class="cls-2" d="M656.51,557.25c6.75,15.66,8.19,34.25,9,51"/><line class="cls-2" x1="579.28" y1="555" x2="584.53" y2="555.75"/><path class="cls-2" d="M541.79,586.49A9.4,9.4,0,0,0,544,588"/><path class="cls-3" d="M634.1,336.85a58.44,58.44,0,0,0,12-23.4c-4.22.34-8.89.78-12.38,1.44C634,322.2,634.07,329.53,634.1,336.85Z"/><path class="cls-3" d="M648.79,279.1c-.23-4.14-.59-8.24-1-12.27-1.16-11.22-3-23.29-10.67-32.09-.35-.41-.73-.81-1.11-1.2a20.7,20.7,0,0,0-6.42-7.1,17.74,17.74,0,0,0-13.54-3c-1.39-13.79-16.32-25.63-29.86-24.33-8.43.81-16,5.21-23.13,9.36-8.13,4.72-17.49,9.67-27,6.44-2.93-1-4.9,3-2.91,5,18.8,19.46,48.31,26,73.62,17.3a65.16,65.16,0,0,0,15.59,56.26,3,3,0,0,0,4.71-.61c1.83-3.49,3.48-7.08,5-10.73C637.38,281.25,643.17,279.79,648.79,279.1Z"/><path class="cls-2" d="M643.76,297.83c3.66-1,7.35-2.25,11.25-2.25"/><path class="cls-4" d="M263.76,289.83H248.12A14.13,14.13,0,0,0,234,303.94v1.34a14.13,14.13,0,0,0,14.11,14.12h2.75c0,1.71,0,3.81,0,6.22-.15,25.33-.28,52.75.06,57.5a4.51,4.51,0,0,0,4.49,4.18h.33a4.5,4.5,0,0,0,4.16-4.82c0-.41-.06-1.07-.08-1.92h8.34a4.5,4.5,0,0,0,0-9h-3a4.5,4.5,0,0,0,0-9h-5.45c0-12.34.09-27.45.15-36.88,0-2.42,0-4.54,0-6.27h3.89a14.14,14.14,0,0,0,14.12-14.12v-1.34A14.13,14.13,0,0,0,263.76,289.83Zm5.12,15.45a5.13,5.13,0,0,1-5.12,5.12H248.12a5.12,5.12,0,0,1-5.11-5.12v-1.34a5.11,5.11,0,0,1,5.11-5.11h15.64a5.12,5.12,0,0,1,5.12,5.11Z"/><path class="cls-2" d="M255.68,300c3.9-15,6.81-28.87,7.17-42.42.14-5.67,2.56-27.53-1.65-31.69-3.78-3.73-6.39-1.21-8.12,2.75"/></g></g></g></svg>