<svg height='100px' width='100px'  fill="#000000" xmlns="http://www.w3.org/2000/svg" xmlns:xlink="http://www.w3.org/1999/xlink" viewBox="0 0 32 32" version="1.1" x="0px" y="0px"><title>Icons32px / User-x </title><desc>Created with Sketch.</desc><g stroke="none" stroke-width="1" fill="none" fill-rule="evenodd"><path d="M21,25 C21,25.5522847 20.5522847,26 20,26 C19.4477153,26 19,25.5522847 19,25 L19,23 C19,21.3431458 17.6568542,20 16,20 L9,20 C7.34314575,20 6,21.3431458 6,23 L6,25 C6,25.5522847 5.55228475,26 5,26 C4.44771525,26 4,25.5522847 4,25 L4,23 C4,20.2385763 6.23857625,18 9,18 L16,18 C18.7614237,18 21,20.2385763 21,23 L21,25 Z" fill="#000000"></path><path d="M12.5,16 C9.73857625,16 7.5,13.7614237 7.5,11 C7.5,8.23857625 9.73857625,6 12.5,6 C15.2614237,6 17.5,8.23857625 17.5,11 C17.5,13.7614237 15.2614237,16 12.5,16 Z M12.5,14 C14.1568542,14 15.5,12.6568542 15.5,11 C15.5,9.34314575 14.1568542,8 12.5,8 C10.8431458,8 9.5,9.34314575 9.5,11 C9.5,12.6568542 10.8431458,14 12.5,14 Z" fill="#000000"></path><path d="M21.2928932,12.7071068 C20.9023689,12.3165825 20.9023689,11.6834175 21.2928932,11.2928932 C21.6834175,10.9023689 22.3165825,10.9023689 22.7071068,11.2928932 L27.7071068,16.2928932 C28.0976311,16.6834175 28.0976311,17.3165825 27.7071068,17.7071068 C27.3165825,18.0976311 26.6834175,18.0976311 26.2928932,17.7071068 L21.2928932,12.7071068 Z" fill="#000000"></path><path d="M26.2928932,11.2928932 C26.6834175,10.9023689 27.3165825,10.9023689 27.7071068,11.2928932 C28.0976311,11.6834175 28.0976311,12.3165825 27.7071068,12.7071068 L22.7071068,17.7071068 C22.3165825,18.0976311 21.6834175,18.0976311 21.2928932,17.7071068 C20.9023689,17.3165825 20.9023689,16.6834175 21.2928932,16.2928932 L26.2928932,11.2928932 Z" fill="#000000"></path></g></svg>