<svg id="ICONS" xmlns="http://www.w3.org/2000/svg" viewBox="0 0 250 250"><defs><style>.cls-1{fill:none;}.cls-1,.cls-3{stroke:#333;}.cls-1,.cls-2,.cls-3{stroke-linecap:round;stroke-linejoin:round;stroke-width:7px;}.cls-2{fill:#ffe945;stroke:#ffe945;}.cls-3{fill:#333;}</style></defs><g id="lock-color"><path class="cls-1" d="M97.2,120.88C97.82,105.52,98.46,90,99,79.46c.87-16.62,14.7-23.14,30.46-22.33s21.81,9.73,23.66,18.27,2,20.7,1.76,29.44c-.18,7.16-.54,14.42-.54,21.48s14.93,9.27,15,0l.15-25.18c.07-10.86-.47-26-3.54-36.67S153.49,42.52,129.62,41s-44.56,6.2-45.38,26.84c-.52,13.42-1,33.42-1.52,53C82.45,131.42,96.84,129.79,97.2,120.88Z"/><path class="cls-2" d="M100.5,209.15S77.75,207.42,72.15,207c-8.8-.63-9.73-7.39-9.88-16.3-.2-11.43,0-32.18.87-43.59.56-7.53-.53-27.17,6.76-31.21,2.67-1.49,21.09-.08,21.09-.08l30.62-.53s46.2-.25,52.21-.12c3.79.07,8.79-.4,11.13,2.86,2.89,4,3,28.91,2.74,50.58s-2.9,35.77-5.48,37.86-15.53,1.55-21.07,1.43c-1.51,0-9.55.11-19.3.31Z"/><path class="cls-3" d="M127.78,138.83c-4.87-.8-9.45,1.14-11,5.24a7.85,7.85,0,0,0,4,10.23,15.37,15.37,0,0,0,5.46,1.15c2.64.21,5.56.27,7.6-1.41s2.77-5.87,2-8.6S132.65,139.64,127.78,138.83Z"/><path class="cls-3" d="M135.67,183.89a176.94,176.94,0,0,1-21.48.07,314.87,314.87,0,0,0,12.5-33.23C131.39,161.17,135.67,183.89,135.67,183.89Z"/></g></svg>