<svg id="ICONS" xmlns="http://www.w3.org/2000/svg" viewBox="0 0 250 250"><defs><style>.cls-1{fill:none;stroke:#333;stroke-linecap:round;stroke-linejoin:round;stroke-width:7px;}</style></defs><path id="mess-line" class="cls-1" d="M74.33,121.22c-2.68.86-5.45,1.88-7.46,4.14-4.7,5.28-2.89,15.4,2.33,19.94s12.42,4.53,18.69,2.57a39.62,39.62,0,0,0,15.27-9.12c6.81-6.44,11.77-15.31,18.77-21.45s17.62-8.81,24.08-1.9l-25.07,23.42c-4,3.77-8.48,7.73-13.64,7.88-5.31.16-10.2-3.92-13.2-9.08s-4.46-11.34-5.87-17.38c-1.93-8.24-4.79-11-5.77-24.72s9.59-21.25,19.66-18.19,13.22,10.57,14.26,17.72-.15,14.48-.13,21.73c0,17,7.12,33.76,18.59,44.05,1.66,1.49,3.57,2.9,5.64,2.73,2.53-.2,4.45-2.66,6.09-4.94l21.23-29.46c3.61-5,9.07-10.55,14.06-7.6,3.16,1.87,4.43,6.65,3.85,10.76s-2.59,7.72-4.57,11.17c-2.67,4.64-5.48,9.37-9.5,12.36s-9.57,3.84-13.41.54c-5.72-4.91-4.6-15.45-1.43-22.91s7.9-14.69,7.59-23a21.88,21.88,0,0,0-9.6-16.94c-5.23-3.5-11.43-4.48-17.44-4.29-9.65.31-19.55,3.71-26.59,11.49s-10.59,20.44-7.11,31.05c2.28,7,7.41,13.58,5.85,20.83-1.77,8.22-10.92,10.64-18,9-11.47-2.7-22.19-13.59-22.92-27.35-.44-8.39,3-16.93,8.84-21.79,7.32-6.11,17.1-6.15,25.19-10.72,8.64-4.89,14.58-14.46,21.87-21.79s18-12.52,26.3-6.81A12.57,12.57,0,0,1,156,80.6c2,8.82-6.47,18-3.41,26.38,2,5.37,11.94,4.56,15.46.45S170,94.7,165.22,93c-3.32-1.2-7.72,4-8.31,5.45a141.63,141.63,0,0,0-10.45,49c-.11,3.34-.13,6.82-1.46,9.76a19.63,19.63,0,0,1-3.14,4.54c-4.89,5.79-10,11.53-16.35,14.88s-14.09,3.93-19.93-.45S97,161.66,101,155c3.37-5.64,9.83-7.07,15.62-8,6.7-1.12,14.06-2.08,19.72,2.28,11.38,8.76,13.52,31.69,31.78,22,10.77-5.73,13.48-21.32,7.78-32.86C160.23,106.6,98.86,113.32,74.33,121.22Z"/></svg>