<svg height='100px' width='100px'  fill="#000000" xmlns="http://www.w3.org/2000/svg" xmlns:xlink="http://www.w3.org/1999/xlink" version="1.1" x="0px" y="0px" viewBox="0 0 32 32" style="enable-background:new 0 0 32 32;" xml:space="preserve"><path d="M16.66878,31.99971c6.59689,0,12.57919-3.89792,15.24065-9.93023c0.17813-0.40469,0.08854-0.87708-0.225-1.18802  c-0.31354-0.31146-0.78646-0.39688-1.18958-0.2151c-1.82917,0.82448-3.80313,1.24271-5.86876,1.24271  c-8.0146,0-14.53544-6.52032-14.53544-14.53492c0-2.06615,0.41875-4.04063,1.24271-5.86928  c0.18229-0.4026,0.09688-0.87604-0.21458-1.18959c-0.31146-0.31406-0.78438-0.40156-1.1875-0.225  C3.89792,2.7507,0,8.73301,0,15.33093C0,24.5221,7.4771,31.99971,16.66878,31.99971z M8.44481,3.34914  c-0.32396,1.29948-0.4875,2.64532-0.4875,4.02501c0,9.19116,7.4771,16.66826,16.66878,16.66826  c1.37917,0,2.72501-0.16302,4.02397-0.48698c-2.67396,3.90157-7.13751,6.31095-11.98127,6.31095  c-8.0146,0-14.53544-6.52032-14.53544-14.53544C2.13334,10.48666,4.54272,6.02363,8.44481,3.34914z"></path></svg>