<svg height='100px' width='100px'  fill="currentColor" xmlns="http://www.w3.org/2000/svg" xmlns:xlink="http://www.w3.org/1999/xlink" viewBox="0 0 32 32" version="1.1" x="0px" y="0px"><title>Icons32px / Move </title><desc>Created with Sketch.</desc><g stroke="none" stroke-width="1" fill="none" fill-rule="evenodd"><path d="M9.70710678,18.2928932 C10.0976311,18.6834175 10.0976311,19.3165825 9.70710678,19.7071068 C9.31658249,20.0976311 8.68341751,20.0976311 8.29289322,19.7071068 L5.29289322,16.7071068 C4.90236893,16.3165825 4.90236893,15.6834175 5.29289322,15.2928932 L8.29289322,12.2928932 C8.68341751,11.9023689 9.31658249,11.9023689 9.70710678,12.2928932 C10.0976311,12.6834175 10.0976311,13.3165825 9.70710678,13.7071068 L7.41421356,16 L9.70710678,18.2928932 Z" fill="currentColor"></path><path d="M13.7071068,9.70710678 C13.3165825,10.0976311 12.6834175,10.0976311 12.2928932,9.70710678 C11.9023689,9.31658249 11.9023689,8.68341751 12.2928932,8.29289322 L15.2928932,5.29289322 C15.6834175,4.90236893 16.3165825,4.90236893 16.7071068,5.29289322 L19.7071068,8.29289322 C20.0976311,8.68341751 20.0976311,9.31658249 19.7071068,9.70710678 C19.3165825,10.0976311 18.6834175,10.0976311 18.2928932,9.70710678 L16,7.41421356 L13.7071068,9.70710678 Z" fill="currentColor"></path><path d="M16,24.5857864 L18.2928932,22.2928932 C18.6834175,21.9023689 19.3165825,21.9023689 19.7071068,22.2928932 C20.0976311,22.6834175 20.0976311,23.3165825 19.7071068,23.7071068 L16.7071068,26.7071068 C16.3165825,27.0976311 15.6834175,27.0976311 15.2928932,26.7071068 L12.2928932,23.7071068 C11.9023689,23.3165825 11.9023689,22.6834175 12.2928932,22.2928932 C12.6834175,21.9023689 13.3165825,21.9023689 13.7071068,22.2928932 L16,24.5857864 Z" fill="currentColor"></path><path d="M24.5857864,16 L22.2928932,13.7071068 C21.9023689,13.3165825 21.9023689,12.6834175 22.2928932,12.2928932 C22.6834175,11.9023689 23.3165825,11.9023689 23.7071068,12.2928932 L26.7071068,15.2928932 C27.0976311,15.6834175 27.0976311,16.3165825 26.7071068,16.7071068 L23.7071068,19.7071068 C23.3165825,20.0976311 22.6834175,20.0976311 22.2928932,19.7071068 C21.9023689,19.3165825 21.9023689,18.6834175 22.2928932,18.2928932 L24.5857864,16 Z" fill="currentColor"></path><path d="M6,17 C5.44771525,17 5,16.5522847 5,16 C5,15.4477153 5.44771525,15 6,15 L26,15 C26.5522847,15 27,15.4477153 27,16 C27,16.5522847 26.5522847,17 26,17 L6,17 Z" fill="currentColor"></path><path d="M15,6 C15,5.44771525 15.4477153,5 16,5 C16.5522847,5 17,5.44771525 17,6 L17,26 C17,26.5522847 16.5522847,27 16,27 C15.4477153,27 15,26.5522847 15,26 L15,6 Z" fill="currentColor"></path></g></svg>