<svg id="ICONS" xmlns="http://www.w3.org/2000/svg" viewBox="0 0 250 250"><defs><style>.cls-1{fill:none;}.cls-1,.cls-2{stroke:#333;stroke-linecap:round;stroke-linejoin:round;stroke-width:7px;}.cls-2{fill:#333;}</style></defs><g id="pencil-line"><path class="cls-1" d="M105.32,182.77C109,179.09,163.71,123,163.71,123c3-3-.15-7.52-3.52-12.82s-19.64-20.12-24.25-23-8.65-4-11.75-.92L63.63,146.82a7.09,7.09,0,0,0-2.23,4.81,5,5,0,0,0,1.28,4,145.9,145.9,0,0,0,32,31.29C98.44,189.64,101.64,186.45,105.32,182.77Z"/><path class="cls-1" d="M61.5,150.69c-3.87,13.31-6.29,33.81-9,47.4,0,0,37.61-8.07,44.18-10.23"/><path class="cls-2" d="M56.24,176.26l17.12,17.12c-5.67.77-20.82,4.71-20.82,4.71Z"/><path class="cls-1" d="M192.71,77.62c-3.37-5.3-19.63-20.13-24.24-23s-8.65-4-11.75-.92L144,66.44a162.08,162.08,0,0,1,38.79,37.3c7.9-7.87,13.43-13.3,13.43-13.3C199.28,87.39,196.09,82.92,192.71,77.62Z"/><line class="cls-1" x1="141.31" y1="93.94" x2="71.9" y2="163.35"/><path class="cls-1" d="M155.74,107.6c-24.77,25.08-44,44.64-68.78,69.72"/><path class="cls-1" d="M144,66.44,124.19,86.27M163.71,123l19.1-19.22"/></g></svg>