<svg id="ICONS" xmlns="http://www.w3.org/2000/svg" viewBox="0 0 250 250"><defs><style>.cls-1{fill:none;stroke:#333;stroke-linecap:round;stroke-linejoin:round;stroke-width:7px;}</style></defs><g id="pointer"><path class="cls-1" d="M138.54,95.27c0-14.76-.08-39.33-.12-54.09,0-7.14.68-15.61,6.85-19.2a6.45,6.45,0,0,1,3.15-1,6.74,6.74,0,0,1,3.94,1.53c5,3.73,6.58,10.46,7.59,16.63,7.23,44.25,4.47,83.45,1.69,128.2"/><path class="cls-1" d="M164.53,91.2c8,.86,10.55,7,10.6,15s-5.82,22.48-11.76,31.49"/><path class="cls-1" d="M135.84,72.29c-4.11-2.92-10.19-1-13.46,2.86s-4.44,9-5.5,13.92c-.82,3.8-1.16,8.41-1.6,12.28"/><path class="cls-1" d="M118.61,77.17C105,74.25,91.16,83.91,84.68,96.25s-5.54,27.19-5.33,41.13C79.59,153.67,80,178,80,178"/><path class="cls-1" d="M98.74,105.05a81.75,81.75,0,0,1,3.72-25.13"/><path class="cls-1" d="M163.49,167.38c5.53,0,3.41,32.45,1.38,48.55-26,8.71-61.88,13-82.5,13-6.21,0-7.47-4.18-7.5-12s.4-22.57.4-31.6,8.13-7.84,15.24-8.93C96.73,175.44,158,167.38,163.49,167.38Z"/><line class="cls-1" x1="85.66" y1="213.65" x2="85.66" y2="218.57"/></g></svg>