<svg id="ICONS" xmlns="http://www.w3.org/2000/svg" viewBox="0 0 250 250"><defs><style>.cls-1{fill:#02abf8;}.cls-2{fill:none;stroke:#333;stroke-linecap:round;stroke-linejoin:round;stroke-width:7px;}</style></defs><g id="positive-color"><path class="cls-1" d="M107.86,172.16c12.74,5.11,25.52,4.19,37.52-2.83,6.65-3.89,14.09-7.44,18-14,3.73-6.23,7.83-12.18,10.13-19.2,3.26-9.92,2.35-19.91-1.42-29.57A45.66,45.66,0,0,0,160.68,89.9a47.58,47.58,0,0,0-22.81-12.17C112,71.79,86.31,83,78.14,109.11c-3.85,12.26-4.84,25.22.82,37.21C84.27,157.58,94.55,165.41,107.86,172.16Z"/><path class="cls-2" d="M115.4,62.05C98.08,64,84.32,72.62,75.08,87.65,70,96,63.76,104.4,63.28,114.09c-.46,9.2-1.5,18.32.12,27.55,2.29,13.05,9.28,23.7,19.28,32.26,6.72,5.76,13.92,9.29,22.74,11.82a60.48,60.48,0,0,0,32.82,0c32.48-8.79,54.55-36.75,48.12-70.83-3-16-9.66-31.13-23.16-41.17C150.52,64.28,134.33,61.65,115.4,62.05Z"/><path class="cls-2" d="M99.2,126.21l18,18.12c7.71-8,14.49-16.34,22.92-23.57,3.71-3.17,7.32-6.46,10.93-9.75"/></g></svg>