<svg id="ICONS" xmlns="http://www.w3.org/2000/svg" viewBox="0 0 300 250"><defs><style>.cls-1{fill:none;stroke:#333;stroke-linecap:round;stroke-linejoin:round;stroke-width:7px;}.cls-2{fill:#feaabc;}</style></defs><g id="present-color"><path class="cls-1" d="M259.68,140.16c-27.85-1.73-56.1,1.36-84.13,1.36-37.69,0-75.3-1.36-112.87-1.36-9.88,0-19.51.11-29.16,1.46-2,7.09-2.36,15.13-3.48,22.74-1.33,9-2.39,18.25-2,27.49,15.93,2.9,33.67,2,49.94,2.15,27.93.26,56-.81,83.85.34,24.87,1,50.18.79,75-.4,10.74-.51,24,.93,34.28-2.09C271.59,184.08,276,141.52,259.68,140.16Z"/><path class="cls-2" d="M261.13,84.06c-.81-21.59-24-32.59-40.28-33.5s-34.16,9.87-52.79,32.08c-8,9.53-12.94,19.23-14.69,28.83,0,0,0,.06,0,.09A101.17,101.17,0,0,0,146.9,91c-2.89-6.62-10.66-20.67-19.34-26.44a55.16,55.16,0,0,0-24.36-8.7C85.78,54,62.28,68.84,57.48,84.69c-2.31,7.64-.1,19.25,13,28.89,9.51,7,20.78,10.68,31.67,14.25,1.95.64,3.89,1.28,5.8,1.93,1.32.44,2.67.91,4.06,1.39a196.53,196.53,0,0,0,19.91,6.1c-.46,4.52-.79,9.56-1.12,14.46-.24,3.47-.46,6.75-.71,9.78-.75,8.91-.73,20.07-.7,29.91V196a3.5,3.5,0,0,0,3.5,3.5l40.72.05h0a3.51,3.51,0,0,0,3.5-3.29c.1-1.7,2.32-39.45-.25-58,3.57-.59,7-1.34,10.6-2.23A214.77,214.77,0,0,0,228.41,121l.29-.14C243.51,113.92,261.93,105.25,261.13,84.06Zm-116,42.66c-2.23-1.08-4.65-2.23-7.19-3.44-17.7-8.4-43-20.42-52.29-34,5.92-2.42,12.43-4.7,19-3.78,9.21,1.29,16.71,5.43,24.32,13.41C136,106.2,141.19,115.17,145.16,126.72Zm64.28-21c-8.34,5.37-15.54,9.52-23.6,12.32-4.2,1.46-9.68,3-14.21,4.22,1.12-1.76,2.22-3.44,3.37-5,5.3-7.33,12.14-13.6,18.68-19.38,11-9.76,20.89-17.65,33.89-20.59C230.15,85.76,227.63,94,209.44,105.74Z"/></g></svg>