<svg xmlns="http://www.w3.org/2000/svg" viewBox="0 0 850 820"><defs><style>.cls-1{fill:#f4f6f9;}.cls-2{fill:none;stroke:#333;}.cls-2,.cls-3{stroke-linecap:round;stroke-linejoin:round;stroke-width:7px;}.cls-3{fill:#feaabc;stroke:#feaabc;}.cls-4{fill:#333;}</style></defs><g id="CHARACTERS"><g id="Relax"><g id="BG"><path class="cls-1" d="M82.66,425.2c-11.5-81.81-22.24-210.48,71-251.92,1.66-.74,3.3-1.38,4.92-1.95a10,10,0,0,1,.41-1.84c-.47-.68-1-1.36-1.4-2.05-5.62-8.55-10.4-21.12-1.87-29.52l.11-.09c-5.26-13.36,1.42-23.16,14.59-24.46,14.05-1.4,24.56-2.48,33-9.77,2-1.7,4.43,0,4.08,2.38a14.55,14.55,0,0,1-4.66,8.84c16.2-.52,33.11,3.16,47.91,6,10,1.91,21.15,6.5,32.95,11.51C274.21,138.8,252,151.08,252,151.08s9.54,17.07,16,29.4a274.65,274.65,0,0,1,15.3,36.25l.08.16c3.52-1.76,7.8-.81,12.18,5.26,1.43,2,2.35,6.07,2.18,10h0c8.24.13,14,7.56,21.93,12,9.1,5.15,15.8,9.39,23.74,16.57,8.35,7.56,13.6,18,18.74,27.81,3.1,5.91,3.66,6.93,9.91,8.9,8.51,2.7,14.52,3.33,16.84,8.38s2,10.25,2,13.61c0,0,6.34-.86,10.75,2,5.3,3.49,5.25,7.6,3,15.26,4.55-6,13-9.78,19.9-12.16,8.63-3,20.49-5.22,29.77-3.29A30.49,30.49,0,0,1,465.93,327c2.84-2.42,12.54-8.34,20.83-10.17s20.82-5,24.82,4.28l21.66,4a13.67,13.67,0,0,1,.18,1.77h0c12.48-7.74,29.59-6.17,42.29-5,10.46-30.77,8.36-65.44-3.29-96.73-18.05-48.42-48-83-95.36-116.91S357.64,50,315.07,50s-125.26,3.61-152,10.3C137.8,66.57,114.54,78,94.81,95c-17.64,15.25-32,34.52-42.67,55.17-25.35,49-30.29,105.21-28.95,159.51.67,26.94,2.69,53.79,16.73,77.48,11,18.59,26.93,33.46,44,46.51C83.42,430.57,83,427.7,82.66,425.2Z"/><path class="cls-1" d="M405.42,453.47c0,.45.05.91.07,1.39l3.73-1.75Z"/></g><g id="Character"><path class="cls-2" d="M615.35,609.06a315.79,315.79,0,0,1,24.25,35.33c7.23,12.19,39.32,57.8,39.32,57.8"/><path class="cls-2" d="M202.49,626.93s-31.52,42.75-43,57.55c-11.87,15.33-23.88,30.44-35.22,46.09-6.14,8.47-25.11,31-27.85,34.29"/><path class="cls-2" d="M301,617.49s-25.86,34.33-34.42,47.42-19.71,24.36-28.26,37.46C233,710.58,209,741.28,209,741.28"/><path class="cls-2" d="M399.73,610.06s16.51,20,22.75,29.36c12.37,18.58,26,35.52,37.76,54.68C474.38,717.26,490,743.73,505.3,765"/><path class="cls-3" d="M501.4,534.88c-2.4-11-5.11-21.92-6.53-33.14a55.12,55.12,0,0,1-.34-13.52c-1.7,5.23-3.94,9.44-6.75,8.95-2.24-.4-5.06-5.27-7.17-11.47a15.78,15.78,0,0,1-1.83,3c-5.1,6.08-32.47,4.79-32.47,4.79l-5.5-17.83c-3.26,2-7.59,1.73-8.79-2.95h0a5.67,5.67,0,0,1-4.41,3.17c-5.6.91-9.69-4.74-9.69-7.41h0a6.16,6.16,0,0,1-4.47,2.48c-8.1.69-7.76-7-7.93-15.48s-2.6-12.31-4.95-18.2c-13.64,3.63-20.68-8.09-15.29-21.78-8.51,0-18.25,1.3-23-2.74-.34.82-.65,1.64-.93,2.48,0,0-35.65,2.52-53.09,2.32-18.29-.2-44,.2-62.27.41-14.46.16-27.63,3.9-41.73,5.9-8.35,1.18-19,1.56-22.33-7.31-3.84-10.14-2.23-27.37-2.22-38.31,0-28.23.38-57.67-2.42-85.73-.84-8.44-3.56-26.11,0-34.52,3.87-9.06,12.65-12.79,19.11-14.59L199,229c.52-.12,1.06-.26,1.61-.42-2.65-8.67-7-21.21-10.36-28.51-2.14-4.59-4.29-12.46-7.91-16.68a27.31,27.31,0,0,1,2.37,5.39,2.47,2.47,0,0,1-3,3c-4.58-1.47-8.12-4.32-11.31-7.74-7.37-.66-12.61-6.62-11.83-12.76-1.62.57-3.27,1.22-4.93,2-93.21,41.44-82.47,170.11-71,251.92,2.86,20.33,9.72,65.15,9.72,65.15-5.37,5.8-7.51,17.77-7.51,27.49,0,13.27,2.33,32.5,8.14,55.42s14.11,37.75,23.93,50.36,31.34,19.4,43.29,19.69c50.12,1.21,98.38-9,148-13.81,50.08-4.89,100.52-2.14,150.66-6.85,15.7-1.48,44.72-1.18,63.85-6.69-.93-3.25-1.8-6.34-2.59-9.19C513.53,582.91,506.68,559.11,501.4,534.88Z"/><path class="cls-3" d="M632.1,437c-4.24-29.49-11.58-60.94-39.41-76.53-2.54-1.43-5.16-2.73-7.83-4a19.67,19.67,0,0,1-9-1.87c-5.75-2.51-13-5.87-21.56-6.77a217.47,217.47,0,0,0-24.38-1.06h0c-.94,1.68-2,1.19-6.85,2.06-8.51,1.51-18.25,1.62-26.72,3-20.09,3.29-42.29,3.37-61.72,8.34-6.9,1.77-30.29,6.06-30.29,6.06l-.26,0c2.57,6.67,1.35,15.66,3.84,23l-.34.46c1,.55,2,1.1,2.92,1.68L411,391c11.95-5,22.37-10.7,35.36-15.14,15.74-5.38,37.5-9,52.34,1.67,2.13,1.53,11.24,8.1,22.87,16.8,8.56.32,16.71,3.54,24.05,7.2,11.58,5.77,18.15,17.55,22.94,29.93l1.59,1.38c10.15,8.88,34.56,28.23,61.36,49.42C634.51,467.42,634.23,451.83,632.1,437Z"/><path class="cls-2" d="M450.89,575.15c5.17-8.74,14.34-35.7,11.44-45.71-2.77-9.53-11.25-11.78-17.18-4.26,2.19-16.37,3.5-31.59-4.66-47.34"/><path class="cls-2" d="M188.52,423.18c-18.13,1.31-26.28,10.41-30.18,15.3-5.28,6.62-10,17-7.28,28.23-6.38-6.39-13.28-4.36-18.38,1.1-5.57,5.95-9.5,19.89-10.34,28.34"/><path class="cls-2" d="M127.46,244.57c6.1-3.37,13.57-8,21.31-.71,4,3.77,8.24,18.86,8.12,24.83-.29-9.38,14.24-14.35,18.6-4.64"/><path class="cls-2" d="M247.29,299.06c6.69,9.54,9.76,23.31,11.6,34.82,2.09,13.13-.35,17.91-6,29.27,3.93-8.27,8.77-12,14.61-8.62,6.16,2-.64,10.48-9.58,17,8.35-6.73,17.09-12.71,28.44-12.17,9.94.48,19.33,2.92,29.3,2.42,9.27-.46,17.06-4.14,26.08-4.05,12.3.13,21,5.36,27.44,11.44-20.58-1.53-35.69,27.17-34.18,47.66"/><path class="cls-2" d="M196.42,243.41c-6.46,1.8-15.24,5.53-19.11,14.59-3.6,8.41-.88,26.08,0,34.52,2.8,28.06,2.45,57.5,2.42,85.73,0,10.94-1.62,28.17,2.22,38.31,3.37,8.87,14,8.49,22.33,7.31,14.1-2,27.27-5.74,41.73-5.9,18.31-.21,44-.61,62.27-.41,17.44.2,53.09-2.32,53.09-2.32,4.86-14.43,18.52-27.3,35.92-31.6-7.29-5.47-19.32-12.47-28.05-14.5"/><path class="cls-2" d="M260.31,223.72C249.76,215.06,216.82,225,199,229l-2.58,14.38c12.73,0,24.62,5.74,37.07,3.07,16-3.44,12.27-22.92,24.3-23.52,7-.35,18.27,23.64,22,31.38-4.5-10.93-7.42-23.19-2.42-26.86s9.09,14.78,15,13.76c7-1.21,6.25-14.91,3.23-19.09-10-13.89-19.51-1-20.66,10"/><path class="cls-2" d="M279.76,254.34c6.61,11.47,1.3,21.33,9.25,29.72,4.5,4.75,12.32,3.09,16.25,4.25,7.18,2.13,12.74,10.24,14.3,17,1.61,7,.63,11.33,4.28,15.71,2.12,2.54,5.94,4.29,8.92,7.51,4,4.35,8.45,13.75,7.75,28.37"/><path class="cls-2" d="M322.21,264.05a284.1,284.1,0,0,1,35.84,42.82c5.38,7.89,5.72,16.16,9.93,24,3.38,6.29,9.08,7.18,14.33,11.54,3.23,2.68,4.77,6.53,7.29,9.59,3.35,4.05,7.3,5.67,11.08,9.16,6.95,6.44,4,18.65,7.2,28.09"/><path class="cls-2" d="M394.24,384.49c17.27,4.07,31.25,14,38.27,28.27,8,16.36,10.91,28.78,12.4,46.89.33,4.07.78,9.82-1.39,13.34-2.76,4.47-9.91,6-11.5-.25"/><path class="cls-2" d="M362.26,412.76c4.75,4,14.5,2.74,23,2.74-5.39,13.69,1.65,25.41,15.29,21.78,2.35,5.89,4.78,9.71,4.95,18.2s-.17,16.17,7.93,15.48c10.88-.92,7.48-26,4.57-32"/><path class="cls-2" d="M417.92,468.49c0,2.67,4.08,8.32,9.68,7.41s5.69-6.9,5.58-11.75c-.23-9.73-1.75-23.94-5.17-32.17"/><path class="cls-2" d="M422.38,399.09c5.86,4.77,24.9,18.22,23.75,27.28-1.24,4.74-6.35,1.18-6.35,1.18"/><path class="cls-2" d="M297.75,232.12c8.24.13,14,7.56,21.93,12,9.1,5.15,15.8,9.39,23.74,16.57,8.35,7.56,13.6,18,18.74,27.81,3.1,5.91,3.66,6.93,9.91,8.9,8.51,2.7,14.52,3.33,16.84,8.38s2,10.25,2,13.61c0,0,6.34-.86,10.75,2,5.3,3.49,5.25,7.6,3,15.26,4.55-6,13-9.78,19.9-12.16,8.63-3,20.49-5.22,29.77-3.29A30.49,30.49,0,0,1,465.93,327c2.84-2.42,12.54-8.34,20.83-10.17s20.82-5,24.82,4.28c-2.07,5.72-4.88,24.91-6.13,30.1"/><path class="cls-2" d="M511.58,321.09l21.66,4c.69,3.88-.4,14.07-1.72,17.59-2.46,6.55-1.32,4.9-8.49,6.17-8.51,1.51-18.25,1.62-26.72,3-20.09,3.29-42.29,3.37-61.72,8.34-6.9,1.77-30.29,6.06-30.29,6.06"/><path class="cls-2" d="M529.88,346.75a217.47,217.47,0,0,1,24.38,1.06c8.58.9,15.81,4.26,21.56,6.77s12.61,3.16,14.65-1.81-3.64-9.7-8.21-11.36c-9.54-3.46-12.75-4.88-19.8-4.88"/><path class="cls-2" d="M533.46,326.81c13.3-8.25,31.85-5.92,44.73-4.8,8.69.75,18.21,7.51,20.52,16.51,1.36,5.25-.15,20.55-5.45,20.79"/><path class="cls-2" d="M577.43,333.42c1.45.95,2,2.82,2,5.1"/><path class="cls-2" d="M596.39,356.93c.37,4.38,2.27,6.82,6.6,6.84s8-9.25,6.52-20.79-11-21.89-27.36-20.23"/><path class="cls-2" d="M445.19,421.57s52-21.8,64.73-25.78,25.07.4,35.68,5.69c18.43,9.19,24.18,33.59,30.23,51.42,5.85,17.27,8.89,35.71,13.59,53.29,5,18.6,9.66,37.35,13.78,56.16,4.8,21.95,24.93,89.83,23,98.13-1.66,7-17.4,12.24-40.15,20.67A202.09,202.09,0,0,1,545.1,691.8s-16.76-55.39-25-85c-6.6-23.86-13.45-47.66-18.73-71.89-2.4-11-5.11-21.92-6.53-33.14-1.52-11.91-.14-17.45,3.32-29.08-1.29,6.7-4.64,25.53-10.41,24.51s-15.44-31.69-6.7-38.6c10.93-8.76,2.79,24.07-2.3,30.16s-28.47,4.79-28.47,4.79"/><path class="cls-2" d="M570.13,432.79c24.51,21.45,132.2,104,155.84,126,2.93,2.73,6.33,5.24,5.94,9.18-.38,3.74-7.39,10-9.73,12.91-9.82,12.36-21,29.85-28.84,43.24-5,8.5-6.83,5.58-16.5-1.74-11.41-8.63-20.6-16-31.83-24.93-13.54-10.8-25.81-19.35-40.81-30.49"/><path class="cls-2" d="M411,391c11.95-5,22.37-10.7,35.36-15.14,15.74-5.38,37.5-9,52.34,1.67,2.13,1.53,11.24,8.1,22.87,16.8"/><path class="cls-2" d="M623.54,665.64s9.07,32.91,12.82,46.92c3.3,12.29,10,38.4,10,38.4"/><path class="cls-2" d="M558.94,690.8c2.82,10.86,18.18,64.33,18.18,64.33"/><path class="cls-2" d="M649.76,751.77c3.16-9,0-31.63,15.33-31.63,6.59,1.34-2.25,16.78-6.61,22.92.6-5.89,15.51-15.14,17.92-7.24C680.32,748.71,655.46,747.28,649.76,751.77Z"/><path class="cls-2" d="M793,617.48c-4.94-4.86-16.54-27.25-8.89-33.93,9.64-8.41,12.59,15.63,12.29,21.25-4.69-8.39,8.07-31.12,12.57-15.5C810.91,596.16,795.81,617.89,793,617.48Z"/><line class="cls-2" x1="731.04" y1="570.26" x2="787.99" y2="619.56"/><line class="cls-2" x1="697.41" y1="617.32" x2="738.01" y2="650.48"/><path class="cls-2" d="M200.34,227a208.33,208.33,0,0,0-10.09-26.93c-2.47-5.32-5-15-9.75-18.39-17,9.54-32.19-11.35-13.33-20.44-11.32-18.33-5.72-36.2,15.78-43.22s46.72-1.26,67.73,2.76c10,1.91,21.15,6.5,32.95,11.51C274.21,138.8,252,151.08,252,151.08s9.54,17.07,16,29.4a274.65,274.65,0,0,1,15.3,36.25"/><path class="cls-2" d="M223.76,168.7c4.36,3.52,10.09,1.68,14.11-1.79"/><path class="cls-2" d="M209.15,151.58c-1.61,4.84-5,7.52-11.15,5.07"/><path class="cls-2" d="M221.32,142.45c4.27,2.44,11.72,1.67,12.17-5.07"/><path class="cls-4" d="M684.33,760.64c-12.15-11.73-30.4-10-45.92-9.35-20.46.79-62.72,1.41-63.75,1.72-7.24,2.16-8.45,12.07-1.59,15.57,4,2,9.1,1.39,13.4,1.33l20-.26c25.63-.34,50.75-1,76.37-3.65C684.66,765.82,685.59,761.86,684.33,760.64Z"/><path class="cls-4" d="M826.3,610.26c-5.21-5-12.48-3.79-18.69-1.52a238.08,238.08,0,0,0-25.55,11.39,297.61,297.61,0,0,0-46.58,29.34,7.64,7.64,0,0,0-3.14,2.54c-2,2.81-2,6.75.89,9,2.76,2.07,6.52,1.26,9.45,0,5.48-2.38,10.67-5.82,15.88-8.74q33.72-18.88,67.25-38.11A2.47,2.47,0,0,0,826.3,610.26Z"/><path class="cls-4" d="M182.34,183.42a10.13,10.13,0,0,0-1.84-1.71,17.45,17.45,0,0,1-10.11,2.37c3.19,3.42,6.73,6.27,11.31,7.74a2.47,2.47,0,0,0,3-3A27.31,27.31,0,0,0,182.34,183.42Z"/><path class="cls-4" d="M203.35,103.6c-8.4,7.29-18.91,8.37-33,9.77-13.17,1.3-19.85,11.1-14.59,24.46l-.11.09c-8.53,8.4-3.75,21,1.87,29.52.45.69.93,1.37,1.4,2.05a13.32,13.32,0,0,1,5.8-6.86,31.64,31.64,0,0,0,9.25,2c1.7.13,2.63-1.66,2.35-3.09-.76-4.07-1.49-8.15-2.3-12.21-.54-2.68-1.14-5.33-2.83-7.55a10.9,10.9,0,0,0-2.72-2.54,13,13,0,0,0,3.54-3.55c1.72-2.56,2.56-4.46,4.8-6.67a25.57,25.57,0,0,1,8.11-5.7c8.94-3.39,20.83-6.12,22.47-17.38C207.78,103.59,205.3,101.9,203.35,103.6Z"/></g></g></g></svg>