<svg id="ICONS" xmlns="http://www.w3.org/2000/svg" viewBox="0 0 250 250"><defs><style>.cls-1{fill:none;stroke:#333;stroke-linecap:round;stroke-linejoin:round;stroke-width:7px;}</style></defs><g id="success-line"><path class="cls-1" d="M166.3,176.23s-4.15,25.4-5.15,31.66c-1.57,9.82-8.41,10.35-17.32,9.84-11.43-.66-23.2-1.24-34.49-3.08-7.45-1.21-27.3-.5-30.56-9C77.58,202.54,81,182,81,182l2.74-34.42s4.69-51.87,5.45-58.62c.49-4.24.55-9.89,4-12.27,4.32-2.93,20.39-3.42,42-1.43s35.38,6,37.19,9.06-.11,17.56-.83,23.76c-.19,1.7-.91,10.73-1.75,21.7Z"/><line class="cls-1" x1="45.81" y1="161.9" x2="38.2" y2="167.71"/><line class="cls-1" x1="46.65" y1="71.3" x2="41.8" y2="67.1"/><line class="cls-1" x1="53.21" y1="59.91" x2="50.25" y2="54.86"/><line class="cls-1" x1="190.81" y1="57.13" x2="198.68" y2="49.28"/><line class="cls-1" x1="202.83" y1="132.5" x2="211.8" y2="130.41"/><line class="cls-1" x1="203.55" y1="149.87" x2="209.9" y2="151.41"/><path class="cls-1" d="M103.11,43a24.53,24.53,0,0,0-1.8-10.81"/><path class="cls-1" d="M108.58,142.74c3.6,5,7.44,11.15,11.11,16.63,10.27-8.5,20-19.49,29.73-28.64"/></g></svg>