<svg id="ICONS" xmlns="http://www.w3.org/2000/svg" viewBox="0 0 250 250"><defs><style>.cls-1{fill:none;}.cls-1,.cls-2{stroke:#333;stroke-linecap:round;stroke-linejoin:round;stroke-width:7px;}.cls-2{fill:#333;}</style></defs><g id="time-line"><path class="cls-1" d="M116.18,60.81c-20.85,0-38.35,8.52-51.3,25.2-7.18,9.24-15.66,18.45-17.5,29.91-1.74,10.9-4.16,21.6-3.44,32.8,1,15.83,8,29.4,18.72,40.9,7.26,7.73,15.36,12.87,25.53,17a72.29,72.29,0,0,0,39.05,4.26c39.79-6.22,69.69-36.61,66.48-78-1.51-19.47-7.44-38.3-22.19-52C157.68,68,138.77,62.8,116.18,60.81Z"/><path class="cls-1" d="M78,181.44c-12-9.16-21.45-30.89-19.77-52.14,1.43-18.11,18.51-42.08,36.31-47.36,11.12-3.3,24.2-6,35.76-5.3,17.67,1.07,28.59,11.09,37,26.1,12.82,23,13.5,50.54-4.61,71.22-12.4,14.15-25.75,19-44.46,20.94C109.15,195.85,90.06,190.59,78,181.44Z"/><path class="cls-1" d="M160.48,136.46s-32.31-2.37-47.71-2.73"/><path class="cls-2" d="M107.64,140.55c-7.79-7.29.25-18.2,8.58-16.65,7.06,1.32,13,13.44,5.45,18.66C118.19,145,111.59,144.77,107.64,140.55Z"/><path class="cls-1" d="M181.89,93.44A119.68,119.68,0,0,0,198,83.3"/><path class="cls-1" d="M191.09,70.78a259,259,0,0,0,15.1,24.36"/><path class="cls-1" d="M135.83,52s.74-8.4-.32-12.84c-6.5-2.45-18,.14-25.33.27a182.45,182.45,0,0,0-19.42,1.44,105.22,105.22,0,0,0,.79,11.36C105.49,52.08,119.66,50.4,135.83,52Z"/><line class="cls-1" x1="114.83" y1="60.81" x2="114.83" y2="52.24"/></g></svg>