<svg height='100px' width='100px'  fill="#000000" xmlns="http://www.w3.org/2000/svg" xmlns:xlink="http://www.w3.org/1999/xlink" viewBox="0 0 32 32" version="1.1" x="0px" y="0px"><title>Icons32px / Trash </title><desc>Created with Sketch.</desc><g stroke="none" stroke-width="1" fill="none" fill-rule="evenodd"><path d="M7,11 C6.44771525,11 6,10.5522847 6,10 C6,9.44771525 6.44771525,9 7,9 L25,9 C25.5522847,9 26,9.44771525 26,10 C26,10.5522847 25.5522847,11 25,11 L7,11 Z" fill="#000000"></path><path d="M22,10 C22,9.44771525 22.4477153,9 23,9 C23.5522847,9 24,9.44771525 24,10 L24,24 C24,25.6568542 22.6568542,27 21,27 L11,27 C9.34314575,27 8,25.6568542 8,24 L8,10 C8,9.44771525 8.44771525,9 9,9 C9.55228475,9 10,9.44771525 10,10 L10,24 C10,24.5522847 10.4477153,25 11,25 L21,25 C21.5522847,25 22,24.5522847 22,24 L22,10 Z M13,10 C13,10.5522847 12.5522847,11 12,11 C11.4477153,11 11,10.5522847 11,10 L11,8 C11,6.34314575 12.3431458,5 14,5 L18,5 C19.6568542,5 21,6.34314575 21,8 L21,10 C21,10.5522847 20.5522847,11 20,11 C19.4477153,11 19,10.5522847 19,10 L19,8 C19,7.44771525 18.5522847,7 18,7 L14,7 C13.4477153,7 13,7.44771525 13,8 L13,10 Z" fill="#000000"></path></g></svg>