<svg xmlns="http://www.w3.org/2000/svg" viewBox="0 0 820 820"><defs><style>.cls-1{fill:#f4f6f9;}.cls-2{fill:#ffe945;}.cls-3{fill:none;stroke:#333;stroke-linecap:round;stroke-linejoin:round;stroke-width:7px;}.cls-4{fill:#333;}.cls-5{fill:#9ed5f0;}</style></defs><g id="CHARACTERS"><g id="Unlock"><g id="BG"><path class="cls-1" d="M324.66,227.15c1.09,27.07,2.18,59.84,2.7,89.81h0s33.18-22.34,55.76-31a18.24,18.24,0,0,1,6.51-1.18l1.44-2.08c3.49-7.56,7.36-15.1,11-22.8-5.55-.78-6.1-7.94-6.13-12.91,0-1.73,0-3.47.1-5.2h0c-9.48-2.4-15.54-12.25-11.69-24.09,2.91-9,11.2-15.45,20.39-18a127.38,127.38,0,0,1,10.8-21.56,82.18,82.18,0,0,0-34.22-5,81,81,0,0,0-8.71,1.12,105.85,105.85,0,0,0-14.67.72c-17.09,2-33.62,7-49.6,13.5C320.39,194.7,324.05,211.75,324.66,227.15Z"/><path class="cls-1" d="M513.07,262.38a51.54,51.54,0,0,1-8.36-2.57c-2.48,5.8-5,11.37-7.16,16.38C491,291.25,476,326,476,326l-.29.74c.81.74,1.44,1.35,1.82,1.73,5,5,5.47,22,5.57,50s-.46,87.59,8.29,120.09c4.85,18,10.05,50.44,25.68,61.82,23.69,17.26,47.3-18.07,55.85-36.92,7.28-16,11.05-32.07,16.2-48.58,2.72-8.71,4.52-15.36,11.7-17,0,0,12.59-51.78,17.06-75.44,4-21.49,8.68-49.6,29.16-61.78,8.34-5,26.69-13.78,33.33-2.1,5.89-5.77,17.26-7.37,21.91-.71a77.48,77.48,0,0,0-20.87-52.22,80.14,80.14,0,0,0-33.68-21.79C633,239,617.2,240,602.33,243.7,572.91,251.09,544.51,269.19,513.07,262.38Z"/><path class="cls-1" d="M765,522.76c-2.79-15.22-11.86-28.16-23.17-38.38-12.86-11.63-27.5-21.5-41.34-31.91l-10.7-8.05-10.74,49.26-.12.4a35,35,0,0,1,4.73,6.55c11.34,20.58,5.49,54.81-2,75.39-2,5.43-7.31,14.94-13.5,22.15,1.49,7.76.19,17.3-2.46,26.9a161.92,161.92,0,0,0,25.41-4.55c28.33-7.56,56.17-25.06,68.23-52.79C765.57,553.47,767.85,538.12,765,522.76Z"/></g><g id="Character"><path class="cls-2" d="M770.39,378.23a17,17,0,0,0-31.47.76l-1.61,4.18c-2.07-.79-5-1.89-8.46-3.2a4.5,4.5,0,1,0-3.17,8.43l8.39,3.16L733,394.31a17,17,0,1,0,31.79,12.28l5.92-15.33A16.92,16.92,0,0,0,770.39,378.23ZM762.31,388l-5.91,15.32a8,8,0,0,1-15-5.79l5.91-15.32a8.06,8.06,0,0,1,7.51-5.14A8,8,0,0,1,762.31,388Z"/><path class="cls-3" d="M327.37,317s33.18-22.34,55.76-31c10.42-4,22.54,3.19,32.95,7.15,14.72,5.6,28.59,11.6,42,19.71,7.42,4.49,17.29,13.47,19.43,15.62,5,5,5.47,22,5.57,50s-.46,87.59,8.29,120.09c4.85,18,10.05,50.44,25.68,61.82,23.69,17.26,47.3-18.07,55.85-36.92,7.28-16,11.05-32.07,16.2-48.58,3.38-10.82,5.33-18.48,18-17.17,10.24,1.06,24,8.27,33,13,14.64,7.73,35.14,14.6,43.61,30,11.34,20.57,5.49,54.8-2,75.38-4.51,12.4-26.6,46.15-36.2,25-4.19-9.22,6.24-22.9,15.65-15.45,20.36,16.12-5.09,68.68-15.06,82.07"/><path class="cls-3" d="M377.08,304.68c-.47,12.42,4.43,43.72,14.95,52.25,16.34,13.24,39.05-17.22,48.92-26.17-.49,10.92-6.78,37.95,5.13,44.47,8.45,4.62,19-4,25-8.55"/><path class="cls-3" d="M423.08,366.68C414,377.26,404.86,388.36,396,404s-14.72,28.05-11,36.89c2.65,6.25,10.78,3.12,13.16,9.94,3.25,9.3-13.5,25-16.6,32.63-3.56,8.75-6.18,18-3.52,26.46,2.24,7.09,6.45,10.83,6,19-.44,8.93-17,34-17,39.77"/><line class="cls-3" x1="409.08" y1="424.68" x2="415.08" y2="425.68"/><path class="cls-3" d="M394.08,493.68c1.4.4,2.55.69,4,1"/><path class="cls-3" d="M382.08,563.68h5"/><path class="cls-3" d="M433.08,467.68c9.35,6.86,19.48,12.26,28,20"/><path class="cls-3" d="M458.08,469.68c-1.17,13.67-6.26,28.94-11,42"/><path class="cls-3" d="M449.08,464.68c-1.36,8.76-10,33.41-10,33.41"/><path class="cls-3" d="M600.8,457.9s12.59-51.78,17.06-75.44c4-21.49,8.68-49.6,29.16-61.78,8.34-5,26.69-13.78,33.33-2.1,7.19-7.05,22.6-7.89,23.87,5,9.33-5.6,18.35-.3,18,11,25.44,1.14,9.84,48.53-3,58.19-9.25,6.94-17.33,4.38-22-1.17"/><line class="cls-3" x1="679.08" y1="493.68" x2="700.65" y2="394.74"/><path class="cls-3" d="M611.08,417.68c15.69,0,30.58,1.06,44,5.78s27.51,12.29,33,20.29"/><path class="cls-3" d="M653.08,338.68c.4,3.47-.14,9.15,0,11"/><path class="cls-3" d="M680.35,318.58a45.38,45.38,0,0,1,7.56,29.12"/><path class="cls-3" d="M704.22,323.58c2.8,13.65,4.81,35.48-1.14,46.84-4.83,9.21-18.62,17.89-29.15,12.26"/><path class="cls-3" d="M722.22,334.6c0,29-15.28,75.49-43.14,49.82"/><path class="cls-2" d="M645,350.91c-26.8-9.29-65-23.07-65.38-23.21a4.5,4.5,0,1,0-3.05,8.46l2.8,1-4.18,9.19a4.51,4.51,0,0,0,2.24,6,4.4,4.4,0,0,0,1.86.41,4.51,4.51,0,0,0,4.1-2.64l4.48-9.86.3.1c-4.31,8.51-4.11,9.66-3,11.61a4.51,4.51,0,0,0,3.9,2.24,4.38,4.38,0,0,0,2.25-.61,4.48,4.48,0,0,0,2.23-3.48c.41-1.12,1.73-3.9,3.15-6.69,13.34,4.77,31,11,45.33,16a4.5,4.5,0,1,0,3-8.5Z"/><path class="cls-3" d="M391.08,282.68c6.42-13.91,14.16-27.75,19.09-42.63-16.26,7.72-31.4-5.25-25.84-22.37,5.2-16,27.52-24.09,41.55-16.15,5.67-19.07,21-44.42,42.2-46.85,28.72-3.29,49.43,22.15,64.92,42.44a218.37,218.37,0,0,1,20,32.38c-10.73-1.48-36.71-5.72-36.71-5.72-2.16,16.42-12.07,37-18.72,52.41C491,291.25,476,326,476,326"/><path class="cls-3" d="M465.08,231.68c2,5.1,6.49,11.41,13,11.41"/><line class="cls-3" x1="474.08" y1="203.68" x2="477.08" y2="209.68"/><line class="cls-3" x1="489.08" y1="202.68" x2="493.08" y2="209.68"/><path class="cls-3" d="M414.08,220.68c-2.82-.7-13.5-.89-11-1"/><path class="cls-4" d="M396,241.77c-.07,1.73-.11,3.47-.1,5.2,0,5,.58,12.13,6.13,12.91a180.89,180.89,0,0,0,8.12-19.83A20.83,20.83,0,0,1,396,241.77Z"/><path class="cls-4" d="M532.86,173.77c-15.08-4.63-23.38-20.24-36.65-28-12.95-7.56-30.24-8.58-41.72,2.3a26.84,26.84,0,0,0-3.52,4.15c-.48.7-.8,1.22-1.1,1.62a21.25,21.25,0,0,0-15,2c-7.13,3.91-12.31,11.73-16.78,18.3a126.91,126.91,0,0,0-13.39,25.55,28.87,28.87,0,0,1,18.93.76,62.56,62.56,0,0,0,5.15,19.88c1.23,2.77,5.58,2.46,6.91,0,8.68-16.1,28.6-32.16,26.29-51.49a193,193,0,0,0,69.79,12.8C536.36,181.6,537.16,175.08,532.86,173.77Z"/><path class="cls-3" d="M302.51,675.75c-20.41,2.12-65,3.79-106,3.79s-86.69.82-105.71.23-37-7-38.31-37.23-2-78.25-2.07-108.49c-.22-70.42-2.3-140.74-2.3-211.29,0-36.82-.06-72.35,6.11-108.53,3.22-18.89,21.13-25.23,38.6-28.29,29.87-5.23,47.66-3.24,78.05-4.79,43.76-2.24,110.66,3.25,129.31,5s23.71,22.56,24.45,41c1.46,36.27,2.93,82.79,3,119.08.16,74.87-1.38,150.67,2.58,225.27,1.38,26.18.29,58.9.29,70.25S322.93,673.64,302.51,675.75Z"/><path class="cls-3" d="M108.18,185.5c-22.67,9.59-27.31,29.15-28.33,57.55s-.53,83.9-.53,139.3.52,116.69.52,155.71-.11,77.83,1.67,103.69S96.16,679.92,114.85,680"/><path class="cls-5" d="M269.56,471.44c-2.57-48.81-5.55-54.1-6.67-56.1-3.47-6.16-9.84-9.47-16.75-11.18q-.06-3.29-.09-6.41c-.25-21.89-.44-39.18-20.13-53-8-5.64-24.54-8.5-41.78-1.49-22.67,9.24-23.07,34.42-23.36,52.81-.06,3.83-.11,7.47-.37,10.58l-.75.16c-16.85,4-17.83,26.44-18.54,42.84-.11,2.64-.22,5.13-.38,7.38-1.79,25-1.93,63.26-1.93,63.64a3.5,3.5,0,0,0,3.32,3.51c14,.74,27,1.07,39.89,1.07,27.22,0,53.59-1.46,86-3.47a3.49,3.49,0,0,0,3.28-3.57C271.34,518,270.81,495.22,269.56,471.44Zm-99.78-75.21c.28-17.63.6-37.62,17.76-44.61,10-4.06,25-5.25,33.22.52,15.9,11.14,16.06,24.9,16.29,45.71,0,1.6,0,3.24.06,4.91-2-.16-4-.23-5.82-.23-10.17,0-43.21.9-61.77,2.84C169.68,402.52,169.73,399.44,169.78,396.23Z"/><path class="cls-3" d="M176.83,408.59c-6.8,12.6-3.91,72.3-4.66,113.19"/><path class="cls-4" d="M226.18,460.24a12.73,12.73,0,0,0,11.52-12.75c0-6.63-4.53-11.58-11.43-12.61a43.12,43.12,0,0,0-12.42-.06l-1.23.12c-7.19.67-12.38,6.06-12.34,12.8a12.75,12.75,0,0,0,10.92,12.5c-3.49,12.78-8.93,29.24-9,29.44a3.51,3.51,0,0,0,3.32,4.61h.11l25.83-.79a3.49,3.49,0,0,0,3.25-4.5C234.65,488.78,229.83,472.66,226.18,460.24Z"/><path class="cls-3" d="M668.08,407.68c8.24-8.69,8.37-33.62-4.7-38.8,9.18-.57,31.94,1.28,34.71-11.25,1.78-8-9.81-10.37-16.48-10.86-18.67-1.38-43.22,5.24-52.18,23"/></g></g></g></svg>