<svg width="64" height="64" viewBox="0 0 64 64" fill="none" xmlns="http://www.w3.org/2000/svg">
<path d="M8.71638 64H0C0 58.2873 4.50346 55.5998 7.48156 53.8082C9.29747 52.7214 10.6776 51.8403 10.6776 51.1941C10.6776 50.5479 9.22484 49.7256 7.48156 48.5801C4.5761 46.8031 0 44.1744 0 38.3882C0 32.6021 4.50346 29.9881 7.48156 28.1964C8.93429 27.3006 10.6776 26.2873 10.6776 25.5971C10.6776 24.9068 8.97787 23.8788 7.48156 22.983C4.54705 21.2061 0 18.5039 0 12.7912C0 7.07847 4.50346 4.39101 7.48156 2.59936C8.93429 1.70353 10.6776 0.690225 10.6776 0H19.3939C19.3939 5.71271 14.905 8.40018 11.9269 10.1918C10.4742 11.0877 8.71638 12.101 8.71638 12.7912C8.71638 13.4814 10.4161 14.5094 11.9269 15.4052C14.8324 17.1822 19.3939 19.8843 19.3939 25.5971C19.3939 31.3098 14.905 33.9972 11.9269 35.7889C10.4742 36.6847 8.71638 37.698 8.71638 38.3882C8.71638 39.0785 10.1691 39.8568 11.9269 41.0023C14.8324 42.7939 19.3939 45.4814 19.3939 51.1941C19.3939 56.9068 14.905 59.609 11.9269 61.386C10.1691 62.4727 8.71638 63.3685 8.71638 64Z" fill="#FF4600"/>
<path d="M35.8788 0H28.1212V64H35.8788V0Z" fill="#FF4600"/>
<path d="M53.3159 64H44.6061C44.6061 58.2873 49.1061 55.5998 52.082 53.8082C53.8966 52.7214 55.2901 51.8403 55.2901 51.1941C55.2901 50.5479 53.8385 49.7256 52.082 48.5801C49.1787 46.8031 44.6061 44.1744 44.6061 38.3882C44.6061 32.6021 49.1061 29.9881 52.082 28.1964C53.5337 27.3006 55.2901 26.2873 55.2901 25.5971C55.2901 24.9068 53.5772 23.8788 52.082 22.983C49.1787 21.2061 44.6061 18.5039 44.6061 12.7912C44.6061 7.07847 49.1061 4.39101 52.082 2.59936C53.5337 1.70353 55.2901 0.690225 55.2901 0H64C64 5.71271 59.4999 8.40018 56.524 10.1918C55.0724 11.0877 53.3159 12.101 53.3159 12.7912C53.3159 13.4814 55.0143 14.5094 56.524 15.4052C59.4273 17.1822 64 19.8843 64 25.5971C64 31.3098 59.4999 33.9972 56.524 35.7889C55.0724 36.6847 53.3159 37.698 53.3159 38.3882C53.3159 39.0785 54.7676 39.8568 56.524 41.0023C59.4273 42.7939 64 45.4814 64 51.1941C64 56.9068 59.4999 59.609 56.524 61.386C54.7095 62.4727 53.3159 63.3538 53.3159 64Z" fill="#FF4600"/>
</svg>
