<?xml version="1.0" encoding="UTF-8"?>
<svg xmlns="http://www.w3.org/2000/svg" xmlns:xlink="http://www.w3.org/1999/xlink" width="24px" height="24px" viewBox="0 0 24 24" version="1.1">
<g id="surface1">
<path style=" stroke:none;fill-rule:nonzero;fill:currentColor;fill-opacity:1;" d="M 3.269531 24 L 0 24 C 0 21.859375 1.6875 20.851562 2.804688 20.179688 C 3.488281 19.769531 4.003906 19.441406 4.003906 19.199219 C 4.003906 18.957031 3.460938 18.648438 2.804688 18.21875 C 1.714844 17.550781 0 16.566406 0 14.394531 C 0 12.226562 1.6875 11.246094 2.804688 10.574219 C 3.351562 10.238281 4.003906 9.859375 4.003906 9.597656 C 4.003906 9.339844 3.367188 8.953125 2.804688 8.617188 C 1.707031 7.953125 0 6.9375 0 4.796875 C 0 2.65625 1.6875 1.648438 2.804688 0.976562 C 3.351562 0.640625 4.003906 0.257812 4.003906 0 L 7.273438 0 C 7.273438 2.140625 5.589844 3.148438 4.472656 3.820312 C 3.929688 4.15625 3.269531 4.539062 3.269531 4.796875 C 3.269531 5.054688 3.90625 5.441406 4.472656 5.777344 C 5.5625 6.441406 7.273438 7.457031 7.273438 9.597656 C 7.273438 11.742188 5.589844 12.75 4.472656 13.421875 C 3.929688 13.757812 3.269531 14.136719 3.269531 14.394531 C 3.269531 14.65625 3.8125 14.945312 4.472656 15.375 C 5.5625 16.046875 7.273438 17.054688 7.273438 19.199219 C 7.273438 21.339844 5.589844 22.351562 4.472656 23.019531 C 3.8125 23.425781 3.269531 23.761719 3.269531 24 Z M 3.269531 24 "/>
<path style=" stroke:none;fill-rule:nonzero;fill:currentColor;fill-opacity:1;" d="M 13.453125 0 L 10.546875 0 L 10.546875 24 L 13.453125 24 Z M 13.453125 0 "/>
<path style=" stroke:none;fill-rule:nonzero;fill:currentColor;fill-opacity:1;" d="M 19.992188 24 L 16.726562 24 C 16.726562 21.859375 18.414062 20.851562 19.53125 20.179688 C 20.210938 19.769531 20.734375 19.441406 20.734375 19.199219 C 20.734375 18.957031 20.1875 18.648438 19.53125 18.21875 C 18.441406 17.550781 16.726562 16.566406 16.726562 14.394531 C 16.726562 12.226562 18.414062 11.246094 19.53125 10.574219 C 20.074219 10.238281 20.734375 9.859375 20.734375 9.597656 C 20.734375 9.339844 20.089844 8.953125 19.53125 8.617188 C 18.441406 7.953125 16.726562 6.9375 16.726562 4.796875 C 16.726562 2.65625 18.414062 1.648438 19.53125 0.976562 C 20.074219 0.640625 20.734375 0.257812 20.734375 0 L 24 0 C 24 2.140625 22.3125 3.148438 21.195312 3.820312 C 20.652344 4.15625 19.992188 4.539062 19.992188 4.796875 C 19.992188 5.054688 20.628906 5.441406 21.195312 5.777344 C 22.285156 6.441406 24 7.457031 24 9.597656 C 24 11.742188 22.3125 12.75 21.195312 13.421875 C 20.652344 13.757812 19.992188 14.136719 19.992188 14.394531 C 19.992188 14.65625 20.539062 14.945312 21.195312 15.375 C 22.285156 16.046875 24 17.054688 24 19.199219 C 24 21.339844 22.3125 22.351562 21.195312 23.019531 C 20.515625 23.425781 19.992188 23.757812 19.992188 24 Z M 19.992188 24 "/>
</g>
</svg>
