<?xml version="1.0" encoding="UTF-8"?>
<svg width="80px" height="80px" viewBox="0 0 80 80" version="1.1" xmlns="http://www.w3.org/2000/svg" xmlns:xlink="http://www.w3.org/1999/xlink">
    <title>1490FCB8-ECAC-4111-939D-9D60BA6C63DA</title>
    <defs>
        <polygon id="path-1" points="0 0.621384615 9.61038462 0.621384615 9.61038462 10.2321538 0 10.2321538"></polygon>
    </defs>
    <g id="Clean" stroke="none" stroke-width="1" fill="none" fill-rule="evenodd">
        <g id="Homepage-(desktop)" transform="translate(-100.000000, -40.000000)">
            <g id="kelp-logo-mark-(in-circle)" transform="translate(100.000000, 40.000000)">
                <circle id="Oval" fill="#FFFFFF" cx="40" cy="40" r="40"></circle>
                <g id="Logo" transform="translate(20.000000, 17.692308)">
                    <g id="Group-3" transform="translate(0.000000, 11.169000)">
                        <mask id="mask-2" fill="white">
                            <use xlink:href="#path-1"></use>
                        </mask>
                        <g id="Clip-2"></g>
                        <path d="M3.07653846,5.42676923 C3.07653846,4.47369231 3.85192308,3.69830769 4.805,3.69830769 C5.75807692,3.69830769 6.53346154,4.47369231 6.53346154,5.42676923 C6.53346154,6.37984615 5.75807692,7.15523077 4.805,7.15523077 C3.85192308,7.15523077 3.07653846,6.37984615 3.07653846,5.42676923 M9.61038462,5.42676923 C9.61038462,2.77676923 7.45423077,0.621384615 4.805,0.621384615 C2.15576923,0.621384615 -0.000384615385,2.77676923 -0.000384615385,5.42676923 C-0.000384615385,8.076 2.15576923,10.2321538 4.805,10.2321538 C7.45423077,10.2321538 9.61038462,8.076 9.61038462,5.42676923" id="Fill-1" fill="#000000" mask="url(#mask-2)"></path>
                    </g>
                    <path d="M4.80507692,8.99246154 C6.00123077,8.99246154 6.97046154,8.02323077 6.97046154,6.82707692 C6.97046154,5.63092308 6.00123077,4.66169231 4.80507692,4.66169231 C3.60892308,4.66169231 2.63969231,5.63092308 2.63969231,6.82707692 C2.63969231,8.02323077 3.60892308,8.99246154 4.80507692,8.99246154" id="Fill-4" fill="#000000"></path>
                    <path d="M35.2828462,18.4440769 C34.3305385,18.4440769 33.5551538,17.6686923 33.5551538,16.7156154 C33.5551538,15.7625385 34.3305385,14.9871538 35.2828462,14.9871538 C36.2359231,14.9871538 37.0113077,15.7625385 37.0113077,16.7156154 C37.0113077,17.6686923 36.2359231,18.4440769 35.2828462,18.4440769 M35.2828462,11.9102308 C32.6336154,11.9102308 30.4782308,14.0663846 30.4782308,16.7156154 C30.4782308,19.3656154 32.6336154,21.521 35.2828462,21.521 C37.9320769,21.521 40.0882308,19.3656154 40.0882308,16.7156154 C40.0882308,14.0663846 37.9320769,11.9102308 35.2828462,11.9102308" id="Fill-6" fill="#000000"></path>
                    <path d="M35.3121538,8.28146154 C36.5083077,8.28146154 37.4775385,7.31223077 37.4775385,6.11607692 C37.4775385,4.91992308 36.5083077,3.95069231 35.3121538,3.95069231 C34.116,3.95069231 33.1467692,4.91992308 33.1467692,6.11607692 C33.1467692,7.31223077 34.116,8.28146154 35.3121538,8.28146154" id="Fill-8" fill="#000000"></path>
                    <path d="M35.8011538,25.872 C34.9519231,25.872 34.2626923,26.5612308 34.2626923,27.4104615 C34.2626923,33.3881538 30.425,38.4727692 25.0880769,40.3673846 C24.5665385,37.8635385 22.5080769,36.4843077 20.8065385,35.3473846 C18.9226923,34.0889231 17.7680769,33.2366154 17.7657692,31.6466154 C17.7634615,30.0573846 18.9165385,29.202 20.7973077,27.9381538 C22.7557692,26.622 25.1934615,24.9843077 25.1896154,21.672 C25.1857692,18.3596923 22.7434615,16.7281538 20.7819231,15.4173846 C18.8973077,14.1581538 17.7426923,13.3066154 17.7403846,11.7166154 C17.7388462,10.1273846 18.8911538,9.272 20.7719231,8.00892308 C22.7311538,6.69276923 25.1688462,5.05507692 25.1642308,1.74276923 C25.1626923,0.894307692 24.4742308,0.206615385 23.6257692,0.206615385 L23.6234615,0.206615385 C22.7734615,0.208153846 22.0857692,0.897384615 22.0873077,1.74738462 C22.0896154,3.33661538 20.9373077,4.19123077 19.0557692,5.45507692 C17.0973077,6.77046154 14.6596154,8.40815385 14.6634615,11.7204615 C14.6673077,15.0327692 17.1096154,16.6643077 19.0719231,17.9750769 C20.9557692,19.2343077 22.1103846,20.0866154 22.1126923,21.6750769 C22.115,23.2650769 20.9619231,24.1204615 19.0811538,25.3843077 C17.1226923,26.7004615 14.685,28.3381538 14.6888462,31.6512308 C14.6934615,34.9635385 17.135,36.5950769 19.0973077,37.9066154 C20.7573077,39.0150769 21.8488462,39.8104615 22.0873077,41.0704615 C21.5673077,41.1304615 21.0411538,41.1689231 20.5042308,41.1689231 C12.9180769,41.1689231 6.74653846,34.9966154 6.74653846,27.4104615 C6.74653846,26.5612308 6.05730769,25.872 5.20807692,25.872 C4.35807692,25.872 3.66961538,26.5612308 3.66961538,27.4104615 C3.66961538,36.6935385 11.2219231,44.2458462 20.5042308,44.2458462 C29.7873077,44.2458462 37.3396154,36.6935385 37.3396154,27.4104615 C37.3396154,26.5612308 36.6503846,25.872 35.8011538,25.872" id="Fill-14" fill="#000000"></path>
                </g>
            </g>
        </g>
    </g>
</svg>