<?xml version="1.0" encoding="UTF-8" standalone="no"?>
<svg
   xmlns:dc="http://purl.org/dc/elements/1.1/"
   xmlns:cc="http://creativecommons.org/ns#"
   xmlns:rdf="http://www.w3.org/1999/02/22-rdf-syntax-ns#"
   xmlns:svg="http://www.w3.org/2000/svg"
   xmlns="http://www.w3.org/2000/svg"
   viewBox="0 0 1466.6667 1466.6667"
   height="1466.6667"
   width="1466.6667"
   xml:space="preserve"
   id="svg2"
   version="1.1"><metadata
     id="metadata8"><rdf:RDF><cc:Work
         rdf:about=""><dc:format>image/svg+xml</dc:format><dc:type
           rdf:resource="http://purl.org/dc/dcmitype/StillImage" /></cc:Work></rdf:RDF></metadata><defs
     id="defs6" /><g
     transform="matrix(1.3333333,0,0,-1.3333333,0,1466.6667)"
     id="g10"><g
       transform="scale(0.1)"
       id="g12"><path
         id="path14"
         style="fill:#3decba;fill-opacity:1;fill-rule:nonzero;stroke:none"
         d="m 5411.11,6209.69 c -51.21,-113.23 -98.98,-228.05 -147.57,-342.49 -12.31,-29.03 -11.84,-55.74 -1.25,-88.63 59.92,-186.96 131.79,-370.28 175.62,-562.34 4.61,-20.08 9.02,-42.22 32.7,-48.06 24.57,-6.1 38.08,13.57 48.31,30.04 54.92,87.7 108.99,176.03 161.49,265.22 10.07,17.04 11.95,38.88 14.76,48.66 -1.13,16.03 -0.62,21.46 -1.99,26.33 -63.44,229.26 -128.71,458.09 -219.41,678.46 -21.37,51.85 -50.16,20.39 -62.66,-7.19" /><path
         id="path16"
         style="fill:#53cab8;fill-opacity:1;fill-rule:nonzero;stroke:none"
         d="m 4568.73,6114.92 c -51.68,-330.43 -8.52,-650.41 56.64,-984.58 202.89,289.71 175.31,697.83 -56.64,984.58" /><path
         id="path18"
         style="fill:#52e6c0;fill-opacity:1;fill-rule:nonzero;stroke:none"
         d="m 5003.69,6288.85 c 22.31,4.15 28.71,27.34 33.36,47.46 26.99,116 54.34,231.94 79.92,348.33 24.77,112.41 36.92,222.88 -47.54,320.35 -16.17,18.73 -24.33,45.66 -32.14,70.05 -76.65,241.42 -170.83,477.87 -199.38,732.7 -7.3,65.67 -33.24,127.88 -66.52,177.63 0,-158.08 -3.44,-320.88 0.7,-483.49 8.24,-322.96 91.13,-635.04 144.88,-951.34 12.07,-71.03 23.6,-142.28 39.92,-212.37 5.04,-21.2 10.43,-56.22 46.8,-49.32" /><path
         id="path20"
         style="fill:#47d0c5;fill-opacity:1;fill-rule:nonzero;stroke:none"
         d="m 4562.29,4350.55 c 120.78,349.83 298.94,674.49 433.71,1018.1 155.39,396.1 324.76,786.76 475.74,1184.5 164.52,433.48 216.79,884.72 192.45,1348.28 -16.17,307.65 -55.27,612.27 -113.43,912.54 -72.42,374.03 -244.22,715.02 -415.47,1052.6 57.19,-352.56 89.61,-704.08 124.61,-1055.3 19.06,-191.15 41.14,-382.31 50.74,-574.02 20.63,-412.02 -24.92,-822.08 -77.1,-1228.67 -76.25,-594.59 -231.25,-1172.4 -443.72,-1733.87 -111.99,-296.04 -257.42,-579.61 -327.61,-891.27 -35.51,-157.67 -71.92,-314.09 -40.24,-477.04 62.19,144.33 89.73,297.46 140.32,444.15" /><path
         id="path22"
         style="fill:#51c8d9;fill-opacity:1;fill-rule:nonzero;stroke:none"
         d="m 4657.32,1488.62 5.12,0.79 c 0.51,1.31 1.13,2.74 1.49,3.78 l -6.61,-4.57" /><path
         id="path24"
         style="fill:#5ccec9;fill-opacity:1;fill-rule:nonzero;stroke:none"
         d="M 3990.25,4017.76 C 3807.68,3698.91 3706.04,3362 3759.36,2993.44 c 45.82,-316.68 153.47,-615.27 311.17,-892.24 125.78,-220.98 263.28,-437.64 514.92,-550.24 -257.27,357.25 -524.53,709.1 -634.69,1144.71 -111.8,442.21 -74.26,883.37 39.49,1322.09" /><path
         id="path26"
         style="fill:#60decc;fill-opacity:1;fill-rule:nonzero;stroke:none"
         d="m 5702.24,3772.29 c 24.38,-11.01 36.37,12.63 49.69,26.86 106.13,113.35 181.6,236.97 156.6,403.52 -9.88,65.85 -1.6,134.43 -1.6,201.82 -2.35,0.04 -4.69,0.04 -6.99,0.12 -5.51,72.29 -7.62,145.12 -17.58,216.85 -9.42,68.59 31.56,176.02 -37.07,195.31 -57.97,16.3 -91.02,-96.15 -139.96,-147.44 -49.96,-52.37 -88.95,-109.54 -78.21,-193.18 27.7,-215.65 59.77,-431.35 57.15,-649.8 -0.27,-19.52 -3.94,-44.2 17.97,-54.06" /><path
         id="path28"
         style="fill:#4ad49f;fill-opacity:1;fill-rule:nonzero;stroke:none"
         d="m 6154.55,5286.21 c -128.17,-194.64 -220.79,-411.34 -186.14,-657.86 2.74,-19.71 -3.32,-45.59 18.56,-54.54 34.69,-14.35 43.9,19.06 54.57,39.74 110.78,214.91 275.94,388.75 427.89,572.83 176.13,213.33 320.78,449.59 440.27,696.4 160.78,331.93 278.71,679.25 333.24,1049.8 53.87,365.64 22.07,724.38 -21.17,1085.42 -0.86,7.46 -13.71,13.63 -21.01,20.46 -23.83,-30.46 -15.63,-67.99 -17.07,-103.14 -9.34,-229.92 -45.43,-452.01 -137.07,-667.33 -103.75,-243.41 -217.07,-484.24 -290.12,-739.48 -128.71,-449.55 -346.02,-853.59 -601.95,-1242.3" /><path
         id="path30"
         style="fill:#70c2ab;fill-opacity:1;fill-rule:nonzero;stroke:none"
         d="m 4776.58,3567.47 c -117.42,-301.96 -130.66,-617.7 -133.71,-935.89 -1.99,-209.17 32.77,-409.01 129.65,-597.88 5.82,296.38 30.43,589.49 70.82,882.24 82.93,600.77 316.45,1136.77 669.22,1625.73 273.39,379.05 556.2,751.46 803.9,1148.69 310.35,497.79 456.68,1040.39 473.32,1625.21 9.45,329.75 -48.12,651.68 -77.85,977.05 -1.64,18.35 -7.46,40.93 -43.99,31.61 -26.71,-481.02 -93.08,-957.35 -221.56,-1425.96 -94.14,-343.2 -215.39,-673.55 -391.6,-980.88 -219.77,-383.16 -469.96,-747.98 -694.45,-1128.72 -230.43,-390.62 -419.88,-799.33 -583.75,-1221.2" /><path
         id="path32"
         style="fill:#67d0b9;fill-opacity:1;fill-rule:nonzero;stroke:none"
         d="m 4470.29,1857.15 -4.49,-1.23 c -0.16,0.11 -0.27,0.26 -0.47,0.41 -0.58,-1.39 -0.9,-2.74 -1.56,-4.08 l 6.52,4.9" /><path
         id="path34"
         style="fill:#4ce6b5;fill-opacity:1;fill-rule:nonzero;stroke:none"
         d="m 4662.44,1489.41 c -0.94,-2.2 -1.72,-4.26 -1.37,-4.49 8.79,-5.36 11.06,-3.34 6.49,5.29 l -5.12,-0.8" /><path
         id="path36"
         style="fill:#58eab1;fill-opacity:1;fill-rule:nonzero;stroke:none"
         d="m 4935.88,4164.94 c 48.83,227.64 65.16,461.53 38.4,695.66 -6.29,54.5 -17.85,107.2 -59.03,173.96 -70.19,-152.99 -132.54,-288.78 -194.64,-424.57 -24.07,-52.44 -29.54,-105.21 -29.46,-164.71 0.24,-196.54 -15.58,-391.74 -53.75,-586.45 -38.16,-194.39 -110.47,-377.63 -159.06,-568.37 -52.5,-205.58 3.01,-396.92 65.08,-589.58 -4.42,379.17 77.77,734.54 236.52,1074.78 59.1,126.76 127.07,254.47 155.94,389.28" /><path
         id="path38"
         style="fill:#50e0d5;fill-opacity:1;fill-rule:nonzero;stroke:none"
         d="m 5247.99,2794.2 4.22,3.63 c 0.08,1.68 0.43,3.29 0.58,4.98 -1.4,-0.52 -2.34,-1.5 -3.83,-1.95 l -0.97,-6.66" /><path
         id="path40"
         style="fill:#70c6b4;fill-opacity:1;fill-rule:nonzero;stroke:none"
         d="m 4945.61,1258.25 c 1.83,7.42 3.67,14.91 5.5,22.33 -0.19,0.67 -0.5,1.31 -0.7,1.99 -1.6,-8.06 -3.2,-16.22 -4.8,-24.32" /><path
         id="path42"
         style="fill:#59c7c9;fill-opacity:1;fill-rule:nonzero;stroke:none"
         d="m 7783.49,5836.38 c -125.51,-138.71 -250.08,-278.36 -375.98,-416.78 -199.57,-219.39 -427.96,-408.95 -641.64,-613.73 -357.03,-342.12 -663.12,-730.38 -991.25,-1098.64 -169.21,-190.07 -310.85,-403.52 -427.26,-631.38 -43.98,-86.23 -85.7,-174.22 -94.57,-273.04 30.67,11.27 42.35,41.02 56.37,65.55 111.76,195.61 253,368.5 410.78,527.47 219.57,221.19 444.8,436.81 664.96,657.37 121.4,121.63 245.08,241.13 387.81,336.46 82.85,55.36 162.81,113.35 230.27,184.94 163.95,174.03 327,349.15 482.62,530.57 175.31,204.49 286.8,443.74 349.84,705.32 3.36,14.01 4.93,37.08 -2.89,43.34 -20.19,16.44 -36.09,-3.15 -49.06,-17.45" /><path
         id="path44"
         style="fill:#4fc2d9;fill-opacity:1;fill-rule:nonzero;stroke:none"
         d="m 5892.05,3445.91 c -29.3,8.32 -44.22,-21.65 -59.38,-40.49 -42.85,-53.05 -129.06,-84.66 -104.18,-173.33 23.17,-82.67 7.62,-163.4 5.08,-245.17 -4.96,-158.9 -52.19,-311.96 -74.45,-473.89 36.64,13.52 50.46,35.2 60.58,59.03 109.61,258.47 186.29,524.99 192.19,808.11 0.51,23.45 13.12,56.33 -19.84,65.74" /><path
         id="path46"
         style="fill:#4cd0d5;fill-opacity:1;fill-rule:nonzero;stroke:none"
         d="m 4950.41,1282.75 c 0,-0.07 0,-0.11 0,-0.18 0,0.07 0,0.11 0.04,0.18 h -0.04" /><path
         id="path48"
         style="fill:#5be4c0;fill-opacity:1;fill-rule:nonzero;stroke:none"
         d="m 5178.5,1308.41 c -5.55,-6.93 -4.69,-13.15 3.43,-18.69 1.68,3.18 3.99,6.22 5,9.63 5.51,19.59 -0.93,-7.8 -8.43,9.06" /><path
         id="path50"
         style="fill:#5ec4a3;fill-opacity:1;fill-rule:nonzero;stroke:none"
         d="m 4421.5,2781.27 c -13.79,-43.79 -19.06,-53.34 -19.61,-63.15 -16.75,-317.74 72.93,-615.69 181.61,-907.31 30.27,-81.17 53.2,-170.44 101.13,-241.68 68.75,-102.12 156.21,-191.64 236.83,-285.63 4.18,-4.91 18.99,-0.71 28.95,-0.75 -80.04,251.05 -216.02,479.67 -291.29,732.86 -73.4,246.93 -152.46,492.13 -237.62,765.66" /><path
         id="path52"
         style="fill:#59d0cb;fill-opacity:1;fill-rule:nonzero;stroke:none"
         d="m 5178.03,1309.31 c 0.19,-0.41 0.31,-0.52 0.47,-0.9 0.82,1.05 1.44,2.06 2.61,3.14 -1.05,-0.78 -2.07,-1.49 -3.08,-2.24" /><path
         id="path54"
         style="fill:#52e0aa;fill-opacity:1;fill-rule:nonzero;stroke:none"
         d="m 5286.62,3130.99 c 80.94,120.66 111.49,255.44 123.56,396.77 13,151.56 44.84,303.24 112.88,435.2 63.01,122.42 63.44,235.77 38.91,359.46 -5.67,28.62 3.59,69.87 -36.88,75.07 -26.32,3.45 -41.24,-26.79 -55.73,-48.54 -264.34,-397.6 -457.43,-826.21 -548.87,-1295.91 -67.62,-347.37 -103.28,-698.51 -83.75,-1053.32 7.03,-128.9 28.67,-254.31 101.13,-404.78 14.96,152.42 4.65,270.68 19.26,388.18 38.12,306.54 170.16,587.9 225.47,889.07 17.15,93.19 51.48,180.58 104.02,258.8" /><path
         id="path56"
         style="fill:#382c2c;fill-opacity:1;fill-rule:nonzero;stroke:none"
         d="m 7835.44,5810.49 c -63.04,-261.58 -174.53,-500.83 -349.84,-705.32 -155.62,-181.42 -318.67,-356.54 -482.62,-530.57 -67.46,-71.59 -147.42,-129.58 -230.27,-184.94 -142.73,-95.33 -266.41,-214.83 -387.81,-336.46 -220.16,-220.56 -445.39,-436.18 -664.96,-657.37 -157.78,-158.97 -299.02,-331.86 -410.78,-527.47 -14.02,-24.53 -25.7,-54.28 -56.37,-65.55 -0.15,-1.69 -0.5,-3.3 -0.58,-4.98 l -4.22,-3.63 0.97,6.66 c 1.49,0.45 2.43,1.43 3.83,1.95 8.87,98.82 50.59,186.81 94.57,273.04 116.41,227.86 258.05,441.31 427.26,631.38 328.13,368.26 634.22,756.52 991.25,1098.64 213.68,204.78 442.07,394.34 641.64,613.73 125.9,138.42 250.47,278.07 375.98,416.78 12.97,14.3 28.87,33.89 49.06,17.45 7.82,-6.26 6.25,-29.33 2.89,-43.34 z M 5911.89,3380.17 c -5.9,-283.12 -82.58,-549.64 -192.19,-808.11 -10.12,-23.83 -23.94,-45.51 -60.58,-59.03 22.26,161.93 69.49,314.99 74.45,473.89 2.54,81.77 18.09,162.5 -5.08,245.17 -24.88,88.67 61.33,120.28 104.18,173.33 15.16,18.84 30.08,48.81 59.38,40.49 32.96,-9.41 20.35,-42.29 19.84,-65.74 z m -254.41,-239.14 c -7.78,-108.89 -9.61,-218.65 -25.28,-326.42 -37.26,-256.97 -111.13,-504.61 -212.06,-781.96 -42.85,313.39 -17.27,586.99 7.65,860.44 11.41,125 113.24,193.78 186.37,279.74 4.88,5.81 19.06,8.21 27.03,5.84 18.16,-5.35 17.34,-22.62 16.29,-37.64 z M 5307.01,1831.72 c -8.71,-98.29 -51.09,-189.25 -91.48,-279.38 -44.14,-98.47 -85.39,-198.31 -131.17,-305.44 -59.77,48.1 -51.45,107.47 -56.88,160.4 -25.12,244.31 -1.84,488.21 40.66,726.79 34.85,195.01 120.08,378.26 224.3,550.76 20.51,-286.98 39.65,-570.13 14.57,-853.13 z m -120.08,-532.37 c -1.01,-3.41 -3.32,-6.45 -5,-9.63 -8.12,5.54 -8.98,11.76 -3.43,18.69 -0.16,0.38 -0.28,0.49 -0.47,0.9 1.01,0.75 2.03,1.46 3.08,2.24 -1.17,-1.08 -1.79,-2.09 -2.61,-3.14 7.5,-16.86 13.94,10.53 8.43,-9.06 z m -249.06,295.59 c -72.46,150.47 -94.1,275.88 -101.13,404.78 -19.53,354.81 16.13,705.95 83.75,1053.32 91.44,469.7 284.53,898.31 548.87,1295.91 14.49,21.75 29.41,51.99 55.73,48.54 40.47,-5.2 31.21,-46.45 36.88,-75.07 24.53,-123.69 24.1,-237.04 -38.91,-359.46 -68.04,-131.96 -99.88,-283.64 -112.88,-435.2 -12.07,-141.33 -42.62,-276.11 -123.56,-396.77 -52.54,-78.22 -86.87,-165.61 -104.02,-258.8 -55.31,-301.17 -187.35,-582.53 -225.47,-889.07 -14.61,-117.5 -4.3,-235.76 -19.26,-388.18 z m 7.74,-336.69 c 1.6,8.1 3.2,16.26 4.8,24.32 0.2,-0.68 0.51,-1.32 0.7,-1.99 -1.83,-7.42 -3.67,-14.91 -5.5,-22.33 z m -24.15,25.25 c -80.62,93.99 -168.08,183.51 -236.83,285.63 -47.93,71.24 -70.86,160.51 -101.13,241.68 -108.68,291.62 -198.36,589.57 -181.61,907.31 0.55,9.81 5.82,19.36 19.61,63.15 85.16,-273.53 164.22,-518.73 237.62,-765.66 75.27,-253.19 211.25,-481.81 291.29,-732.86 -9.96,0.04 -24.77,-4.16 -28.95,0.75 z m -260.39,201.42 c -0.35,0.23 0.43,2.29 1.37,4.49 l -5.12,-0.79 6.61,4.57 c -0.36,-1.04 -0.98,-2.47 -1.49,-3.78 l 5.12,0.8 c 4.57,-8.63 2.3,-10.65 -6.49,-5.29 z m -590.54,616.28 c -157.7,276.97 -265.35,575.56 -311.17,892.24 -53.32,368.56 48.32,705.47 230.89,1024.32 -113.75,-438.72 -151.29,-879.88 -39.49,-1322.09 110.16,-435.61 377.42,-787.46 634.69,-1144.71 -251.64,112.6 -389.14,329.26 -514.92,550.24 z m 391.68,2282.24 c 70.19,311.66 215.62,595.23 327.61,891.27 212.47,561.47 367.47,1139.28 443.72,1733.87 52.18,406.59 97.73,816.65 77.1,1228.67 -9.6,191.71 -31.68,382.87 -50.74,574.02 -35,351.22 -67.42,702.74 -124.61,1055.3 171.25,-337.58 343.05,-678.57 415.47,-1052.6 58.16,-300.27 97.26,-604.89 113.43,-912.54 24.34,-463.56 -27.93,-914.8 -192.45,-1348.28 -150.98,-397.74 -320.35,-788.4 -475.74,-1184.5 -134.77,-343.61 -312.93,-668.27 -433.71,-1018.1 -50.59,-146.69 -78.13,-299.82 -140.32,-444.15 -31.68,162.95 4.73,319.37 40.24,477.04 z m 106.52,1731.48 c 231.95,-286.75 259.53,-694.87 56.64,-984.58 -65.16,334.17 -108.32,654.15 -56.64,984.58 z m 388.16,223.25 c -16.32,70.09 -27.85,141.34 -39.92,212.37 -53.75,316.3 -136.64,628.38 -144.88,951.34 -4.14,162.61 -0.7,325.41 -0.7,483.49 33.28,-49.75 59.22,-111.96 66.52,-177.63 28.55,-254.83 122.73,-491.28 199.38,-732.7 7.81,-24.39 15.97,-51.32 32.14,-70.05 84.46,-97.47 72.31,-207.94 47.54,-320.35 -25.58,-116.39 -52.93,-232.33 -79.92,-348.33 -4.65,-20.12 -11.05,-43.31 -33.36,-47.46 -36.37,-6.9 -41.76,28.12 -46.8,49.32 z m 736.29,-799.75 c 1.37,-4.87 0.86,-10.3 1.99,-26.33 -2.81,-9.78 -4.69,-31.62 -14.76,-48.66 -52.5,-89.19 -106.57,-177.52 -161.49,-265.22 -10.23,-16.47 -23.74,-36.14 -48.31,-30.04 -23.68,5.84 -28.09,27.98 -32.7,48.06 -43.83,192.06 -115.7,375.38 -175.62,562.34 -10.59,32.89 -11.06,59.6 1.25,88.63 48.59,114.44 96.36,229.26 147.57,342.49 12.5,27.58 41.29,59.04 62.66,7.19 90.7,-220.37 155.97,-449.2 219.41,-678.46 z m -700.11,-395 c -8.36,37.57 -4.57,72.59 9.14,106.79 50.15,125.23 101.09,250.27 152.77,374.97 5.55,13.44 15.27,28.54 27.34,35.13 17.5,9.59 28.6,-6.63 33.79,-21.05 69.14,-190.18 150.82,-376.72 169.85,-568.78 -0.82,-49.18 -1.1,-85.33 -20,-118.7 -77.15,-135.38 -153.44,-271.29 -230.51,-406.74 -9.84,-17.34 -20.82,-40.79 -45.78,-25.43 -10.35,6.37 -18.48,26.25 -17.62,39.33 13.01,200.22 -35.82,392.01 -78.98,584.48 z M 4478.34,3290.46 c 48.59,190.74 120.9,373.98 159.06,568.37 38.17,194.71 53.99,389.91 53.75,586.45 -0.08,59.5 5.39,112.27 29.46,164.71 62.1,135.79 124.45,271.58 194.64,424.57 41.18,-66.76 52.74,-119.46 59.03,-173.96 26.76,-234.13 10.43,-468.02 -38.4,-695.66 -28.87,-134.81 -96.84,-262.52 -155.94,-389.28 -158.75,-340.24 -240.94,-695.61 -236.52,-1074.78 -62.07,192.66 -117.58,384 -65.08,589.58 z m 78.69,508.72 c -20.28,-114.8 -29.83,-256.26 -113.79,-346.07 34.61,37.02 -18.39,171.13 -14.88,218.47 9.71,130.76 84.01,270.72 116.92,400.4 16.24,64.01 25.75,174.73 67.39,227.76 18.91,-141.82 -23.41,-311.94 -47.42,-452.6 -2.56,-15.04 -5.25,-31.15 -8.22,-47.96 z m 939.83,-310.83 c -6.18,152.87 3.94,196.47 88.47,332.61 22.26,-121.83 33.71,-243.67 -88.47,-332.61 z m 130.26,987.8 c -10.74,83.64 28.25,140.81 78.21,193.18 48.94,51.29 81.99,163.74 139.96,147.44 68.63,-19.29 27.65,-126.72 37.07,-195.31 9.96,-71.73 12.07,-144.56 17.58,-216.85 2.3,-0.08 4.64,-0.08 6.99,-0.12 0,-67.39 -8.28,-135.97 1.6,-201.82 25,-166.55 -50.47,-290.17 -156.6,-403.52 -13.32,-14.23 -25.31,-37.87 -49.69,-26.86 -21.91,9.86 -18.24,34.54 -17.97,54.06 2.62,218.45 -29.45,434.15 -57.15,649.8 z m 427.66,1441.24 c 176.21,307.33 297.46,637.68 391.6,980.88 128.48,468.61 194.85,944.94 221.56,1425.96 36.53,9.32 42.35,-13.26 43.99,-31.61 29.73,-325.37 87.3,-647.3 77.85,-977.05 -16.64,-584.82 -162.97,-1127.42 -473.32,-1625.21 -247.7,-397.23 -530.51,-769.64 -803.9,-1148.69 -352.77,-488.96 -586.29,-1024.96 -669.22,-1625.73 -40.39,-292.75 -65,-585.86 -70.82,-882.24 -96.88,188.87 -131.64,388.71 -129.65,597.88 3.05,318.19 16.29,633.93 133.71,935.89 163.87,421.87 353.32,830.58 583.75,1221.2 224.49,380.74 474.68,745.56 694.45,1128.72 z m 991.84,1350.6 c 91.64,215.32 127.73,437.41 137.07,667.33 1.44,35.15 -6.76,72.68 17.07,103.14 7.3,-6.83 20.15,-13 21.01,-20.46 43.24,-361.04 75.04,-719.78 21.17,-1085.42 -54.53,-370.55 -172.46,-717.87 -333.24,-1049.8 -119.49,-246.81 -264.14,-483.07 -440.27,-696.4 -151.95,-184.08 -317.11,-357.92 -427.89,-572.83 -10.67,-20.68 -19.88,-54.09 -54.57,-39.74 -21.88,8.95 -15.82,34.83 -18.56,54.54 -34.65,246.52 57.97,463.22 186.14,657.86 255.93,388.71 473.24,792.75 601.95,1242.3 73.05,255.24 186.37,496.07 290.12,739.48 z m 887.77,-1144.38 c -41.6,24.09 -52.66,-15.36 -68.36,-38.99 C 7607.67,5695.9 7277.91,5372.71 6934,5061.6 c -266.13,-240.79 -521.84,-492.22 -744.61,-775.17 -38.52,-48.97 -81.52,-94.56 -125.23,-138.98 -27.74,-28.17 -59.54,-29.56 -63.21,17.98 -6.68,86.53 -28.98,173.85 19.34,258.39 108.16,189.55 212.3,380.58 362.58,542.64 278.51,300.23 487.14,647.45 655.19,1018.36 168.75,372.57 255.16,764.62 290.39,1174.09 33.48,389.88 -28.04,766.98 -83.94,1147.15 -4.03,27.49 -17,51.81 -47.74,50.53 -31.91,-1.27 -36.64,-28.88 -42.89,-55.44 -39.37,-167.52 -63.24,-336.41 -61.52,-509.26 2.69,-262.06 -130.55,-480.79 -231.56,-712.81 -17.15,62.34 -16.57,122.12 -17.31,181.83 -2.23,181.94 11.02,365.83 -11.13,545.33 -41.72,339.46 -86.49,679.96 -207.19,1004.06 -10.86,29.04 -13.44,62.22 -37.73,83.54 -9.93,8.76 -28.25,10.37 -42.66,10.07 -4.69,-0.07 -12.85,-16.66 -12.66,-25.62 0.32,-20.53 3.32,-41.32 7.78,-61.47 79.72,-361.52 52.3,-723.98 9.92,-1086.69 -43.16,-368.45 -152.5,-721.85 -254.88,-1075.69 -100.16,-346.27 -257.07,-669.24 -463.36,-966.56 -14.03,-20.15 -22.27,-52.44 -54.46,-47.26 -32.42,5.2 -29.61,38.79 -35.07,61.99 -50.04,213.82 -149.46,409.95 -220.43,616.28 -21.41,62.33 -24.92,117.06 -2.39,180.51 55.67,156.69 105.78,315.67 137.35,479.37 93.4,484.79 94.68,971.09 13.36,1457.2 -28.25,168.76 -39.81,339.49 -80.47,507.27 -80.43,331.41 -245.7,628.5 -364.45,944.2 -43.83,116.46 -113.75,221.86 -147.7,343.16 -8,28.7 -28.86,61.3 -66.71,47.7 -35.04,-12.9 -35.67,-45.5 -26.14,-78.8 9.96,-34.7 19.07,-70 25.39,-105.7 91.25,-511.77 159.65,-1026.68 213.99,-1543.65 22.89,-217.94 34.61,-435.84 20.15,-654.3 -13.71,-207.41 -33,-414.45 -53.43,-621.34 -5.39,-54.54 18.98,-145.98 -32.35,-155.42 -75,-13.83 -75.19,82.71 -94.37,135.34 -130.31,357.13 -193.17,731.92 -281.56,1100.06 -8.4,35.18 -15,70.95 -26.33,105.16 -8.28,24.98 -24.53,47.83 -56.37,41.61 -31.88,-6.14 -37.73,-31.16 -34.73,-59.22 5.04,-46.3 15.2,-92.57 15.39,-138.91 1.02,-322.78 12.82,-645.6 46.57,-966.1 42.42,-402.58 103.9,-803.06 232.77,-1189.3 10.82,-32.32 10.51,-60.31 2.11,-90.35 -25.31,-90.02 -50.39,-180.21 -77.54,-269.67 -6.6,-21.68 -1.95,-58.47 -40.47,-53.49 -22.34,2.85 -26.68,27.76 -33.79,47.27 -60.66,165.77 -122.03,331.29 -182.85,497.09 -16.13,43.9 -27.15,98.89 -89.45,86.64 -59.49,-11.57 -59.46,-70.23 -56.53,-114.02 5.32,-78.26 5.04,-155.87 -1.21,-233.6 -19.68,-245.43 8.52,-487.35 43.4,-729.82 24.42,-168.82 49.03,-342.49 -15.51,-507.38 -154.29,-394.34 -222.93,-798.41 -177.85,-1222.33 14.22,-133.32 38.4,-268.22 15.74,-404.15 -68.24,-408.57 -34.25,-807.7 113.48,-1195.89 12.7,-33.38 20.39,-67.09 6.21,-101.7 0.2,-0.15 0.31,-0.3 0.47,-0.41 l 4.49,1.23 -6.52,-4.9 c 0.66,1.34 0.98,2.69 1.56,4.08 -99.22,74.7 -141.87,189.72 -200.35,291.62 -92.85,162.16 -186.13,326.94 -229.96,510.19 -105.7,443.11 -103.28,885.13 32.3,1323.29 29.14,94.36 55.98,189.35 82.89,284.35 5.67,19.89 8.29,41.43 -12.46,56.34 -26.52,19.07 -49.88,8.95 -68.08,-11.76 -16.99,-19.33 -30.74,-41.62 -44.46,-63.57 -127.18,-204.27 -227.07,-422.17 -290.82,-653.22 -42.65,-154.25 -87.18,-313.04 -69.18,-476.18 44.73,-403.05 166.65,-783.19 375.59,-1130.7 114.73,-190.74 248.28,-366.28 434.34,-503.09 161.99,-119.11 317.07,-256.77 432.15,-424.11 77.34,-112.291 168.47,-209.99 255.11,-312.888 21.45,-25.403 45.94,-46.5 79.42,-34.704 50.35,17.903 27.85,55.704 21.52,91.204 -34.18,192.597 -38.01,381.248 56.99,562.398 30.82,58.85 57.03,126.57 52.03,194.45 -12.5,164.83 57.27,303.42 128.44,442.32 45.03,87.88 92.61,174.41 139.21,261.46 135.24,252.74 259.22,510.5 310.4,795.26 24.76,137.86 34.6,278.32 52.42,417.48 8.67,67.25 18.2,135.98 72.85,184.15 214.53,188.95 393.44,417.75 628.44,582.57 305.97,214.64 545.66,493.23 793.55,767.43 271.37,300.12 362.38,671.08 457.46,1044.03 6.88,26.85 4.77,54.09 -20.74,68.96" /></g></g></svg>