<svg xmlns="http://www.w3.org/2000/svg" viewBox="0 0 16 16"><defs><style>.cls-1{fill:#fff;}</style></defs><title>Finspo_logo_white</title><g id="Layer_3" data-name="Layer 3"><circle class="cls-1" cx="8" cy="8" r="8"/><path d="M8,12.81A3.74,3.74,0,0,1,4.13,9.2a.35.35,0,1,1,.69,0A3.06,3.06,0,0,0,8,12.11,3.05,3.05,0,0,0,11.16,9.2a.34.34,0,0,1,.35-.35.35.35,0,0,1,.35.35A3.75,3.75,0,0,1,8,12.81Z"/><path d="M8.65,10.57a.35.35,0,0,1-.35-.35c0-.22-.18-.36-.58-.6s-.92-.55-.92-1.2.51-1,.92-1.2.58-.37.58-.6-.18-.36-.58-.6-.92-.55-.92-1.2.51-1,.92-1.2.58-.37.58-.6a.35.35,0,0,1,.35-.35A.35.35,0,0,1,9,3c0,.65-.51,1-.92,1.2s-.58.37-.58.6.19.36.58.6S9,6,9,6.62s-.51,1-.92,1.2-.58.37-.58.6.19.37.58.6.92.56.92,1.2A.34.34,0,0,1,8.65,10.57Z"/><path d="M11.24,7.2a1,1,0,1,1,1-1A1,1,0,0,1,11.24,7.2Zm0-1.35a.33.33,0,0,0-.32.33.33.33,0,0,0,.65,0A.33.33,0,0,0,11.24,5.85Z"/><path d="M4.76,7.2a1,1,0,1,1,1-1A1,1,0,0,1,4.76,7.2Zm0-1.35a.32.32,0,0,0-.32.33.32.32,0,0,0,.32.32.32.32,0,0,0,.33-.32A.33.33,0,0,0,4.76,5.85Z"/></g></svg>