<?xml version="1.0" encoding="UTF-8"?>
<svg width="53px" height="53px" viewBox="0 0 53 53" version="1.1" xmlns="http://www.w3.org/2000/svg" xmlns:xlink="http://www.w3.org/1999/xlink">
    <title>Group 10</title>
    <defs>
        <polygon id="path-1" points="0 0 52.901 0 52.901 52.9006 0 52.9006"></polygon>
    </defs>
    <g id="Page-1" stroke="none" stroke-width="1" fill="none" fill-rule="evenodd">
        <g id="Group-10" transform="translate(0.000000, -0.000000)">
            <g id="Group-3">
                <mask id="mask-2" fill="white">
                    <use xlink:href="#path-1"></use>
                </mask>
                <g id="Clip-2"></g>
                <path d="M14.5645,47.9776 L4.9235,38.3366 C-1.6415,31.7716 -1.6415,21.1286 4.9235,14.5636 L14.5635,4.9236 C21.1285,-1.6414 31.7725,-1.6414 38.3365,4.9236 L47.9775,14.5636 C54.5435,21.1286 54.5435,31.7726 47.9775,38.3376 L38.3375,47.9776 C31.7725,54.5416 21.1285,54.5416 14.5645,47.9776" id="Fill-1" fill="#F15A24" mask="url(#mask-2)"></path>
            </g>
            <path d="M34.6905,14.9503 C34.2095,14.9503 33.9975,15.1143 33.9525,15.3473 C33.6635,16.8763 31.7205,17.0083 31.7205,18.7823 C31.7205,20.6973 33.9885,20.6973 33.9885,22.6123 C33.9885,24.5273 31.7205,24.5273 31.7205,26.4433 C31.7205,28.3583 33.9885,28.3583 33.9885,30.2743 C33.9885,32.1933 31.7205,32.1933 31.7205,34.1123 C31.7205,35.7793 33.4315,35.9983 33.8815,37.2853 C34.0255,37.6973 34.4435,37.9503 34.8795,37.9503 L36.6205,37.9503 C37.6285,37.9503 38.0955,36.6913 37.3255,36.0393 C36.7555,35.5563 36.1825,35.0773 36.1825,34.1123 C36.1825,32.1933 38.4505,32.1933 38.4505,30.2743 C38.4505,28.3583 36.1825,28.3583 36.1825,26.4433 C36.1825,24.5273 38.4505,24.5273 38.4505,22.6123 C38.4505,20.6973 36.1825,20.6973 36.1825,18.7823 C36.1825,17.8173 36.7565,17.3393 37.3275,16.8563 C38.0955,16.2073 37.6305,14.9503 36.6245,14.9503 L34.6905,14.9503 Z" id="Fill-4" fill="#FFFFFF"></path>
            <path d="M25.9825,14.9503 C25.5015,14.9503 25.2895,15.1143 25.2455,15.3473 C24.9565,16.8763 23.0125,17.0083 23.0125,18.7823 C23.0125,20.6973 25.2805,20.6973 25.2805,22.6123 C25.2805,24.5273 23.0125,24.5273 23.0125,26.4433 C23.0125,28.3583 25.2805,28.3583 25.2805,30.2743 C25.2805,32.1933 23.0125,32.1933 23.0125,34.1123 C23.0125,35.7793 24.7245,35.9983 25.1735,37.2853 C25.3175,37.6973 25.7365,37.9503 26.1725,37.9503 L27.9125,37.9503 C28.9205,37.9503 29.3875,36.6913 28.6185,36.0393 C28.0475,35.5563 27.4745,35.0773 27.4745,34.1123 C27.4745,32.1933 29.7425,32.1933 29.7425,30.2743 C29.7425,28.3583 27.4745,28.3583 27.4745,26.4433 C27.4745,24.5273 29.7425,24.5273 29.7425,22.6123 C29.7425,20.6973 27.4745,20.6973 27.4745,18.7823 C27.4745,17.8173 28.0485,17.3393 28.6195,16.8563 C29.3875,16.2073 28.9225,14.9503 27.9165,14.9503 L25.9825,14.9503 Z" id="Fill-6" fill="#FFFFFF"></path>
            <path d="M17.2755,14.9503 C16.7935,14.9503 16.5815,15.1143 16.5375,15.3473 C16.2485,16.8763 14.3055,17.0083 14.3055,18.7823 C14.3055,20.6973 16.5735,20.6973 16.5735,22.6123 C16.5735,24.5273 14.3055,24.5273 14.3055,26.4433 C14.3055,28.3583 16.5735,28.3583 16.5735,30.2743 C16.5735,32.1933 14.3055,32.1933 14.3055,34.1123 C14.3055,35.7793 16.0165,35.9983 16.4655,37.2853 C16.6105,37.6973 17.0285,37.9503 17.4645,37.9503 L19.2045,37.9503 C20.2135,37.9503 20.6795,36.6913 19.9105,36.0393 C19.3395,35.5563 18.7665,35.0773 18.7665,34.1123 C18.7665,32.1933 21.0345,32.1933 21.0345,30.2743 C21.0345,28.3583 18.7665,28.3583 18.7665,26.4433 C18.7665,24.5273 21.0345,24.5273 21.0345,22.6123 C21.0345,20.6973 18.7665,20.6973 18.7665,18.7823 C18.7665,17.8173 19.3405,17.3393 19.9125,16.8563 C20.6805,16.2073 20.2145,14.9503 19.2095,14.9503 L17.2755,14.9503 Z" id="Fill-8" fill="#FFFFFF"></path>
        </g>
    </g>
</svg>